<?xml version="1.0" encoding="utf-8"?>
<!-- Generator: Adobe Illustrator 19.2.1, SVG Export Plug-In . SVG Version: 6.00 Build 0)  -->
<svg version="1.1" id="Layer_1" xmlns="http://www.w3.org/2000/svg" xmlns:xlink="http://www.w3.org/1999/xlink" x="0px" y="0px"
	 width="2000px" height="2000px" viewBox="0 0 2000 2000" enable-background="new 0 0 2000 2000" xml:space="preserve">
<g id="face_1_">
	<path stroke="#000000" stroke-width="11" stroke-linecap="round" stroke-linejoin="round" stroke-miterlimit="10" d="M1015.9,877.4
		c39.2-11.2,105.6-18.5,105.6-18.5h-273c60.7,8.4,95.2,15.2,114.8,20.2c3.4,2.7,9.9,4.7,17.8,5.6c9.1,3.7,7.7,5.5,7.7,5.5
		c1.3-1.9,3.8-3.7,7.2-5.5C1005.8,883.7,1013.4,880.9,1015.9,877.4z"/>
	<g id="face">
		<path fill="#FFFFFF" stroke="#000000" stroke-width="23" stroke-miterlimit="10" d="M1105.7,835.3c-4.9,0-80.7,0-152.7,0
			c-36.8,0-72.5,0-97.3,0c-20.5,0-33.5,0-33.5,0s-45,7.5-30-43.5l30-138c0,0,3-57,60-51h198c0,0,61.5-6,70.5,55.5l31.5,130.5
			C1182.2,788.8,1206.2,835.7,1105.7,835.3z"/>
		<path d="M953,835.3c-36.8,0-72.5,0-97.3,0c6.8-20.3,26.1-34.9,48.7-34.9S946.2,815,953,835.3z"/>
		<path d="M1119,835.3c-36.8,0-72.5,0-97.3,0c6.8-20.3,26-34.9,48.7-34.9S1112.2,815,1119,835.3z"/>
		<path fill="none" stroke="#000000" stroke-width="4" stroke-linecap="round" stroke-miterlimit="10" d="M976.7,835.6
			c0,0-13.9-26-33.9-35.3l-19.3-8.7"/>
		<path fill="none" stroke="#000000" stroke-width="4" stroke-linecap="round" stroke-miterlimit="10" d="M986.8,835.6
			c0,0,13.9-26,33.9-35.3l19.3-8.7"/>
		<path fill="none" stroke="#000000" stroke-width="3" stroke-miterlimit="10" d="M1155,829.8c0,0-10.4-32.9-36-23.5"/>
		<path fill="none" stroke="#000000" stroke-width="3" stroke-miterlimit="10" d="M813.2,831.5c0,0,10.4-32.9,36-23.5"/>
		<path d="M825.1,660.8c0,0,69-55.2,143.9-5.2c0,0,11.4,12,18.7-0.7c0,0,64.7-62,167.8-0.7c0,0-3.4-63-79.9-52.9c-76.5,10.2,0,0,0,0
			H897C897,601.5,828.7,591,825.1,660.8z"/>
		<g>
			<polygon fill="none" stroke="#000000" stroke-width="13" stroke-miterlimit="10" points="1008.2,665.8 1122.2,683.8 
				1122.2,743.8 1008.2,743.8 			"/>
			<polygon fill="none" stroke="#000000" stroke-width="13" stroke-miterlimit="10" points="955.7,665.8 841.7,683.8 841.7,743.8 
				955.7,743.8 			"/>
			<g>
				<g>
					<path fill="none" stroke="#000000" stroke-width="4" stroke-miterlimit="10" d="M929.9,712.5c0,0-37.3-31-62.3,0
						C867.5,712.5,897.6,743.5,929.9,712.5z"/>
					<circle cx="898.9" cy="714" r="13.3"/>
				</g>
				<g>
					<path fill="none" stroke="#000000" stroke-width="4" stroke-miterlimit="10" d="M1096.3,713.7c0,0-37.3-31-62.3,0
						C1034,713.7,1064.1,744.7,1096.3,713.7z"/>
					<circle cx="1065.2" cy="715.2" r="13.3"/>
				</g>
			</g>
		</g>
		<g>
			<path stroke="#000000" stroke-miterlimit="10" d="M1065.2,602.3c0,0,54.9-106.7,224.9-46.7l122,71.6c0,0-221.5-34.8-264.8,16.8
				C1147.3,644.1,1138.3,589,1065.2,602.3z"/>
			<path fill="#FFFFFF" stroke="#000000" stroke-width="3" stroke-miterlimit="10" d="M1150,542.5v65.8h83.4v-67.6
				C1233.4,540.7,1177.7,532.8,1150,542.5z"/>
			
				<path fill="#FFFFFF" stroke="#000000" stroke-width="3" stroke-linecap="round" stroke-linejoin="round" stroke-miterlimit="10" d="
				M1243.2,542.6c-0.5-0.1,0,65.8,0,65.8l100.8,11l68,7.9l-122-71.6C1290.1,555.7,1248,543.5,1243.2,542.6z"/>
			<path stroke="#000000" stroke-width="3" stroke-linecap="round" stroke-linejoin="round" stroke-miterlimit="10" d="
				M1165.4,553.8v41.5h52.6v-42.6C1218,552.7,1182.9,547.7,1165.4,553.8z"/>
			
				<path fill="#FFFFFF" stroke="#000000" stroke-width="3" stroke-linecap="round" stroke-linejoin="round" stroke-miterlimit="10" d="
				M1178.1,562.9v21.8h27.7v-22.4C1205.8,562.3,1187.3,559.7,1178.1,562.9z"/>
			<polygon points="1347.3,589.2 1260.8,568.1 1260.8,595 1314.1,602.3 1344.1,619.3 1412.1,627.3 			"/>
		</g>
		<g>
			<path stroke="#000000" stroke-miterlimit="10" d="M904.4,602.3c0,0-54.9-106.7-224.9-46.7l-122,71.6c0,0,221.5-34.8,264.8,16.8
				C822.2,644.1,831.3,589,904.4,602.3z"/>
			
				<path fill="#FFFFFF" stroke="#000000" stroke-width="3" stroke-linecap="round" stroke-linejoin="round" stroke-miterlimit="10" d="
				M819.5,542.5v65.8h-83.4v-67.6C736.1,540.7,791.9,532.8,819.5,542.5z"/>
			
				<path fill="#FFFFFF" stroke="#000000" stroke-width="3" stroke-linecap="round" stroke-linejoin="round" stroke-miterlimit="10" d="
				M726.3,542.6c0.5-0.1,0,65.8,0,65.8l-100.8,11l-68,7.9l122-71.6C679.4,555.7,721.5,543.5,726.3,542.6z"/>
			<path stroke="#000000" stroke-width="3" stroke-linecap="round" stroke-linejoin="round" stroke-miterlimit="10" d="M804.1,553.8
				v41.5h-52.6v-42.6C751.5,552.7,786.7,547.7,804.1,553.8z"/>
			
				<path fill="#FFFFFF" stroke="#000000" stroke-width="3" stroke-linecap="round" stroke-linejoin="round" stroke-miterlimit="10" d="
				M791.4,562.9v21.8h-27.7v-22.4C763.8,562.3,782.3,559.7,791.4,562.9z"/>
			<polygon points="622.2,589.2 708.8,568.1 708.8,595 655.4,602.3 625.5,619.3 557.4,627.3 			"/>
		</g>
		<path d="M1008.2,773.3l-27-37.2l-34.5,36H831.2l114.9,10.5c31.5,36,62.1,0,62.1,0l114-10.5L1008.2,773.3z M957.4,774l22.7-27.7
			l17.7,27.7C997.8,774,979.4,800.3,957.4,774z"/>
	</g>
</g>
<g id="second_face">
	<path fill="#FFFFFF" stroke="#000000" stroke-width="15" stroke-miterlimit="10" d="M777.8,1123.2l63.9-190.5c0,0,7.5-30,62.7-22.3
		l204.3-1.3c0,0,39-12.6,56.8,56.5l73.2,165c0,0,24.6,33-46.7,37.5H1137c0,0-29.8,0-34.3-34.5c0,0-7.9-80.1-104.9-70.5
		c0,0-81.7-8.9-99.1,55.5c0,0-10.5,55.5-67.5,49.5C831.2,1168.2,761.3,1172.5,777.8,1123.2z"/>
	
		<line fill="none" stroke="#000000" stroke-width="5" stroke-linecap="round" stroke-miterlimit="10" x1="993.9" y1="944.6" x2="993.9" y2="1042.1"/>
	
		<line fill="none" stroke="#000000" stroke-width="5" stroke-linecap="round" stroke-miterlimit="10" x1="993.9" y1="944.6" x2="1013.9" y2="1019.3"/>
	
		<line fill="none" stroke="#000000" stroke-width="5" stroke-linecap="round" stroke-miterlimit="10" x1="993.9" y1="944.6" x2="977.2" y2="1019.3"/>
	<path stroke="#000000" stroke-width="11" stroke-linecap="round" stroke-linejoin="round" stroke-miterlimit="10" d="M1021.2,929
		c39.2-11.2,97.8-17.6,97.8-17.6l-251.5,0.2c60.7,8.4,81.6,14,101.2,19.1c3.4,2.7,9.9,4.7,17.8,5.6c9.1,3.7,7.7,5.5,7.7,5.5
		c1.3-1.9,3.8-3.7,7.2-5.5C1011.1,935.3,1018.7,932.5,1021.2,929z"/>
	<polygon fill="#FFFFFF" stroke="#000000" stroke-width="9" stroke-miterlimit="10" points="1035.4,963.3 1144.5,980.5 
		1144.5,1037.9 1035.4,1037.9 	"/>
	<polygon fill="#FFFFFF" stroke="#000000" stroke-width="9" stroke-miterlimit="10" points="955.8,963.3 846.7,980.5 846.7,1037.9 
		955.8,1037.9 	"/>
	<g>
		<path fill="none" stroke="#000000" stroke-width="4" stroke-miterlimit="10" d="M931,1008c0,0-35.7-29.7-59.6,0
			C871.4,1008,900.2,1037.6,931,1008z"/>
		<circle cx="901.4" cy="1009.4" r="12.7"/>
	</g>
	<g>
		<path fill="none" stroke="#000000" stroke-width="4" stroke-miterlimit="10" d="M1119.7,1009.1c0,0-35.7-29.7-59.6,0
			C1060.1,1009.1,1088.9,1038.8,1119.7,1009.1z"/>
		<circle cx="1089.9" cy="1010.5" r="12.7"/>
	</g>
	<path d="M813.2,1097.7v-25.5c0,0-2.6-19.5,71.4-22.5c0,0,11.2,7.5-28.9,25.5l-3.6,26C852.1,1101.2,826.3,1116.7,813.2,1097.7z"/>
	<path d="M1184.7,1097.7v-25.5c0,0,2.6-19.5-71.4-22.5c0,0-11.2,7.5,28.9,25.5l3.6,26C1145.8,1101.2,1171.6,1116.7,1184.7,1097.7z"
		/>
	<polygon points="802.6,1117.2 855.7,1117.2 898.7,1049.7 1098.6,1049.7 1139.6,1122.2 1208.1,1122.2 1208.1,1138.2 1128.6,1139.9 
		1080,1056.2 917.1,1056.2 867.5,1138.2 802.6,1138.2 	"/>
	<polygon points="849.7,966.3 864.6,936.7 953,941.8 955.8,952.2 	"/>
	<polygon points="1141.4,966.3 1126.5,936.7 1038.1,941.8 1035.4,952.2 	"/>
</g>
<g id="teeth">
	<g>
		<polygon fill="#FFFFFF" stroke="#000000" stroke-width="2" stroke-miterlimit="10" points="948.1,1118.7 933.5,1118.7 
			927.8,1098.3 948.1,1098.3 		"/>
		
			<rect x="948.1" y="1098.3" fill="#FFFFFF" stroke="#000000" stroke-width="2" stroke-miterlimit="10" width="20.3" height="20.3"/>
		
			<rect x="968.5" y="1098.3" fill="#FFFFFF" stroke="#000000" stroke-width="2" stroke-miterlimit="10" width="20.3" height="20.3"/>
		
			<rect x="988.8" y="1098.3" fill="#FFFFFF" stroke="#000000" stroke-width="2" stroke-miterlimit="10" width="20.3" height="20.3"/>
		
			<rect x="1009.1" y="1098.3" fill="#FFFFFF" stroke="#000000" stroke-width="2" stroke-miterlimit="10" width="20.3" height="20.3"/>
		
			<rect x="1029.4" y="1098.3" fill="#FFFFFF" stroke="#000000" stroke-width="2" stroke-miterlimit="10" width="20.3" height="20.3"/>
		<polygon fill="#FFFFFF" stroke="#000000" stroke-width="2" stroke-miterlimit="10" points="1064.1,1118.7 1049.7,1118.7 
			1049.7,1098.3 1070.1,1098.3 		"/>
	</g>
	<g>
		<polygon fill="#FFFFFF" stroke="#000000" stroke-width="2" stroke-miterlimit="10" points="1049.8,1119 1064.4,1119 
			1070.1,1139.3 1049.8,1139.3 		"/>
		
			<rect x="1029.4" y="1119" transform="matrix(-1 8.981603e-11 -8.981603e-11 -1 2079.1799 2258.3411)" fill="#FFFFFF" stroke="#000000" stroke-width="2" stroke-miterlimit="10" width="20.3" height="20.3"/>
		
			<rect x="1009.1" y="1119" transform="matrix(-1 8.972677e-11 -8.972677e-11 -1 2038.5133 2258.3411)" fill="#FFFFFF" stroke="#000000" stroke-width="2" stroke-miterlimit="10" width="20.3" height="20.3"/>
		
			<rect x="988.8" y="1119" transform="matrix(-1 8.972677e-11 -8.972677e-11 -1 1997.8345 2258.3411)" fill="#FFFFFF" stroke="#000000" stroke-width="2" stroke-miterlimit="10" width="20.3" height="20.3"/>
		
			<rect x="968.5" y="1119" transform="matrix(-1 8.972677e-11 -8.972677e-11 -1 1957.3641 2258.3411)" fill="#FFFFFF" stroke="#000000" stroke-width="2" stroke-miterlimit="10" width="20.3" height="20.3"/>
		
			<rect x="948.2" y="1119" transform="matrix(-1 8.981603e-11 -8.981603e-11 -1 1916.6975 2258.3411)" fill="#FFFFFF" stroke="#000000" stroke-width="2" stroke-miterlimit="10" width="20.3" height="20.3"/>
		<polygon fill="#FFFFFF" stroke="#000000" stroke-width="2" stroke-miterlimit="10" points="933.8,1119 948.2,1119 948.2,1139.3 
			927.8,1139.3 		"/>
	</g>
</g>
<g id="top_wings_1_">
	<g>
		<path d="M1303.4,869.2c-2.7-3.7-5.4-7.8-8-12.3L1303.4,869.2z"/>
		<path d="M1365.7,906.9h119.9c98,9.7,119.7-37.8,119.7-37.8h6.3l-50,88.7l-17.7-24.4l-22.3,17.8l-16-19l-19,19l-15-19l-16,19
			l-16.3-19l-19.7,13.8l-14.5-15.3l-16.5,15.3l-16-14.9l-19,14.9l-50.1-76.8C1333.9,911.4,1365.7,906.9,1365.7,906.9z"/>
	</g>
	<g id="top_wings">
		<g>
			<circle cx="750.5" cy="936.6" r="88"/>
			<circle stroke="#FFFFFF" stroke-width="5" stroke-miterlimit="10" cx="750.5" cy="937.7" r="44"/>
			<circle fill="#FFFFFF" cx="750.5" cy="937.7" r="26.6"/>
			<circle cx="750.5" cy="937.8" r="8.5"/>
		</g>
		<g>
			<circle cx="1242.7" cy="926.6" r="88"/>
			<circle stroke="#FFFFFF" stroke-width="5" stroke-miterlimit="10" cx="1242.7" cy="927.7" r="44"/>
			<circle fill="#FFFFFF" cx="1242.7" cy="927.7" r="26.6"/>
			<circle cx="1242.7" cy="927.9" r="8.5"/>
		</g>
		<g>
			<circle cx="332.1" cy="937.8" r="88"/>
			<circle stroke="#FFFFFF" stroke-width="5" stroke-miterlimit="10" cx="332.1" cy="938.9" r="44"/>
			<circle fill="#FFFFFF" cx="332.1" cy="938.9" r="26.6"/>
			<circle cx="332.1" cy="939.1" r="8.5"/>
		</g>
		<g>
			<path d="M695.2,874.6c2.7-3.7,5.4-7.8,8-12.3L695.2,874.6z"/>
			<path d="M633,912.3H513.1c-98,9.7-119.7-37.8-119.7-37.8h-6.3l50,88.7l17.7-24.4l22.3,17.8l16-19l19,19l15-19l16,19l16.3-19
				l19.7,13.8l14.5-15.3l16.5,15.3l16-14.9l19,14.9l50.1-76.8C664.7,916.8,633,912.3,633,912.3z"/>
		</g>
		<g>
			<path d="M448.6,1006.2l121.3-2.5c98.7-3.1,155.2,8.5,155.2,8.5l0,0l-79.2-59.4l-17.7,24.4l-17.4-15.4l-16,14.6l-16-17l-17,17
				l-19-15l-15.3,17l-16.5-15.1l-17,18.4l-16.2-19.1l-17,19.9l-23-17.9l-75.8,52.6C395.5,999.2,448.6,1006.2,448.6,1006.2z"/>
		</g>
		<g>
			<circle cx="1666.6" cy="932.4" r="88"/>
			<circle stroke="#FFFFFF" stroke-width="5" stroke-miterlimit="10" cx="1666.6" cy="933.5" r="44"/>
			<circle fill="#FFFFFF" cx="1666.6" cy="933.5" r="26.6"/>
			<circle cx="1666.6" cy="933.7" r="8.5"/>
		</g>
		<g>
			<path d="M1617.4,1036c2.7,3.7,5.4,7.8,8,12.3L1617.4,1036z"/>
			<path d="M1550,1000.8l-121.3-2.5c-98.7-3.1-155.2,8.5-155.2,8.5l0,0l79.2-59.4l17.7,24.4l17.4-15.4l16,14.6l16-17l17,17l19-15
				l15.3,17l16.5-15.1l17,18.4l16.2-19.1l17,19.9l23-17.9l75.8,52.6C1603.2,993.8,1550,1000.8,1550,1000.8z"/>
		</g>
	</g>
</g>
<g id="legs">
	<ellipse cx="994.3" cy="1181.2" rx="95.6" ry="12.5"/>
	<g id="legs__x2F__feet">
		
			<polygon fill="none" stroke="#000000" stroke-width="12" stroke-linecap="round" stroke-linejoin="round" stroke-miterlimit="10" points="
			919,1215 973.4,1218.6 976.1,1381.8 878.5,1375.3 		"/>
		
			<polygon fill="none" stroke="#000000" stroke-width="12" stroke-linecap="round" stroke-linejoin="round" stroke-miterlimit="10" points="
			1017.4,1216.7 1071.4,1209.6 1105.9,1369.1 1009,1381.9 		"/>
		
			<polygon fill="none" stroke="#000000" stroke-width="12" stroke-linecap="round" stroke-linejoin="round" stroke-miterlimit="10" points="
			839,1191.5 890.1,1210.4 846.4,1367.6 754.7,1333.8 		"/>
		
			<polygon fill="none" stroke="#000000" stroke-width="12" stroke-linecap="round" stroke-linejoin="round" stroke-miterlimit="10" points="
			1148.3,1189.3 1096.4,1205.9 1133.1,1364.9 1226.2,1335.1 		"/>
		<g>
			<polygon stroke="#000000" stroke-width="2" stroke-miterlimit="10" points="679.1,1332.1 666.2,1399.5 651.8,1428.2 
				639.8,1400.9 639.4,1366.8 592.7,1392.2 559.3,1399.3 571.1,1372.2 610.7,1342.9 549.1,1348.3 529.1,1335.5 553,1318.7 
				616.3,1306.5 693.3,1266.9 721.8,1266.5 			"/>
			<polygon fill="#FFFFFF" stroke="#000000" stroke-width="3" stroke-miterlimit="10" points="721.8,1267.5 772.9,1267.5 
				735,1329.6 679.1,1332.1 			"/>
			<line fill="none" stroke="#000000" stroke-width="3" stroke-miterlimit="10" x1="688.6" y1="1331.7" x2="730.9" y2="1267.5"/>
			<line fill="none" stroke="#000000" stroke-width="3" stroke-miterlimit="10" x1="742.6" y1="1267.5" x2="699.9" y2="1331.2"/>
			<line fill="none" stroke="#000000" stroke-width="3" stroke-miterlimit="10" x1="752.2" y1="1267.5" x2="711" y2="1330.7"/>
			<line fill="none" stroke="#000000" stroke-width="3" stroke-miterlimit="10" x1="762.7" y1="1267.5" x2="722.2" y2="1330.3"/>
		</g>
		<g>
			<polygon stroke="#000000" stroke-width="2" stroke-miterlimit="10" points="1302.6,1332.1 1315.5,1399.5 1329.9,1428.2 
				1341.9,1400.9 1342.3,1366.8 1389.1,1392.2 1422.4,1399.3 1410.6,1372.2 1371,1342.9 1432.6,1348.3 1452.6,1335.5 1428.7,1318.7 
				1365.4,1306.5 1288.4,1266.9 1259.9,1266.5 			"/>
			<polygon fill="#FFFFFF" stroke="#000000" stroke-width="3" stroke-miterlimit="10" points="1259.9,1267.5 1208.8,1267.5 
				1246.8,1329.6 1302.6,1332.1 			"/>
			<line fill="none" stroke="#000000" stroke-width="3" stroke-miterlimit="10" x1="1293.2" y1="1331.7" x2="1250.8" y2="1267.5"/>
			<line fill="none" stroke="#000000" stroke-width="3" stroke-miterlimit="10" x1="1239.2" y1="1267.5" x2="1281.8" y2="1331.2"/>
			<line fill="none" stroke="#000000" stroke-width="3" stroke-miterlimit="10" x1="1229.5" y1="1267.5" x2="1270.7" y2="1330.7"/>
			<line fill="none" stroke="#000000" stroke-width="3" stroke-miterlimit="10" x1="1219" y1="1267.5" x2="1259.5" y2="1330.3"/>
		</g>
		<path fill="none" stroke="#000000" stroke-width="2" stroke-miterlimit="10" d="M826.5,1389.3"/>
		<path fill="none" stroke="#000000" stroke-width="2" stroke-miterlimit="10" d="M843.7,1389.3"/>
		<g>
			<polygon points="829.9,1350.2 783.7,1331.8 825.5,1294.2 			"/>
			<polygon points="840,1322.7 794.9,1301.7 838.6,1266.5 			"/>
			<polygon points="852,1294.3 805.8,1275.9 847.6,1238.2 			"/>
			<polygon points="863,1268.9 816.8,1250.5 858.5,1212.9 			"/>
		</g>
		<g>
			<polygon points="958.8,1367 909.2,1363.9 937.2,1315.2 			"/>
			<polygon points="959.9,1337.7 910.5,1331.8 941.1,1284.7 			"/>
			<polygon points="962.5,1307 912.8,1303.8 940.9,1255.1 			"/>
			<polygon points="965,1279.5 915.4,1276.3 943.4,1227.6 			"/>
		</g>
		<g>
			<polygon points="1086.2,1358.9 1037,1366 1054.5,1312.6 			"/>
			<polygon points="1081.3,1330 1031.7,1334.4 1052.1,1282 			"/>
			<polygon points="1077.5,1299.4 1028.3,1306.5 1045.8,1253.1 			"/>
			<polygon points="1074.4,1272 1025.2,1279 1042.7,1225.6 			"/>
		</g>
		<g>
			<polygon points="1199.8,1330.5 1153.3,1348.2 1158.7,1292.2 			"/>
			<polygon points="1188.6,1303.4 1141.2,1318.4 1149.7,1262.9 			"/>
			<polygon points="1178.3,1274.3 1131.8,1292 1137.2,1236 			"/>
			<polygon points="1169.3,1248.2 1122.8,1265.9 1128.2,1209.9 			"/>
		</g>
	</g>
</g>
<g id="lower_wings">
	<polygon fill="#FFFFFF" stroke="#000000" stroke-width="2" stroke-miterlimit="10" points="688.1,1038.5 759,1038.5 759,1168.7 
		723.6,1193.7 	"/>
	<polygon points="713.4,1149.3 759,1136.3 759,1168.7 723.6,1193.7 	"/>
	<ellipse transform="matrix(0.9903 -0.1389 0.1389 0.9903 -145.4947 112.5927)" cx="733.6" cy="1098.3" rx="10.1" ry="10.1"/>
	<polygon fill="#FFFFFF" stroke="#000000" stroke-width="2" stroke-miterlimit="10" points="668.8,1037.9 559.4,1037.9 
		606.1,1239.7 706.5,1201.7 	"/>
	<polygon points="595.5,1193.7 696.5,1158.2 706.5,1201.7 606.1,1239.7 	"/>
	<ellipse transform="matrix(0.9903 -0.1389 0.1389 0.9903 -148.3445 99.1629)" cx="636" cy="1112" rx="10.1" ry="10.1"/>
	<polygon fill="#FFFFFF" stroke="#000000" stroke-width="2" stroke-miterlimit="10" points="464.8,1037.9 475.4,1259.7 
		589.4,1244.3 540.8,1038.5 	"/>
	<polygon points="578.7,1199 473.1,1211.7 475.4,1259.7 589.4,1244.3 	"/>
	<ellipse transform="matrix(0.9903 -0.1389 0.1389 0.9903 -151.474 82.7625)" cx="517" cy="1126.2" rx="10.1" ry="10.1"/>
	<polygon fill="#FFFFFF" stroke="#000000" stroke-width="2" stroke-miterlimit="10" points="444.1,1038.5 454.8,1259.7 
		332.1,1268.3 393.4,1038.5 	"/>
	<polygon points="452.5,1213 346.9,1213 332.1,1268.3 454.8,1259.7 	"/>
	<ellipse transform="matrix(0.9903 -0.1389 0.1389 0.9903 -153.506 67.8248)" cx="409" cy="1133.3" rx="10.1" ry="10.1"/>
	<path fill="#FFFFFF" stroke="#000000" stroke-width="2" stroke-miterlimit="10" d="M378.1,1038.5L309.8,1213l-20.2,51.7L168.1,1213
		c0,0,9.5-23.6,36.2-55.4C235.2,1120.9,289.1,1073.3,378.1,1038.5z"/>
	<path d="M198.3,1165l112.7,44.9l-21.4,54.7L168.1,1213C168.1,1213,179.9,1186.3,198.3,1165z"/>
	<ellipse transform="matrix(0.9903 -0.1389 0.1389 0.9903 -153.7713 51.8563)" cx="294.5" cy="1127.2" rx="10.1" ry="10.1"/>
	<g>
		<path fill="#FFFFFF" stroke="#000000" stroke-width="2" stroke-miterlimit="10" d="M150.8,1195.6l-23.3-152
			c0,0,60.7-30.5,194.7-5.1C322.1,1038.5,204.8,1088.3,150.8,1195.6z"/>
		<path d="M184.8,1143.6l-16.7-111c0,0-36,7.1-40.7,11.1l23.3,152C150.8,1195.6,180.1,1144.8,184.8,1143.6z"/>
		<ellipse transform="matrix(0.9903 -0.1389 0.1389 0.9903 -144.8553 42.9031)" cx="234.8" cy="1058.9" rx="10.1" ry="10.1"/>
	</g>
	<g>
		<g>
			<polygon fill="#FFFFFF" stroke="#000000" stroke-width="2" stroke-miterlimit="10" points="1330.6,1033.1 1259.6,1033.1 
				1259.6,1163.3 1295.1,1188.3 			"/>
			<ellipse transform="matrix(0.1389 -0.9903 0.9903 0.1389 24.1319 2213.6279)" cx="1285" cy="1092.9" rx="10.1" ry="10.1"/>
			<polygon fill="#FFFFFF" stroke="#000000" stroke-width="2" stroke-miterlimit="10" points="1349.9,1032.5 1459.2,1032.5 
				1412.6,1234.3 1312.1,1196.3 			"/>
			<polygon points="1423.2,1188.3 1322.1,1152.8 1312.1,1196.3 1412.6,1234.3 			"/>
			<ellipse transform="matrix(0.1389 -0.9903 0.9903 0.1389 94.6164 2322.0835)" cx="1382.6" cy="1106.6" rx="10.1" ry="10.1"/>
			<polygon fill="#FFFFFF" stroke="#000000" stroke-width="2" stroke-miterlimit="10" points="1553.9,1032.5 1543.2,1254.3 
				1429.2,1238.9 1477.9,1033.1 			"/>
			<polygon points="1440,1193.6 1545.5,1206.3 1543.2,1254.3 1429.2,1238.9 			"/>
			<ellipse transform="matrix(0.1389 -0.9903 0.9903 0.1389 183.0275 2452.1931)" cx="1501.7" cy="1120.8" rx="10.1" ry="10.1"/>
			<polygon fill="#FFFFFF" stroke="#000000" stroke-width="2" stroke-miterlimit="10" points="1574.6,1033.1 1563.9,1254.3 
				1686.6,1262.9 1625.2,1033.1 			"/>
			<polygon points="1566.2,1207.6 1671.8,1207.6 1686.6,1262.9 1563.9,1254.3 			"/>
			<ellipse transform="matrix(0.1389 -0.9903 0.9903 0.1389 269.0059 2565.2451)" cx="1609.7" cy="1127.9" rx="10.1" ry="10.1"/>
			<path fill="#FFFFFF" stroke="#000000" stroke-width="2" stroke-miterlimit="10" d="M1640.6,1033.1l68.3,174.5l20.2,51.7
				l121.5-51.7c0,0-9.5-23.6-36.2-55.4C1783.5,1115.5,1729.5,1067.9,1640.6,1033.1z"/>
			<path d="M1625.2,1033.1"/>
			<path d="M1820.4,1159.6l-112.7,44.9l21.4,54.7l121.5-51.7C1850.6,1207.6,1838.8,1180.9,1820.4,1159.6z"/>
			<ellipse transform="matrix(0.1389 -0.9903 0.9903 0.1389 373.6213 2673.396)" cx="1724.2" cy="1121.8" rx="10.1" ry="10.1"/>
			<polygon points="1305.8,1143.9 1261.2,1130.9 1259.2,1161.3 1294.7,1186.3 			"/>
		</g>
		<g>
			<path fill="#FFFFFF" stroke="#000000" stroke-width="2" stroke-miterlimit="10" d="M1866.5,1187.9l23.3-152
				c0,0-60.7-30.5-194.7-5.1C1695.2,1030.8,1812.5,1080.6,1866.5,1187.9z"/>
			<path d="M1832.5,1135.9l16.7-111c0,0,36,7.1,40.7,11.1l-23.3,152C1866.5,1187.9,1837.1,1137.1,1832.5,1135.9z"/>
			<ellipse transform="matrix(0.1389 -0.9903 0.9903 0.1389 493.7194 2670.2642)" cx="1782.4" cy="1051.2" rx="10.1" ry="10.1"/>
		</g>
	</g>
</g>
<g id="fingers">
	<path fill="#FFFFFF" stroke="#000000" stroke-width="4" stroke-miterlimit="10" d="M382.2,858.9V683.7l-46,166.1
		C336.2,849.8,356.2,884.1,382.2,858.9z"/>
	<path fill="#FFFFFF" stroke="#000000" stroke-width="4" stroke-miterlimit="10" d="M320.1,874.4l-81.9-154.9l36.9,168.4
		C275.2,887.9,308.9,908.9,320.1,874.4z"/>
	<path fill="#FFFFFF" stroke="#000000" stroke-width="4" stroke-miterlimit="10" d="M274.1,913l-160.3-70.7l133.4,109.1
		C247.2,951.4,286.6,947,274.1,913z"/>
	<path fill="#FFFFFF" stroke="#000000" stroke-width="4" stroke-miterlimit="10" d="M1624.5,855V679.8l46,166.1
		C1670.5,845.9,1650.5,880.2,1624.5,855z"/>
	<path fill="#FFFFFF" stroke="#000000" stroke-width="4" stroke-miterlimit="10" d="M1682.4,870.6l81.9-154.9L1727.3,884
		C1727.3,884,1693.6,905,1682.4,870.6z"/>
	<path fill="#FFFFFF" stroke="#000000" stroke-width="4" stroke-miterlimit="10" d="M1728.5,909.1l160.3-70.7l-133.4,109.1
		C1755.3,947.5,1715.9,943.1,1728.5,909.1z"/>
</g>
</svg>
