<?xml version="1.0" encoding="utf-8"?>
<!-- Generator: Adobe Illustrator 19.2.1, SVG Export Plug-In . SVG Version: 6.00 Build 0)  -->
<svg version="1.1" id="Layer_1" xmlns="http://www.w3.org/2000/svg" xmlns:xlink="http://www.w3.org/1999/xlink" x="0px" y="0px"
	 width="2000px" height="2000px" viewBox="0 0 2000 2000" enable-background="new 0 0 2000 2000" xml:space="preserve">
<g id="body_1_">
	<g id="body">
		<path d="M1398.7,1374.2h0.3l-0.4-703.3l-800.2-8.1l1.2,711.4l0,0V1819c0,0,497.3,354,803.9,0L1398.7,1374.2z"/>
		<path fill="#656500" d="M1339,888.4l-281.9-194.7L652.1,918.6l-2.8,774.8c0,0,332.2,303.7,693.8,17.7L1339,888.4z"/>
		<g>
			<path fill="#C2FFC0" d="M1004.5,1711l203.7-333.9l-211.4-258.2l-201.2,244.7l-11.8,13.5L1004.5,1711 M1005,1528.6l-114.2-154.8
				l105.6-120.5l119.1,122.5L1005,1528.6z"/>
			<path fill="#C2FFC0" d="M1341,1374.2h0.1l-0.6-126.9l0-0.2c-0.1-20.9-0.1-34.5-0.1-34.5L990.9,818.2l-339.7,406.3l-0.7,83.5
				c0,0-0.5,17.6-0.9,37.1c-0.2,0.3-0.3,0.5-0.3,0.5v58.5l233.9,410.1l86,16.6L711.5,1362l114.5-137.5l164.2-192.1l185.2,195.2
				l127.7,146.6l-284.8,459.2c0,0,75.1-3.9,89.3-9c14.2-5.1,233.2-351.4,233.4-355.9C1341.2,1466.8,1341.1,1424.2,1341,1374.2z"/>
		</g>
	</g>
	<g id="cheeks">
		<g>
			<path stroke="#000000" stroke-width="5" stroke-miterlimit="10" d="M822.2,836l-170.1,82.5c0,0-67.3-96.1-53.7-255.8
				c0,0,43.1-189.7,219.6-238.4l149.3,281.4L822.2,836z"/>
		</g>
		<g>
			<path stroke="#000000" stroke-width="5" stroke-miterlimit="10" d="M1219.5,866.4l179,152.1c0,0,11.4-187.9-0.5-347.6
				c0,0-31.7-168.5-165.6-247.9l-175.2,270.6L1219.5,866.4z"/>
		</g>
	</g>
</g>
<g id="goatee">
	<path fill="#00324D" stroke="#FFFFFF" stroke-width="7" stroke-miterlimit="10" d="M1080.5,990.9l-77.6,76.1l0,0l-70.2-100.6
		l-4.4,9.5c0,0-23.6,129.8,63.5,291.9l-0.1,2.5c0.3-0.3,0.7-0.6,1-0.9c0.2,0.3,0.3,0.6,0.5,0.9l0.1-1.3
		C1109,1169.5,1080.5,990.9,1080.5,990.9z"/>
	<polygon fill="#00324D" stroke="#FFFFFF" stroke-width="7" stroke-miterlimit="10" points="967.2,1125.3 999.7,1175.9 
		1070.5,1093.8 996.8,1013.4 957.4,1094.7 	"/>
	<g>
		<path fill="#00324D" stroke="#FFFFFF" stroke-width="7" stroke-miterlimit="10" d="M1152.3,858.7c0,0-25.4,131.2,63.3,294.4
			l9.8-193.7l-68.7-110.2L1152.3,858.7z"/>
		<path fill="#00324D" stroke="#FFFFFF" stroke-width="7" stroke-miterlimit="10" d="M1304.5,873.7c0,0,28.7,180.3-88.9,279.4
			l11.3-203.3L1304.5,873.7z"/>
	</g>
	<g>
		<path fill="#00324D" stroke="#FFFFFF" stroke-width="7" stroke-miterlimit="10" d="M1023,913.2c0,0-25.4,131.2,63.3,294.4
			l9.8-193.7l-68.7-110.2L1023,913.2z"/>
		<path fill="#00324D" stroke="#FFFFFF" stroke-width="7" stroke-miterlimit="10" d="M1175.2,928.2c0,0,28.7,180.3-88.9,279.4
			l11.3-203.3L1175.2,928.2z"/>
	</g>
	<g>
		<path fill="#00324D" stroke="#FFFFFF" stroke-width="7" stroke-miterlimit="10" d="M1210,753.1c0,0-25.4,131.2,63.3,294.4
			l9.8-193.7l-68.7-110.2L1210,753.1z"/>
		<path fill="#00324D" stroke="#FFFFFF" stroke-width="7" stroke-miterlimit="10" d="M1362.2,768.1c0,0,28.7,180.3-88.9,279.4
			l11.3-203.3L1362.2,768.1z"/>
	</g>
	<g>
		<path fill="#00324D" stroke="#FFFFFF" stroke-width="7" stroke-miterlimit="10" d="M848.1,900.5c0,0-25.4,131.2,63.3,294.4
			l9.8-193.7L852.5,891L848.1,900.5z"/>
		<path fill="#00324D" stroke="#FFFFFF" stroke-width="7" stroke-miterlimit="10" d="M1000.3,915.5c0,0,28.7,180.3-88.9,279.4
			l11.3-203.3L1000.3,915.5z"/>
	</g>
	<g>
		<path fill="#00324D" stroke="#FFFFFF" stroke-width="7" stroke-miterlimit="10" d="M698.8,846.5c0,0-25.4,131.2,63.3,294.4
			l9.8-193.7l-68.7-110.2L698.8,846.5z"/>
		<path fill="#00324D" stroke="#FFFFFF" stroke-width="7" stroke-miterlimit="10" d="M851,861.4c0,0,28.7,180.3-88.9,279.4
			l11.3-203.3L851,861.4z"/>
	</g>
	<g>
		<g>
			<path fill="#00324D" stroke="#FFFFFF" stroke-width="7" stroke-miterlimit="10" d="M790.6,740.4c0,0,25.4,131.2-63.3,294.4
				L717.6,841l68.7-110.2L790.6,740.4z"/>
			<path fill="#00324D" stroke="#FFFFFF" stroke-width="7" stroke-miterlimit="10" d="M638.4,755.4c0,0-28.7,180.3,88.9,279.4
				l-11.3-203.3L638.4,755.4z"/>
		</g>
		<g>
			<path fill="#00324D" stroke="#FFFFFF" stroke-width="7" stroke-miterlimit="10" d="M926.2,832.7c0,0,29.6,130.3-53.8,296.3
				l-16-193.3l65.1-112.4L926.2,832.7z"/>
			<path fill="#00324D" stroke="#FFFFFF" stroke-width="7" stroke-miterlimit="10" d="M774.5,852.6c0,0-22.9,181.1,97.9,276.4
				l-17.8-202.8L774.5,852.6z"/>
		</g>
	</g>
	<g>
		<path fill="#00324D" stroke="#FFFFFF" stroke-width="7" stroke-miterlimit="10" d="M1085.9,847.4c0,0-29.6,130.3,53.8,296.3
			l16-193.3L1090.6,838L1085.9,847.4z"/>
		<path fill="#00324D" stroke="#FFFFFF" stroke-width="7" stroke-miterlimit="10" d="M1237.6,867.2c0,0,22.9,181.1-97.9,276.4
			l17.8-202.8L1237.6,867.2z"/>
	</g>
</g>
<g id="nose__x2F__mouth">
	<polygon fill="#F07800" stroke="#000000" stroke-width="5" stroke-miterlimit="10" points="1219.5,866.4 1119.8,766.8 918,772.1 
		783.8,855.4 1015.1,964.6 	"/>
	<circle fill="#FF0F37" stroke="#000000" stroke-width="4" stroke-miterlimit="10" cx="1015.3" cy="787.7" r="95"/>
	<circle fill="#A4FFD8" stroke="#000000" stroke-width="4" stroke-miterlimit="10" cx="1015.3" cy="804" r="79.2"/>
	<path d="M1019.2,960.9c0,0,87.1-172.3,32-181.3c0,0-77.1-14-82.1,30c0,0,19,135.2,33.1,146.2C1002.2,955.9,1007.2,975,1019.2,960.9
		z"/>
	<path fill="#FFF7A3" stroke="#000000" stroke-width="5" stroke-miterlimit="10" d="M1219.5,866.4l12.6,9.4c0,0-43.6,42.7-90,78.7
		c0,0-91.6,89.2-128.5,122.8c0,0-23.4,9.5-43.4-27.6c0,0-55.1-85.4-203.3-184.4l17-9.9l231.4,109.2L1219.5,866.4z"/>
	<path fill="#92BF90" stroke="#000000" stroke-width="4" stroke-miterlimit="10" d="M1110.3,829.7c0,0,53.9-20,21-114l-8.3-27
		l-49.8,25.3c0,0,44.5,34.8,37,82.1V829.7z"/>
	<path fill="#92BF90" stroke="#000000" stroke-width="4" stroke-miterlimit="10" d="M1130.5,833.3c0,0,26.4-66.5,0.9-117.6l-8.3-27
		l48.8,27.8c0,0,15.7,90.8-37.6,138.9L1130.5,833.3z"/>
	<path fill="#92BF90" stroke="#000000" stroke-width="4" stroke-miterlimit="10" d="M1171.9,716.5c0,0,25,12.2,47.6,5.7
		c0,0-10,105.7-57.1,120.2l-0.8-26.4C1161.6,816.1,1180.5,778.4,1171.9,716.5z"/>
	<path fill="#92BF90" stroke="#000000" stroke-width="4" stroke-miterlimit="10" d="M921.4,826.2c0,0-53.9-20-21-114l8.3-27
		l49.8,25.3c0,0-44.5,34.8-37,82.1V826.2z"/>
	<path fill="#92BF90" stroke="#000000" stroke-width="4" stroke-miterlimit="10" d="M901.3,829.8c0,0-26.4-66.5-0.9-117.6l8.3-27
		L859.8,713c0,0-15.7,90.8,37.6,138.9L901.3,829.8z"/>
	<path fill="#92BF90" stroke="#000000" stroke-width="4" stroke-miterlimit="10" d="M859.8,713c0,0-25,12.2-47.6,5.7
		c0,0,10,105.7,57.1,120.2l0.8-26.4C870.1,812.6,851.3,774.9,859.8,713z"/>
</g>
<g id="horns">
	<path fill="#FFFFFF" stroke="#000000" stroke-width="2" stroke-miterlimit="10" d="M799.5,502.7c0,0-53.2-199.6-104.3-207.4
		c0,0,29.8-15.6,80.9,38.9l83.1,63.8l-8.6,104.7H799.5z"/>
	<path fill="#4D4B45" stroke="#000000" stroke-width="2" stroke-miterlimit="10" d="M695.7,295.3c0,0,61.6,1.3,155.4,207.4
		l8.6-104.7C859.7,398,736.1,277.2,695.7,295.3z"/>
	<path fill="#FFFFFF" stroke="#000000" stroke-width="2" stroke-miterlimit="10" d="M842,438.3c0,0-73.6-276-144.3-286.7
		c0,0,41.2-21.5,111.9,53.8l114.8,88.2l-11.9,144.8H842z"/>
	<path fill="#4D4B45" stroke="#000000" stroke-width="2" stroke-miterlimit="10" d="M698.2,151.5c0,0,85.2,1.8,214.8,286.7
		L925,293.5C925,293.5,754.2,126.5,698.2,151.5z"/>
	<path fill="#FFFFFF" stroke="#000000" stroke-width="2" stroke-miterlimit="10" d="M900.1,373.8c0,0,31.5-287.6-28.4-334.4
		c0,0,44.8,2.3,81.8,107.3l72.3,139.9l-62.1,124.3L900.1,373.8z"/>
	<path fill="#4D4B45" stroke="#000000" stroke-width="2" stroke-miterlimit="10" d="M871.2,39.4c0,0,76.2,46.4,92.1,371.5
		l62.1-124.3C1025.3,286.6,930.5,46.1,871.2,39.4z"/>
	<path fill="#4D4B45" stroke="#000000" stroke-width="2" stroke-miterlimit="10" d="M1280.7,506.8c0,0,53.2-199.6,104.3-207.4
		c0,0-29.8-15.6-80.9,38.9l-83.1,63.8l8.6,104.7H1280.7z"/>
	<path fill="#FFFFFF" stroke="#000000" stroke-width="2" stroke-miterlimit="10" d="M1385.1,299.4c0,0-61.6,1.3-155.4,207.4
		l-8.6-104.7C1221.1,402.1,1344.6,281.3,1385.1,299.4z"/>
	<path fill="#4D4B45" stroke="#000000" stroke-width="2" stroke-miterlimit="10" d="M1223.6,460c0,0,73.6-276,144.3-286.7
		c0,0-41.2-21.5-111.9,53.8l-114.8,88.2L1153,460H1223.6z"/>
	<path fill="#FFFFFF" stroke="#000000" stroke-width="2" stroke-miterlimit="10" d="M1369.2,173.3c0,0-85.2,1.8-214.8,286.7
		l-11.9-144.8C1142.5,315.2,1313.3,148.2,1369.2,173.3z"/>
	<path fill="#4D4B45" stroke="#000000" stroke-width="2" stroke-miterlimit="10" d="M1145.5,383.1c0,0-31.5-287.6,28.4-334.4
		c0,0-44.8,2.3-81.8,107.3l-72.3,139.9l62.1,124.3L1145.5,383.1z"/>
	<path fill="#FFFFFF" stroke="#000000" stroke-width="2" stroke-miterlimit="10" d="M1173.9,48.7c0,0-76.2,46.4-92.1,371.5
		l-62.1-124.3C1019.8,295.9,1114.5,55.5,1173.9,48.7z"/>
	<g>
		<path fill="#FFFFFF" stroke="#000000" stroke-width="2" stroke-miterlimit="10" d="M857.6,533.9c0,0-39.2-147.1-76.9-152.8
			c0,0,22-11.5,59.6,28.6l61.2,47l-6.3,77.2H857.6z"/>
		<path fill="#4D4B45" stroke="#000000" stroke-width="2" stroke-miterlimit="10" d="M781.1,381.1c0,0,45.4,1,114.5,152.8l6.3-77.2
			C901.9,456.8,810.9,367.7,781.1,381.1z"/>
	</g>
	<path fill="#FFFFFF" stroke="#000000" stroke-width="2" stroke-miterlimit="10" d="M888.9,486.4c0,0-54.2-203.3-106.3-211.3
		c0,0,30.4-15.8,82.4,39.6l84.6,65l-8.8,106.7H888.9z"/>
	<path fill="#4D4B45" stroke="#000000" stroke-width="2" stroke-miterlimit="10" d="M783,275.2c0,0,62.8,1.3,158.3,211.3l8.8-106.7
		C950,379.7,824.2,256.7,783,275.2z"/>
	<path fill="#FFFFFF" stroke="#000000" stroke-width="2" stroke-miterlimit="10" d="M931.7,438.9c0,0,23.2-211.9-20.9-246.4
		c0,0,33,1.7,60.3,79.1l53.3,103.1l-45.7,91.6L931.7,438.9z"/>
	<path fill="#4D4B45" stroke="#000000" stroke-width="2" stroke-miterlimit="10" d="M910.4,192.5c0,0,56.1,34.2,67.8,273.8
		l45.7-91.6C1024,374.7,954.2,197.5,910.4,192.5z"/>
	<path fill="#4D4B45" stroke="#000000" stroke-width="2" stroke-miterlimit="10" d="M1212.2,536.9c0,0,39.2-147.1,76.9-152.8
		c0,0-22-11.5-59.6,28.6l-61.2,47l6.3,77.2H1212.2z"/>
	<path fill="#FFFFFF" stroke="#000000" stroke-width="2" stroke-miterlimit="10" d="M1289.1,384.1c0,0-45.4,1-114.5,152.8l-6.3-77.2
		C1168.3,459.8,1259.3,370.8,1289.1,384.1z"/>
	<path fill="#4D4B45" stroke="#000000" stroke-width="2" stroke-miterlimit="10" d="M1170.1,502.4c0,0,54.2-203.3,106.3-211.3
		c0,0-30.4-15.8-82.4,39.6l-84.6,65l8.8,106.7H1170.1z"/>
	<path fill="#FFFFFF" stroke="#000000" stroke-width="2" stroke-miterlimit="10" d="M1277.4,291.2c0,0-62.8,1.3-158.3,211.3
		l-8.8-106.7C1110.3,395.8,1236.2,272.7,1277.4,291.2z"/>
	<path fill="#4D4B45" stroke="#000000" stroke-width="2" stroke-miterlimit="10" d="M1112.5,445.8c0,0-23.2-211.9,20.9-246.4
		c0,0-33,1.7-60.3,79.1l-53.3,103.1l45.7,91.6L1112.5,445.8z"/>
	<path fill="#FFFFFF" stroke="#000000" stroke-width="2" stroke-miterlimit="10" d="M1133.5,199.4c0,0-56.1,34.2-67.8,273.8
		l-45.7-91.6C1019.9,381.5,1089.7,204.4,1133.5,199.4z"/>
	<g>
		<g>
			<polygon fill="#FFFFFF" stroke="#000000" stroke-width="2" stroke-miterlimit="10" points="1029.8,117.3 966.2,461.9 
				1078.5,461.9 			"/>
		</g>
		<polygon fill="#4D4B45" stroke="#000000" stroke-width="2" stroke-miterlimit="10" points="1029.8,117.3 1022.4,461.4 
			1078.5,461.9 		"/>
	</g>
</g>
<g id="forehead">
	<g>
		<g>
			<path d="M889.9,534.9h-30.7l23.7,77.6c30,23.5,36.9,52.2,36.9,52.2l-11.1,20.5l17.7,9c7.1-14,26.7-29.5,26.7-29.5
				C891.9,614.2,889.9,534.9,889.9,534.9z"/>
		</g>
	</g>
	<g>
		<g>
			<path d="M1182.2,534.9c0,0-37.9,84.1-99,134.6c0,0,21.8,15.5,24.9,27l19.2-11.3l-10.9-15.7c0,0,6.4-18.9,36.4-42.4l55.3-92.2
				H1182.2z"/>
		</g>
	</g>
	<g id="nose">
		<path fill="#8CD7FF" d="M889.9,534.9l9.2-48.5h42.2l3.9-52.7l47.8,21.8l63.5-3.5l7.4,7.7l46.9-27.3l5.7,67h51l4.5,34.5l10.1,1
			c0,0-43.7,100.9-95.7,131.8L953,664.7C953,664.7,894,626,889.9,534.9z"/>
		<g>
			<line fill="none" stroke="#000000" stroke-width="3" stroke-miterlimit="10" x1="895.6" y1="533.9" x2="1021.8" y2="660.4"/>
			<line fill="none" stroke="#000000" stroke-width="3" stroke-miterlimit="10" x1="941.3" y1="486.4" x2="1021.8" y2="660.4"/>
			<line fill="none" stroke="#000000" stroke-width="3" stroke-miterlimit="10" x1="1118.5" y1="495.7" x2="1021.8" y2="660.4"/>
			<line fill="none" stroke="#000000" stroke-width="3" stroke-miterlimit="10" x1="1174.6" y1="536.9" x2="1021.8" y2="660.4"/>
		</g>
		<g>
			<polygon fill="#33779C" stroke="#000000" stroke-width="4" stroke-miterlimit="10" points="942.7,573.7 1021.8,484.6 
				1105.6,573.4 1078.2,587.4 1021.8,527.7 965.5,587.4 			"/>
			<polygon fill="#33779C" stroke="#000000" stroke-width="4" stroke-miterlimit="10" points="965.5,587.4 1021.8,527.7 
				1078.2,587.4 1046.1,600.9 1021.8,574.3 996,601.1 			"/>
		</g>
		<polygon fill="#99BBCD" stroke="#000000" stroke-width="4" stroke-miterlimit="10" points="948.3,660.6 1021.8,571.4 
			1096.8,657.4 1078.2,673.5 1021.8,613.8 965.5,673.5 		"/>
		<polygon fill="#99BBCD" stroke="#000000" stroke-width="4" stroke-miterlimit="10" points="965.5,673.5 1021.8,613.8 
			1078.2,673.5 1050.1,687 1021.8,665.4 993,687.2 		"/>
		<g>
			<polygon fill="#005583" stroke="#000000" stroke-width="4" stroke-miterlimit="10" points="947.3,489.7 1024,374.7 1100.2,488.6 
				1078.2,500.8 1021.8,444.6 965.5,500.8 			"/>
			<polygon fill="#005583" stroke="#000000" stroke-width="4" stroke-miterlimit="10" points="965.5,500.8 1021.8,441.1 
				1078.2,500.8 1050.1,514.3 1021.8,487.7 993,514.5 			"/>
		</g>
	</g>
</g>
<g id="eyes">
	<path fill="#F9FFD8" stroke="#000000" stroke-width="21" stroke-miterlimit="10" d="M1120.6,673.4c0,0,9.8-74.4,145-78.1
		c0,0-4,86.7-54.8,107.7C1210.7,703,1145.4,728.2,1120.6,673.4z"/>
	<path fill="#F9FFD8" stroke="#000000" stroke-width="21" stroke-miterlimit="10" d="M919.7,664.7c0,0-9.8-74.4-145-78.1
		c0,0,2.4,91.4,54.8,107.7C829.6,694.2,895,719.5,919.7,664.7z"/>
	<circle cx="852.7" cy="634.3" r="30.4"/>
	<circle cx="1193.1" cy="640.5" r="30.4"/>
	<path fill="#8CD7FF" stroke="#000000" stroke-width="6" stroke-miterlimit="10" d="M1148.7,630c0,0,53.8-77.4,69.6-115l69.9,39.8
		l-22.6,40.4C1265.6,595.3,1208.5,587.6,1148.7,630z"/>
	<path fill="#FFF762" stroke="#000000" stroke-width="7" stroke-miterlimit="10" d="M1209.6,532.5c6.2-0.2,70.1,42.5,70.1,42.5
		l-95.3,1.4L1209.6,532.5z"/>
	<path fill="#8CD7FF" stroke="#000000" stroke-width="6" stroke-miterlimit="10" d="M882.9,612.5L854,521.3l-102.5,21.5l20.7,43.5
		C772.3,586.3,840.8,587.4,882.9,612.5z"/>
	<path fill="#FFF762" stroke="#000000" stroke-width="7" stroke-miterlimit="10" d="M762,564.7c4-0.4,99.6-18.6,99.6-18.6l12.4,37.3
		L762,564.7z"/>
	<path d="M772.3,586.3c0,0-41.6,84.4,40,132.4c0,0,38,7.7,70.3-18.7C882.6,700,785.6,723.3,772.3,586.3z"/>
	<path d="M1270.3,598c0,0,41.6,84.4-40,132.4c0,0-38,7.7-70.3-18.7C1160,711.7,1257,734.9,1270.3,598z"/>
	<g>
		<path fill="#FFCD5B" stroke="#000000" stroke-width="5" stroke-miterlimit="10" d="M1218.3,731.4l33.1,24.3l7.5-30.9l30.1,15.5
			l-11.5-38.6l40,14.9l-22.5-27.8h33.1l-19-21.9l34-2.1l-16.7-24.2l27.3-6.3l-10.5-19.7C1343.1,614.6,1264.8,746.3,1218.3,731.4z"/>
		<path fill="#FFF762" stroke="#000000" stroke-width="5" stroke-miterlimit="10" d="M1288.2,554.9l54.9,59.7
			c0,0-78.3,131.7-124.8,116.8c0,0,91-19.2,50-134.9L1288.2,554.9z"/>
	</g>
	<g>
		<path fill="#FFCD5B" stroke="#000000" stroke-width="5" stroke-miterlimit="10" d="M821.4,719.4l-33.1,24.3l-7.5-30.9l-30.1,15.5
			l11.5-38.6l-40,14.9l22.5-27.8h-33.1l19-21.9l-34-2.1l16.7-24.2l-27.3-6.3l10.5-19.7C696.7,602.6,775,734.3,821.4,719.4z"/>
		<path fill="#FFF762" stroke="#000000" stroke-width="5" stroke-miterlimit="10" d="M751.6,542.9l-54.9,59.7
			c0,0,78.3,131.7,124.8,116.8c0,0-91-19.2-50-134.9L751.6,542.9z"/>
	</g>
</g>
</svg>
