<?xml version="1.0" encoding="utf-8"?>
<!-- Generator: Adobe Illustrator 19.2.1, SVG Export Plug-In . SVG Version: 6.00 Build 0)  -->
<svg version="1.1" xmlns="http://www.w3.org/2000/svg" xmlns:xlink="http://www.w3.org/1999/xlink" x="0px" y="0px" width="600px"
	 height="600px" viewBox="0 0 2000 2000" enable-background="new 0 0 2000 2000" xml:space="preserve">
<g id="feathers">
	<g>
		<g>
			<path stroke="#FFFFFF" stroke-width="5" stroke-miterlimit="10" d="M1081.6,875.9c3.9-0.1-88.9,56.9-96.7,163.8l-107,40.5
				l-156.1,120c0,0-85.8,116.6-238.6,136.3c0,0-38.3,14.7-90.5,25.9c0,0-45,10.2-77.9,9.7c0,0,37.5-27.8,45.2-61.7
				c0,0,43.6-154.9,195-267.6C555,1042.7,709.6,884.6,1081.6,875.9z"/>
			<path fill="none" stroke="#FFFFFF" stroke-width="5" stroke-miterlimit="10" d="M314.8,1372.1c0,0,153.8-27.2,332.4-261.8
				c0,0,127.9-143.7,350.4-133"/>
			<line fill="none" stroke="#FFFFFF" stroke-width="5" stroke-miterlimit="10" x1="483.2" y1="1336.5" x2="494.1" y2="1272.4"/>
			<line fill="none" stroke="#FFFFFF" stroke-width="5" stroke-miterlimit="10" x1="383.8" y1="1235" x2="492.9" y2="1271.1"/>
			<line fill="none" stroke="#FFFFFF" stroke-width="5" stroke-miterlimit="10" x1="367.6" y1="1269.7" x2="453.2" y2="1302.8"/>
			<line fill="none" stroke="#FFFFFF" stroke-width="5" stroke-miterlimit="10" x1="446.9" y1="1348.5" x2="453.7" y2="1303.3"/>
			<line fill="none" stroke="#FFFFFF" stroke-width="5" stroke-miterlimit="10" x1="360" y1="1310.4" x2="410.7" y2="1331.1"/>
			<line fill="none" stroke="#FFFFFF" stroke-width="5" stroke-miterlimit="10" x1="410.7" y1="1331.1" x2="409.5" y2="1358.6"/>
			<line fill="none" stroke="#FFFFFF" stroke-width="5" stroke-miterlimit="10" x1="527.6" y1="1327.8" x2="552.3" y2="1219.4"/>
			<line fill="none" stroke="#FFFFFF" stroke-width="5" stroke-miterlimit="10" x1="414.9" y1="1195.1" x2="552.3" y2="1219.4"/>
			<line fill="none" stroke="#FFFFFF" stroke-width="5" stroke-miterlimit="10" x1="563.9" y1="1315.2" x2="590.4" y2="1179.5"/>
			<line fill="none" stroke="#FFFFFF" stroke-width="5" stroke-miterlimit="10" x1="597.6" y1="1173.1" x2="439" y2="1159.8"/>
			<line fill="none" stroke="#FFFFFF" stroke-width="5" stroke-miterlimit="10" x1="636.1" y1="1124.6" x2="600.1" y2="1294.5"/>
			<line fill="none" stroke="#FFFFFF" stroke-width="5" stroke-miterlimit="10" x1="474.1" y1="1116.6" x2="636.1" y2="1124.6"/>
			<path fill="none" stroke="#FFFFFF" stroke-width="5" stroke-miterlimit="10" d="M687.3,1074.4c0,0-168.2-2.7-168.1-2.4"/>
			<line fill="none" stroke="#FFFFFF" stroke-width="5" stroke-miterlimit="10" x1="687.3" y1="1074.4" x2="647.4" y2="1270.2"/>
			<line fill="none" stroke="#FFFFFF" stroke-width="5" stroke-miterlimit="10" x1="732.4" y1="1043.6" x2="694.6" y2="1230.5"/>
			<line fill="none" stroke="#FFFFFF" stroke-width="5" stroke-miterlimit="10" x1="573.2" y1="1026.9" x2="732.4" y2="1043.6"/>
			<line fill="none" stroke="#FFFFFF" stroke-width="5" stroke-miterlimit="10" x1="640.6" y1="982.4" x2="797.1" y2="1011.2"/>
			<line fill="none" stroke="#FFFFFF" stroke-width="5" stroke-miterlimit="10" x1="744.4" y1="1180.2" x2="797.1" y2="1011.2"/>
			<line fill="none" stroke="#FFFFFF" stroke-width="5" stroke-miterlimit="10" x1="836" y1="997.3" x2="794.3" y2="1144.5"/>
			<line fill="none" stroke="#FFFFFF" stroke-width="5" stroke-miterlimit="10" x1="707.6" y1="949.6" x2="836" y2="997.3"/>
			<line fill="none" stroke="#FFFFFF" stroke-width="5" stroke-miterlimit="10" x1="850.4" y1="1101.4" x2="888.2" y2="984.5"/>
			<line fill="none" stroke="#FFFFFF" stroke-width="5" stroke-miterlimit="10" x1="772.3" y1="925.4" x2="888.2" y2="984.5"/>
			<line fill="none" stroke="#FFFFFF" stroke-width="5" stroke-miterlimit="10" x1="930.7" y1="978.6" x2="887.1" y2="1076.8"/>
			<line fill="none" stroke="#FFFFFF" stroke-width="5" stroke-miterlimit="10" x1="829.4" y1="908.9" x2="930.7" y2="978.6"/>
			<line fill="none" stroke="#FFFFFF" stroke-width="5" stroke-miterlimit="10" x1="940.6" y1="1054.7" x2="978.3" y2="976.7"/>
			<line fill="none" stroke="#FFFFFF" stroke-width="5" stroke-miterlimit="10" x1="890.2" y1="895.4" x2="978.3" y2="976.7"/>
			<line fill="none" stroke="#FFFFFF" stroke-width="5" stroke-miterlimit="10" x1="941.3" y1="887.1" x2="1012.8" y2="952.4"/>
			<line fill="none" stroke="#FFFFFF" stroke-width="5" stroke-miterlimit="10" x1="981.1" y1="882.2" x2="1034.7" y2="916.1"/>
			<line fill="none" stroke="#FFFFFF" stroke-width="5" stroke-miterlimit="10" x1="1024.4" y1="877.7" x2="1058.6" y2="894.9"/>
		</g>
		<g>
			<path stroke="#FFFFFF" stroke-width="5" stroke-miterlimit="10" d="M1058.7,943.7c3.8-1.1-71.3,77.8-51.5,183.2l-93.1,66.6
				l-120.1,156c0,0-53,134.7-195.7,192.9c0,0-33.2,24-80.9,48.3c0,0-40.9,21.4-72.8,29.3c0,0,29.1-36.5,27.9-71.3
				c0,0,2.5-160.9,119.9-308.7C592.5,1239.9,701.4,1047.4,1058.7,943.7z"/>
			<path fill="none" stroke="#FFFFFF" stroke-width="5" stroke-miterlimit="10" d="M444.7,1619.8c0,0,141.7-65.7,254.1-338.3
				c0,0,86.7-171.7,304.6-218.4"/>
			<line fill="none" stroke="#FFFFFF" stroke-width="5" stroke-miterlimit="10" x1="598.4" y1="1542.3" x2="592.4" y2="1477.5"/>
			<line fill="none" stroke="#FFFFFF" stroke-width="5" stroke-miterlimit="10" x1="476.2" y1="1469.6" x2="591" y2="1476.6"/>
			<line fill="none" stroke="#FFFFFF" stroke-width="5" stroke-miterlimit="10" x1="469.5" y1="1507.3" x2="560.7" y2="1517.3"/>
			<line fill="none" stroke="#FFFFFF" stroke-width="5" stroke-miterlimit="10" x1="566.4" y1="1563.2" x2="561.3" y2="1517.7"/>
			<line fill="none" stroke="#FFFFFF" stroke-width="5" stroke-miterlimit="10" x1="472.6" y1="1548.6" x2="526.9" y2="1555.7"/>
			<line fill="none" stroke="#FFFFFF" stroke-width="5" stroke-miterlimit="10" x1="526.9" y1="1555.7" x2="532.8" y2="1582.5"/>
			<line fill="none" stroke="#FFFFFF" stroke-width="5" stroke-miterlimit="10" x1="639" y1="1522.4" x2="635.1" y2="1411.4"/>
			<line fill="none" stroke="#FFFFFF" stroke-width="5" stroke-miterlimit="10" x1="496.1" y1="1423.1" x2="635.1" y2="1411.4"/>
			<line fill="none" stroke="#FFFFFF" stroke-width="5" stroke-miterlimit="10" x1="670.9" y1="1501" x2="661.7" y2="1363.1"/>
			<line fill="none" stroke="#FFFFFF" stroke-width="5" stroke-miterlimit="10" x1="667.1" y1="1355" x2="510.3" y2="1382.8"/>
			<line fill="none" stroke="#FFFFFF" stroke-width="5" stroke-miterlimit="10" x1="691.8" y1="1298.2" x2="700.5" y2="1471.7"/>
			<line fill="none" stroke="#FFFFFF" stroke-width="5" stroke-miterlimit="10" x1="533.2" y1="1332.1" x2="691.8" y2="1298.2"/>
			<path fill="none" stroke="#FFFFFF" stroke-width="5" stroke-miterlimit="10" d="M728.4,1236.6c0,0-163.2,40.5-163.2,40.7"/>
			<line fill="none" stroke="#FFFFFF" stroke-width="5" stroke-miterlimit="10" x1="728.4" y1="1236.6" x2="740.1" y2="1436.1"/>
			<line fill="none" stroke="#FFFFFF" stroke-width="5" stroke-miterlimit="10" x1="764.1" y1="1195.2" x2="775.5" y2="1385.6"/>
			<line fill="none" stroke="#FFFFFF" stroke-width="5" stroke-miterlimit="10" x1="606" y1="1220" x2="764.1" y2="1195.2"/>
			<line fill="none" stroke="#FFFFFF" stroke-width="5" stroke-miterlimit="10" x1="659.7" y1="1159.6" x2="818.3" y2="1147.4"/>
			<line fill="none" stroke="#FFFFFF" stroke-width="5" stroke-miterlimit="10" x1="810.7" y1="1324.2" x2="818.3" y2="1147.4"/>
			<line fill="none" stroke="#FFFFFF" stroke-width="5" stroke-miterlimit="10" x1="852.4" y1="1123.9" x2="849.8" y2="1276.9"/>
			<line fill="none" stroke="#FFFFFF" stroke-width="5" stroke-miterlimit="10" x1="716.1" y1="1110.8" x2="852.4" y2="1123.9"/>
			<line fill="none" stroke="#FFFFFF" stroke-width="5" stroke-miterlimit="10" x1="893" y1="1220.9" x2="899.6" y2="1098.2"/>
			<line fill="none" stroke="#FFFFFF" stroke-width="5" stroke-miterlimit="10" x1="772.4" y1="1070.8" x2="899.6" y2="1098.2"/>
			<line fill="none" stroke="#FFFFFF" stroke-width="5" stroke-miterlimit="10" x1="939.1" y1="1081.6" x2="922.1" y2="1187.7"/>
			<line fill="none" stroke="#FFFFFF" stroke-width="5" stroke-miterlimit="10" x1="823.3" y1="1040.2" x2="939.1" y2="1081.6"/>
			<line fill="none" stroke="#FFFFFF" stroke-width="5" stroke-miterlimit="10" x1="968.3" y1="1152.6" x2="984.7" y2="1067.6"/>
			<line fill="none" stroke="#FFFFFF" stroke-width="5" stroke-miterlimit="10" x1="878.7" y1="1011.6" x2="984.7" y2="1067.6"/>
			<line fill="none" stroke="#FFFFFF" stroke-width="5" stroke-miterlimit="10" x1="925.9" y1="990.4" x2="1011.7" y2="1035.2"/>
			<line fill="none" stroke="#FFFFFF" stroke-width="5" stroke-miterlimit="10" x1="963.1" y1="975.5" x2="1023.6" y2="994.5"/>
			<line fill="none" stroke="#FFFFFF" stroke-width="5" stroke-miterlimit="10" x1="1003.8" y1="960.1" x2="1041.3" y2="967.9"/>
		</g>
		<g>
			<path stroke="#FFFFFF" stroke-width="5" stroke-miterlimit="10" d="M1120.7,962.7c3.4-2-50,92.9-4.9,190.2l-73.9,87.4
				l-78.1,180.7c0,0-18.3,143.6-142.3,235c0,0-26.3,31.5-66.5,66.6c0,0-34.4,30.8-63.4,46.3c0,0,19.2-42.5,9.5-75.9
				c0,0-37.1-156.6,40.5-328.7C741.4,1364.2,799.8,1150.9,1120.7,962.7z"/>
			<path fill="none" stroke="#FFFFFF" stroke-width="5" stroke-miterlimit="10" d="M691.4,1768.8c0,0,121.2-98.4,163.3-390.3
				c0,0,41.9-187.7,241.6-286.5"/>
			<line fill="none" stroke="#FFFFFF" stroke-width="5" stroke-miterlimit="10" x1="821.4" y1="1655.9" x2="799.7" y2="1594.6"/>
			<line fill="none" stroke="#FFFFFF" stroke-width="5" stroke-miterlimit="10" x1="685.1" y1="1615.5" x2="798.1" y2="1594"/>
			<line fill="none" stroke="#FFFFFF" stroke-width="5" stroke-miterlimit="10" x1="687.9" y1="1653.7" x2="778.8" y2="1641"/>
			<line fill="none" stroke="#FFFFFF" stroke-width="5" stroke-miterlimit="10" x1="795.5" y1="1684" x2="779.4" y2="1641.2"/>
			<line fill="none" stroke="#FFFFFF" stroke-width="5" stroke-miterlimit="10" x1="701" y1="1692.9" x2="755.4" y2="1686.4"/>
			<line fill="none" stroke="#FFFFFF" stroke-width="5" stroke-miterlimit="10" x1="755.4" y1="1686.4" x2="767.7" y2="1711"/>
			<line fill="none" stroke="#FFFFFF" stroke-width="5" stroke-miterlimit="10" x1="855.9" y1="1626.7" x2="824.9" y2="1520"/>
			<line fill="none" stroke="#FFFFFF" stroke-width="5" stroke-miterlimit="10" x1="692.9" y1="1565.5" x2="824.9" y2="1520"/>
			<line fill="none" stroke="#FFFFFF" stroke-width="5" stroke-miterlimit="10" x1="881.6" y1="1598.1" x2="838.8" y2="1466.6"/>
			<line fill="none" stroke="#FFFFFF" stroke-width="5" stroke-miterlimit="10" x1="842" y1="1457.5" x2="696.8" y2="1522.9"/>
			<line fill="none" stroke="#FFFFFF" stroke-width="5" stroke-miterlimit="10" x1="852" y1="1396.4" x2="903.1" y2="1562.5"/>
			<line fill="none" stroke="#FFFFFF" stroke-width="5" stroke-miterlimit="10" x1="706.6" y1="1468.1" x2="852" y2="1396.4"/>
			<path fill="none" stroke="#FFFFFF" stroke-width="5" stroke-miterlimit="10" d="M872.4,1327.6c0,0-148.3,79.4-148.2,79.5"/>
			<line fill="none" stroke="#FFFFFF" stroke-width="5" stroke-miterlimit="10" x1="872.4" y1="1327.6" x2="932.7" y2="1518.2"/>
			<line fill="none" stroke="#FFFFFF" stroke-width="5" stroke-miterlimit="10" x1="896.9" y1="1278.8" x2="954.6" y2="1460.6"/>
			<line fill="none" stroke="#FFFFFF" stroke-width="5" stroke-miterlimit="10" x1="749.6" y1="1341.6" x2="896.9" y2="1278.8"/>
			<line fill="none" stroke="#FFFFFF" stroke-width="5" stroke-miterlimit="10" x1="786.8" y1="1269.9" x2="937.7" y2="1219.1"/>
			<line fill="none" stroke="#FFFFFF" stroke-width="5" stroke-miterlimit="10" x1="973.7" y1="1392.4" x2="937.7" y2="1219.1"/>
			<line fill="none" stroke="#FFFFFF" stroke-width="5" stroke-miterlimit="10" x1="964.9" y1="1188" x2="1000" y2="1336.9"/>
			<line fill="none" stroke="#FFFFFF" stroke-width="5" stroke-miterlimit="10" x1="829.5" y1="1208.7" x2="964.9" y2="1188"/>
			<line fill="none" stroke="#FFFFFF" stroke-width="5" stroke-miterlimit="10" x1="1028.1" y1="1272" x2="1004.4" y2="1151.4"/>
			<line fill="none" stroke="#FFFFFF" stroke-width="5" stroke-miterlimit="10" x1="874.3" y1="1156.2" x2="1004.4" y2="1151.4"/>
			<line fill="none" stroke="#FFFFFF" stroke-width="5" stroke-miterlimit="10" x1="1038.6" y1="1125.7" x2="1048.2" y2="1232.7"/>
			<line fill="none" stroke="#FFFFFF" stroke-width="5" stroke-miterlimit="10" x1="916.2" y1="1114" x2="1038.6" y2="1125.7"/>
			<line fill="none" stroke="#FFFFFF" stroke-width="5" stroke-miterlimit="10" x1="1084.3" y1="1187.4" x2="1079.3" y2="1100.9"/>
			<line fill="none" stroke="#FFFFFF" stroke-width="5" stroke-miterlimit="10" x1="962.9" y1="1072.6" x2="1079.3" y2="1100.9"/>
			<line fill="none" stroke="#FFFFFF" stroke-width="5" stroke-miterlimit="10" x1="1003.4" y1="1040.5" x2="1097.6" y2="1062.9"/>
			<line fill="none" stroke="#FFFFFF" stroke-width="5" stroke-miterlimit="10" x1="1035.9" y1="1017" x2="1099.1" y2="1020.6"/>
			<line fill="none" stroke="#FFFFFF" stroke-width="5" stroke-miterlimit="10" x1="1071.5" y1="992" x2="1109.7" y2="990.4"/>
		</g>
		<g>
			<path stroke="#FFFFFF" stroke-width="5" stroke-miterlimit="10" d="M1135.8,949.2c2.5-3-16.4,104.2,58.4,181.1l-40.8,106.9
				l-13.8,196.4c0,0,30.3,141.5-56.4,268.9c0,0-14.4,38.4-40.7,84.9c0,0-22.2,40.4-44.5,64.7c0,0,4-46.5-16.2-74.8
				c0,0-86.9-135.5-70.8-323.5C911.1,1453.8,895.4,1233.2,1135.8,949.2z"/>
			<path fill="none" stroke="#FFFFFF" stroke-width="5" stroke-miterlimit="10" d="M998.1,1852.1c0,0,81.7-133.1,24.7-422.4
				c0,0-22.7-191,133-350.4"/>
			<line fill="none" stroke="#FFFFFF" stroke-width="5" stroke-miterlimit="10" x1="1083.2" y1="1702.5" x2="1042.5" y2="1651.8"/>
			<line fill="none" stroke="#FFFFFF" stroke-width="5" stroke-miterlimit="10" x1="941.3" y1="1709.5" x2="1040.7" y2="1651.8"/>
			<line fill="none" stroke="#FFFFFF" stroke-width="5" stroke-miterlimit="10" x1="956.5" y1="1744.6" x2="1038.1" y2="1702.5"/>
			<line fill="none" stroke="#FFFFFF" stroke-width="5" stroke-miterlimit="10" x1="1068.1" y1="1737.6" x2="1038.8" y2="1702.5"/>
			<line fill="none" stroke="#FFFFFF" stroke-width="5" stroke-miterlimit="10" x1="981.9" y1="1777.3" x2="1031.1" y2="1753.1"/>
			<line fill="none" stroke="#FFFFFF" stroke-width="5" stroke-miterlimit="10" x1="1031.1" y1="1753.1" x2="1050.8" y2="1772.3"/>
			<line fill="none" stroke="#FFFFFF" stroke-width="5" stroke-miterlimit="10" x1="1106.1" y1="1663.5" x2="1041.5" y2="1573.1"/>
			<line fill="none" stroke="#FFFFFF" stroke-width="5" stroke-miterlimit="10" x1="932.1" y1="1659.8" x2="1041.5" y2="1573.1"/>
			<line fill="none" stroke="#FFFFFF" stroke-width="5" stroke-miterlimit="10" x1="1120.9" y1="1628" x2="1036.9" y2="1518.1"/>
			<line fill="none" stroke="#FFFFFF" stroke-width="5" stroke-miterlimit="10" x1="1036.9" y1="1508.4" x2="921.6" y2="1618.3"/>
			<line fill="none" stroke="#FFFFFF" stroke-width="5" stroke-miterlimit="10" x1="1026.1" y1="1447.5" x2="1129.4" y2="1587.2"/>
			<line fill="none" stroke="#FFFFFF" stroke-width="5" stroke-miterlimit="10" x1="912.7" y1="1563.3" x2="1026.1" y2="1447.5"/>
			<path fill="none" stroke="#FFFFFF" stroke-width="5" stroke-miterlimit="10" d="M1022.5,1375.8c0,0-113.6,124-113.4,124.2"/>
			<line fill="none" stroke="#FFFFFF" stroke-width="5" stroke-miterlimit="10" x1="1022.5" y1="1375.8" x2="1142.6" y2="1535.7"/>
			<line fill="none" stroke="#FFFFFF" stroke-width="5" stroke-miterlimit="10" x1="1029.4" y1="1321.7" x2="1144.2" y2="1474"/>
			<line fill="none" stroke="#FFFFFF" stroke-width="5" stroke-miterlimit="10" x1="911.3" y1="1429.7" x2="1029.4" y2="1321.7"/>
			<line fill="none" stroke="#FFFFFF" stroke-width="5" stroke-miterlimit="10" x1="922.7" y1="1349.7" x2="1048.2" y2="1251.8"/>
			<line fill="none" stroke="#FFFFFF" stroke-width="5" stroke-miterlimit="10" x1="1139.6" y1="1403.4" x2="1048.2" y2="1251.8"/>
			<line fill="none" stroke="#FFFFFF" stroke-width="5" stroke-miterlimit="10" x1="1063.6" y1="1213.4" x2="1146" y2="1342.3"/>
			<line fill="none" stroke="#FFFFFF" stroke-width="5" stroke-miterlimit="10" x1="942.7" y1="1277.9" x2="1063.6" y2="1213.4"/>
			<line fill="none" stroke="#FFFFFF" stroke-width="5" stroke-miterlimit="10" x1="1151" y1="1271.8" x2="1088.6" y2="1165.9"/>
			<line fill="none" stroke="#FFFFFF" stroke-width="5" stroke-miterlimit="10" x1="967.6" y1="1213.4" x2="1088.6" y2="1165.9"/>
			<line fill="none" stroke="#FFFFFF" stroke-width="5" stroke-miterlimit="10" x1="1112.4" y1="1130.3" x2="1156.9" y2="1228"/>
			<line fill="none" stroke="#FFFFFF" stroke-width="5" stroke-miterlimit="10" x1="993.1" y1="1159.7" x2="1112.4" y2="1130.3"/>
			<line fill="none" stroke="#FFFFFF" stroke-width="5" stroke-miterlimit="10" x1="1176" y1="1173.3" x2="1142.6" y2="1093.3"/>
			<line fill="none" stroke="#FFFFFF" stroke-width="5" stroke-miterlimit="10" x1="1023.4" y1="1105.3" x2="1142.6" y2="1093.3"/>
			<line fill="none" stroke="#FFFFFF" stroke-width="5" stroke-miterlimit="10" x1="1051" y1="1061.5" x2="1147.3" y2="1051.4"/>
			<line fill="none" stroke="#FFFFFF" stroke-width="5" stroke-miterlimit="10" x1="1073.8" y1="1028.6" x2="1134.7" y2="1011"/>
			<line fill="none" stroke="#FFFFFF" stroke-width="5" stroke-miterlimit="10" x1="1099.2" y1="993.1" x2="1134.7" y2="979"/>
		</g>
	</g>
</g>
<g id="skull">
	<g>

			<line fill="none" stroke="#231F20" stroke-width="4" stroke-linecap="round" stroke-linejoin="round" stroke-miterlimit="10" x1="1156.2" y1="1375.8" x2="1202" y2="1375.8"/>

			<line fill="none" stroke="#231F20" stroke-width="4" stroke-linecap="round" stroke-linejoin="round" stroke-miterlimit="10" x1="1142.6" y1="1394.7" x2="1229.4" y2="1394.7"/>
		<g>
			<g>
				<path fill="#231F20" d="M1320.6,1079.7c0,0,0.3,0.6,0.7,1.5c0.4,1,0.9,2.4,1.3,4c0.4,1.7,0.7,3.6,0.9,5.7
					c0.2,2.1,0.2,4.2,0.1,6.4c-0.1,2.2-0.4,4.4-0.8,6.4c-0.4,2-1,3.9-1.6,5.5c-0.6,1.6-1.2,2.9-1.7,3.9c-0.5,0.9-0.9,1.5-0.9,1.5
					s-0.3-0.6-0.7-1.5c-0.4-1-0.9-2.4-1.3-4c-0.4-1.7-0.7-3.6-0.9-5.7c-0.2-2.1-0.2-4.2-0.1-6.4c0.1-2.2,0.4-4.4,0.8-6.4
					c0.4-2,1-3.9,1.6-5.5c0.6-1.6,1.2-2.9,1.7-3.9C1320.2,1080.2,1320.6,1079.7,1320.6,1079.7z"/>
			</g>
			<g>
				<path fill="#231F20" d="M1299.3,1073.1c0,0,0.3,0.6,0.7,1.5c0.4,1,0.9,2.4,1.3,4c0.4,1.7,0.7,3.6,0.9,5.7
					c0.2,2.1,0.2,4.2,0.1,6.4c-0.1,2.2-0.4,4.4-0.8,6.4c-0.4,2-1,3.9-1.6,5.5c-0.6,1.6-1.2,2.9-1.7,3.9c-0.5,0.9-0.9,1.5-0.9,1.5
					s-0.3-0.6-0.7-1.5c-0.4-1-0.9-2.4-1.3-4c-0.4-1.7-0.7-3.6-0.9-5.7c-0.2-2.1-0.2-4.2-0.1-6.4c0.1-2.2,0.4-4.4,0.8-6.4
					c0.4-2,1-3.9,1.6-5.5c0.6-1.6,1.2-2.9,1.7-3.9C1298.9,1073.7,1299.3,1073.1,1299.3,1073.1z"/>
			</g>
			<g>
				<path d="M1331.7,1277.9c0,0-0.1,0.5-0.3,1.3c-0.2,0.9-0.4,2.2-0.7,3.8c-0.7,3.3-1.6,7.9-2.9,13.4c-0.6,2.8-1.3,5.8-2.1,8.9
					c-0.8,3.2-1.6,6.5-2.5,9.9c-0.9,3.4-1.8,7-2.7,10.6c-1,3.6-2,7.3-2.9,10.9c-1,3.6-2.1,7.3-3.1,10.9c-1,3.6-2.1,7.1-3.1,10.5
					c-1,3.4-2,6.7-3,9.8c-0.9,3.1-1.9,6-2.8,8.7c-1.7,5.4-3.3,9.9-4.4,13c-1.1,3.1-1.8,4.9-1.8,4.9s0.3-1.9,1-5.1
					c0.7-3.3,1.6-7.9,2.9-13.4c0.6-2.8,1.3-5.8,2.1-8.9c0.8-3.2,1.6-6.5,2.5-9.9c0.9-3.4,1.8-7,2.8-10.6c1-3.6,2-7.3,2.9-10.9
					c1-3.6,2.1-7.3,3.1-10.9c1-3.6,2.1-7.1,3.1-10.5c1-3.4,2-6.7,3-9.8c0.9-3.1,1.9-6,2.8-8.7c1.7-5.4,3.3-9.9,4.4-13
					c0.5-1.6,1-2.8,1.3-3.6C1331.5,1278.4,1331.7,1277.9,1331.7,1277.9z"/>
			</g>
			<g>
				<path d="M1310.2,1287.1c0,0-0.1,1.3-0.5,3.5c-0.3,2.2-0.8,5.4-1.5,9.1c-0.3,1.9-0.7,3.9-1.2,6.1c-0.4,2.1-0.9,4.4-1.4,6.8
					c-0.5,2.3-1,4.8-1.6,7.2c-0.6,2.4-1.2,4.9-1.8,7.4c-0.6,2.5-1.3,4.9-1.9,7.4c-0.6,2.4-1.3,4.8-2,7.1c-0.6,2.3-1.3,4.5-1.9,6.6
					c-0.6,2.1-1.2,4.1-1.8,5.9c-1.2,3.7-2.2,6.7-3,8.8c-0.8,2.1-1.2,3.3-1.2,3.3s0.1-1.3,0.5-3.5c0.3-2.2,0.8-5.4,1.5-9.1
					c0.3-1.9,0.7-3.9,1.2-6.1c0.4-2.1,0.9-4.4,1.4-6.8c0.5-2.3,1-4.8,1.6-7.2c0.6-2.4,1.2-4.9,1.8-7.4c0.6-2.5,1.3-4.9,1.9-7.4
					c0.6-2.4,1.3-4.8,2-7.1c0.6-2.3,1.3-4.5,1.9-6.6c0.6-2.1,1.2-4.1,1.8-5.9c1.2-3.7,2.2-6.7,3-8.8
					C1309.7,1288.3,1310.2,1287.1,1310.2,1287.1z"/>
			</g>
			<g>
				<path d="M1277.8,1347.9c0,0,0-0.8,0.1-2.3c0.1-1.4,0.3-3.5,0.6-5.9c0.6-4.8,1.8-11.2,3.3-17.5c1.5-6.3,3.3-12.5,5-17.1
					c0.8-2.3,1.5-4.2,2.1-5.5c0.5-1.3,0.9-2.1,0.9-2.1s0,0.8-0.1,2.3c-0.1,1.4-0.3,3.5-0.6,5.9c-0.6,4.8-1.8,11.2-3.3,17.5
					c-1.5,6.3-3.3,12.5-5,17.1c-0.8,2.3-1.5,4.2-2.1,5.5C1278.2,1347.2,1277.8,1347.9,1277.8,1347.9z"/>
			</g>
			<g>
				<path d="M1266.1,1331.7c0,0-0.1-0.4-0.2-1c-0.1-0.6-0.2-1.5-0.2-2.5c0-2,0.3-4.6,0.9-7.1c0.6-2.5,1.6-4.9,2.6-6.7
					c0.5-0.9,0.9-1.6,1.3-2.1c0.4-0.5,0.6-0.8,0.6-0.8s0.1,0.4,0.2,1c0.1,0.6,0.2,1.5,0.2,2.5c0,2-0.3,4.6-0.9,7.1
					c-0.6,2.5-1.6,4.9-2.6,6.7c-0.5,0.9-0.9,1.6-1.3,2.1C1266.4,1331.4,1266.1,1331.7,1266.1,1331.7z"/>
			</g>

				<line fill="none" stroke="#231F20" stroke-width="4" stroke-linecap="round" stroke-linejoin="round" stroke-miterlimit="10" x1="1145.1" y1="1412.5" x2="1250.8" y2="1412.5"/>

				<line fill="none" stroke="#231F20" stroke-width="4" stroke-linecap="round" stroke-linejoin="round" stroke-miterlimit="10" x1="1163.4" y1="1434.2" x2="1267.6" y2="1434.2"/>

				<line fill="none" stroke="#231F20" stroke-width="4" stroke-linecap="round" stroke-linejoin="round" stroke-miterlimit="10" x1="1180.3" y1="1453.8" x2="1290.5" y2="1453.8"/>

				<line fill="none" stroke="#231F20" stroke-width="4" stroke-linecap="round" stroke-linejoin="round" stroke-miterlimit="10" x1="1204.1" y1="1474" x2="1303.8" y2="1474"/>
			<g>
				<path fill="none" stroke="#000000" stroke-width="6" stroke-miterlimit="10" d="M1194.2,1130.3l-44.5,89l-10.1,214.3l66.7,91
					c0,0,0,0,105.1,18.2c0,0,103.1,22.2,153.7,48.5l74.8,38.4c0,0,35.4,22.7,60.7,10.1c0,0,29.8-11.6,22.2-54.6l-14.2-131.4
					l-23.3,20.2l-23.3-26.3l-16.4,22l-20-30l-19.2,14.2l-11.1-20.2c0,0-17.7,4-35.4-11.1c0,0-16.2,10.7-31.3-13.1
					c0,0-23.7,31.8-49.7-7.1c0,0-25.3,26.9-36.3-41.4c0,0,5.1-68.7,79.9-58.6c0,0,12.1-6.1,38.4,12.1c0,0,36.4-18.2,46.5,6.1
					c0,0,30.3-12.1,40.4,4c0,0,18.2-16.2,30.3,0c0,0,12.1-22.2,30.3-6.1c0,0-8.1-24.3,28.3-72.8c0,0,16.2-8.1,20.2-34.4
					c0,0-10.1-16.2,16.2-46.5c0,0,10.1-4,10.1-34.4c0,0,10.1-52.6-24.3-60.7c0,0-30.3-78.9-22.2-157.7c0,0,18.2-133.4-89-177.9
					c-107.2-44.5-303.3,135.5-303.3,135.5l-115.2,125.4C1129.5,994.8,1123.4,1073.6,1194.2,1130.3z"/>
				<path d="M1436.1,743.3c0,0,37.1,8.9,63.4,39.2c0,0,20.2,32.4,38.4,40.4c0,0,28.3,32.4-22.2,86.9c0,0-62.7,52.6-56.6,109.2
					c0,0-22.2,64.7-119.3,52.6c0,0-218.8-12.6-182.2-107.4C1157.6,964.2,1299.9,789,1436.1,743.3z"/>
				<path stroke="#000000" stroke-miterlimit="10" d="M1194.2,1130.3c0,0,78.3,119.2,155.4,56.6l46.8,50.6h44.5h20.2l32.4,34.4
					l24.3-30.3l62.7-68.7c0,0-66.7,68.7-93,66.7c0,0-46.5-38.4-68.7-20.2l-60.7-56.6l-42.5,12.1l-22.2-14.2l-16.2,14.2l-12.1-22.2
					l-12.1,10.1c0,0-14.2-16.2-22.2-16.2C1222.5,1146.4,1194.2,1130.3,1194.2,1130.3z"/>
				<path fill="#231F20" d="M1148.2,1251.8l5.3,117.1l10.4,43.7l56.6,77.6c0,0,28.3,26.3,66.7,26.3c0,0,73.2,14.7,134.7,56.9
					l-110.4-30.6c0,0-68.4-0.1-105.1-18.2l-66.7-91L1148.2,1251.8z"/>
				<g>
					<path fill="#231F20" d="M1434.8,1073.1c0,0,0.3,0.6,0.7,1.5c0.4,1,0.9,2.4,1.3,4c0.4,1.7,0.7,3.6,0.9,5.7
						c0.2,2.1,0.2,4.2,0.1,6.4c-0.1,2.2-0.4,4.4-0.8,6.4c-0.4,2-1,3.9-1.6,5.5c-0.6,1.6-1.2,2.9-1.7,3.9c-0.5,0.9-0.9,1.5-0.9,1.5
						s-0.3-0.6-0.7-1.5c-0.4-1-0.9-2.4-1.3-4c-0.4-1.7-0.7-3.6-0.9-5.7c-0.2-2.1-0.2-4.2-0.1-6.4c0.1-2.2,0.4-4.4,0.8-6.4
						c0.4-2,1-3.9,1.6-5.5c0.6-1.6,1.2-2.9,1.7-3.9C1434.4,1073.7,1434.8,1073.1,1434.8,1073.1z"/>
				</g>
				<g>
					<path fill="#231F20" d="M1412.2,1079.7c0,0,0.3,0.6,0.7,1.5c0.4,1,0.9,2.4,1.3,4c0.4,1.7,0.7,3.6,0.9,5.7
						c0.2,2.1,0.2,4.2,0.1,6.4c-0.1,2.2-0.4,4.4-0.8,6.4c-0.4,2-1,3.9-1.6,5.5c-0.6,1.6-1.2,2.9-1.7,3.9c-0.5,0.9-0.9,1.5-0.9,1.5
						s-0.3-0.6-0.7-1.5c-0.4-1-0.9-2.4-1.3-4c-0.4-1.7-0.7-3.6-0.9-5.7c-0.2-2.1-0.2-4.2-0.1-6.4c0.1-2.2,0.4-4.4,0.8-6.4
						c0.4-2,1-3.9,1.6-5.5c0.6-1.6,1.2-2.9,1.7-3.9C1411.8,1080.2,1412.2,1079.7,1412.2,1079.7z"/>
				</g>
				<g>
					<path fill="#231F20" d="M1388.3,1083.7c0,0,0.3,0.6,0.7,1.5c0.4,1,0.9,2.4,1.3,4c0.4,1.7,0.7,3.6,0.9,5.7
						c0.2,2.1,0.2,4.2,0.1,6.4c-0.1,2.2-0.4,4.4-0.8,6.4c-0.4,2-1,3.9-1.6,5.5c-0.6,1.6-1.2,2.9-1.7,3.9c-0.5,0.9-0.9,1.5-0.9,1.5
						s-0.3-0.6-0.7-1.5c-0.4-1-0.9-2.4-1.3-4c-0.4-1.7-0.7-3.6-0.9-5.7c-0.2-2.1-0.2-4.2-0.1-6.4c0.1-2.2,0.4-4.4,0.8-6.4
						c0.4-2,1-3.9,1.6-5.5c0.6-1.6,1.2-2.9,1.7-3.9C1387.9,1084.2,1388.3,1083.7,1388.3,1083.7z"/>
				</g>
				<g>
					<path fill="#231F20" d="M1366.7,1084.3c0,0,0.3,0.6,0.7,1.5c0.4,1,0.9,2.4,1.3,4c0.4,1.7,0.7,3.6,0.9,5.7
						c0.2,2.1,0.2,4.2,0.1,6.4c-0.1,2.2-0.4,4.4-0.8,6.4c-0.4,2-1,3.9-1.6,5.5c-0.6,1.6-1.2,2.9-1.7,3.9c-0.5,0.9-0.9,1.5-0.9,1.5
						s-0.3-0.6-0.7-1.5c-0.4-1-0.9-2.4-1.3-4c-0.4-1.7-0.7-3.6-0.9-5.7c-0.2-2.1-0.2-4.2-0.1-6.4c0.1-2.2,0.4-4.4,0.8-6.4
						c0.4-2,1-3.9,1.6-5.5c0.6-1.6,1.2-2.9,1.7-3.9C1366.3,1084.8,1366.7,1084.3,1366.7,1084.3z"/>
				</g>
				<g>
					<path fill="#231F20" d="M1343.8,1084.3c0,0,0.3,0.6,0.7,1.5c0.4,1,0.9,2.4,1.3,4c0.4,1.7,0.7,3.6,0.9,5.7
						c0.2,2.1,0.2,4.2,0.1,6.4c-0.1,2.2-0.4,4.4-0.8,6.4c-0.4,2-1,3.9-1.6,5.5c-0.6,1.6-1.2,2.9-1.7,3.9c-0.5,0.9-0.9,1.5-0.9,1.5
						s-0.3-0.6-0.7-1.5c-0.4-1-0.9-2.4-1.3-4c-0.4-1.7-0.7-3.6-0.9-5.7c-0.2-2.1-0.2-4.2-0.1-6.4c0.1-2.2,0.4-4.4,0.8-6.4
						c0.4-2,1-3.9,1.6-5.5c0.6-1.6,1.2-2.9,1.7-3.9C1343.4,1084.8,1343.8,1084.3,1343.8,1084.3z"/>
				</g>
				<path fill="#FFFFFF" stroke="#000000" stroke-width="4" stroke-miterlimit="10" d="M1608.7,1318.3l24.3,38.4l-52.6,20.2
					c0,0,6.1-32.4-2-52.6C1578.3,1324.4,1598.5,1302.2,1608.7,1318.3z"/>
				<path fill="#FFFFFF" stroke="#000000" stroke-width="4" stroke-miterlimit="10" d="M1578.3,1324.4c0,0-18.2-22.2-30.3,0
					l-2.2,60.7l43.7-10.1C1589.5,1374.9,1582.4,1354.7,1578.3,1324.4z"/>
				<path fill="#FFFFFF" stroke="#000000" stroke-width="4" stroke-miterlimit="10" d="M1545.8,1385l-50.4-8.1l10.1-40.4
					c0,0-6.1-34.4,42.5-12.1L1545.8,1385z"/>
				<path fill="#FFFFFF" stroke="#000000" stroke-width="4" stroke-miterlimit="10" d="M1495.5,1376.9l-46.5-16.2l12.1-46.5
					c0,0,22.2-18.2,46.5,6.1L1495.5,1376.9z"/>
				<path fill="#FFFFFF" stroke="#000000" stroke-width="4" stroke-miterlimit="10" d="M1407.1,1344.7l41.8,16.1l8.1-30.9
					c0,0,9.2-33.6-34.3-27.8L1407.1,1344.7z"/>
				<path fill="#FFFFFF" stroke="#000000" stroke-width="4" stroke-miterlimit="10" d="M1407.1,1344.7l-33-13.6
					c0,0,10.1-41.1,48.5-29L1407.1,1344.7z"/>
				<polyline fill="#FFFFFF" stroke="#000000" stroke-width="4" stroke-miterlimit="10" points="1608.7,1453.8 1617.8,1420.5
					1567.6,1420.5 1562.2,1447.7 1585.4,1474 1608.7,1453.8 				"/>
				<polygon fill="#FFFFFF" stroke="#000000" stroke-width="4" stroke-miterlimit="10" points="1567.6,1420.5 1529.4,1418.5
					1525.8,1439.6 1545.8,1469.7 1562.2,1447.7 				"/>
				<polyline fill="#FFFFFF" stroke="#000000" stroke-width="4" stroke-miterlimit="10" points="1506.6,1453.8 1525.8,1439.6
					1529.4,1418.5 1495.5,1412.5 1495.5,1433.5 1506.6,1453.8 				"/>
				<polygon fill="#FFFFFF" stroke="#000000" stroke-width="4" stroke-miterlimit="10" points="1465.6,1405.8 1460.1,1422.4
					1478.3,1444.2 1495.5,1433.5 1495.5,1412.5 				"/>
				<polygon fill="#FFFFFF" stroke="#000000" stroke-width="4" stroke-miterlimit="10" points="1428.7,1394.7 1428.7,1409.3
					1440.4,1429.7 1460.1,1422.4 1465.6,1405.8 				"/>
				<polygon fill="#FFFFFF" stroke="#000000" stroke-width="4" stroke-miterlimit="10" points="1401,1433.1 1423.6,1418.5
					1428.7,1394.7 1381.3,1385 1381.4,1409.3 				"/>
				<path fill="#FFFFFF" stroke="#000000" stroke-width="4" stroke-miterlimit="10" d="M1381.3,1385l-38.5-24.3l0,0l6.2,46.8
					c0,0,18,21.3,25.2,5C1374.1,1412.5,1380.9,1405.8,1381.3,1385z"/>
				<path d="M1675.4,1108h9.8l-2,44.5l-19.3,25.6c0,0-14.2,17.5-6.7,33c0,0-22.2,39.1-35.7,6.1l-3.6-9.4v-16.8
					c0,0,0.9-17.2,15.1-31.2L1675.4,1108z"/>
				<line fill="none" stroke="#000000" stroke-width="4" stroke-miterlimit="10" x1="1629.7" y1="1101.2" x2="1651.5" y2="1073.1"/>
				<line fill="none" stroke="#000000" stroke-width="4" stroke-miterlimit="10" x1="1617.8" y1="1118.7" x2="1666.4" y2="1087.1"/>
				<line fill="none" stroke="#000000" stroke-width="4" stroke-miterlimit="10" x1="1617.8" y1="1144.5" x2="1644" y2="1130.3"/>
				<line fill="none" stroke="#000000" stroke-width="4" stroke-miterlimit="10" x1="1617.8" y1="1130.3" x2="1658.8" y2="1108"/>

					<line fill="none" stroke="#000000" stroke-width="4" stroke-linecap="round" stroke-linejoin="round" stroke-miterlimit="10" x1="1613.7" y1="1500.8" x2="1495.5" y2="1500.8"/>

					<line fill="none" stroke="#000000" stroke-width="4" stroke-linecap="round" stroke-linejoin="round" stroke-miterlimit="10" x1="1616" y1="1519.1" x2="1529.4" y2="1519.1"/>

					<line fill="none" stroke="#000000" stroke-width="4" stroke-linecap="round" stroke-linejoin="round" stroke-miterlimit="10" x1="1617.8" y1="1537.9" x2="1554.6" y2="1537.9"/>

					<line fill="none" stroke="#000000" stroke-width="4" stroke-linecap="round" stroke-linejoin="round" stroke-miterlimit="10" x1="1619.8" y1="1555.9" x2="1578.3" y2="1555.9"/>

					<line fill="none" stroke="#000000" stroke-width="4" stroke-linecap="round" stroke-linejoin="round" stroke-miterlimit="10" x1="1622.8" y1="1573.1" x2="1590" y2="1573.1"/>
				<path d="M1364.3,1447.5c0,0,13.4,58.7,32.7,70.8l48.8,31c0,0,3.8,20.6-9.6-40.8l-3.8-52.8L1364.3,1447.5z"/>
				<g>
					<path d="M1349.6,1508.4c0,0,1.9,1.2,5.3,3.4c3.3,2.2,8.1,5.3,13.9,8.9c2.9,1.8,6,3.8,9.3,5.8c3.3,2,6.8,4.2,10.5,6.3
						c7.3,4.3,15.1,8.8,23.1,13.1c4,2.1,8,4.2,11.9,6.2c4,2,7.9,3.9,11.8,5.6c1.9,0.9,3.8,1.7,5.7,2.5c1.9,0.8,3.7,1.6,5.5,2.3
						c1.8,0.7,3.5,1.5,5.2,2.1c1.7,0.6,3.3,1.3,4.9,1.9c1.6,0.6,3.1,1.1,4.6,1.6c1.5,0.5,2.9,0.9,4.2,1.4c1.3,0.5,2.6,0.8,3.7,1.1
						c1.1,0.3,2.2,0.7,3.2,1c3.8,1,6,1.7,6,1.7s-0.6,0-1.6-0.1c-1.1-0.1-2.6-0.2-4.6-0.4c-2-0.3-4.4-0.5-7.2-1
						c-1.4-0.3-2.8-0.5-4.4-0.8c-1.5-0.4-3.1-0.7-4.8-1.1c-3.3-0.8-7-1.8-10.7-3c-1.9-0.6-3.8-1.3-5.8-1.9c-2-0.7-3.9-1.4-5.9-2.2
						c-2-0.8-4-1.6-6.1-2.5c-2.1-0.8-4.1-1.8-6.1-2.7c-4.1-1.9-8.2-4-12.3-6.1c-4-2.2-8-4.4-11.9-6.8c-1.9-1.2-3.8-2.3-5.7-3.5
						c-1.9-1.2-3.7-2.4-5.5-3.6c-3.6-2.4-7-4.8-10.1-7.1c-3.2-2.3-6.1-4.6-8.8-6.7c-2.7-2.1-5.1-4.2-7.2-6c-2.1-1.8-3.9-3.4-5.4-4.8
						C1351.2,1510.1,1349.6,1508.4,1349.6,1508.4z"/>
				</g>

					<path fill="none" stroke="#231F20" stroke-width="4" stroke-linecap="round" stroke-linejoin="round" stroke-miterlimit="10" d="
					M1605.6,908.2c0,0,20.2,43.7-15.6,118c0,0-24.9,78.7-68.3,46.9c0,0-42.5-33.3-26.3-72.7
					C1495.5,1000.4,1543.4,887.2,1605.6,908.2z"/>
				<path fill="#231F20" d="M1495.5,1000.4c0,0,47.8-22.9,72.2-89.5c0,0,19.2-18.5,43.7,0c0,0-37,92.8-25.1,125.3
					c0,0-21.1,62.6-64.5,36.9C1521.7,1073.1,1478.3,1033,1495.5,1000.4z"/>
				<g>
					<path fill="#FFFFFF" d="M1572.7,1047.4c0,0-0.1-0.8-0.3-2.3c-0.2-1.5-0.4-3.6-0.6-6.1c-0.1-1.3-0.2-2.6-0.3-4.1
						c-0.1-1.5-0.2-3-0.2-4.6c0-1.6-0.1-3.2-0.1-4.9c0-1.7,0-3.4-0.1-5.1c0-1.7,0-3.4,0-5.1c0-1.7,0.1-3.3,0.1-4.9
						c0.1-3.2,0.3-6.1,0.5-8.7c0.2-2.5,0.4-4.7,0.6-6.1c0.2-1.5,0.3-2.3,0.3-2.3s0.1,0.8,0.3,2.3c0.2,1.5,0.4,3.6,0.6,6.1
						c0.2,2.5,0.4,5.5,0.5,8.7c0,1.6,0.1,3.2,0.1,4.9c0,1.7,0,3.4,0,5.1c0,1.7,0,3.4-0.1,5.1c0,1.7-0.1,3.3-0.1,4.9
						c0,1.6-0.1,3.1-0.2,4.6c-0.1,1.5-0.2,2.8-0.3,4.1c-0.2,2.5-0.4,4.7-0.6,6.1C1572.8,1046.5,1572.7,1047.4,1572.7,1047.4z"/>
				</g>
				<g>
					<path fill="#FFFFFF" d="M1562.2,1061.5c0,0-0.1-0.8-0.3-2.3c-0.2-1.5-0.4-3.6-0.6-6.1c-0.1-1.3-0.2-2.6-0.3-4.1
						c-0.1-1.5-0.2-3-0.2-4.6c0-1.6-0.1-3.2-0.1-4.9c0-1.7,0-3.4-0.1-5.1c0-1.7,0-3.4,0-5.1c0-1.7,0.1-3.3,0.1-4.9
						c0.1-3.2,0.3-6.1,0.5-8.7c0.2-2.5,0.4-4.7,0.6-6.1c0.2-1.5,0.3-2.3,0.3-2.3s0.1,0.8,0.3,2.3c0.2,1.5,0.4,3.6,0.6,6.1
						c0.2,2.5,0.4,5.5,0.5,8.7c0,1.6,0.1,3.2,0.1,4.9c0,1.7,0,3.4,0,5.1c0,1.7,0,3.4-0.1,5.1c0,1.7-0.1,3.3-0.1,4.9
						c0,1.6-0.1,3.1-0.2,4.6c-0.1,1.5-0.2,2.8-0.3,4.1c-0.2,2.5-0.4,4.7-0.6,6.1C1562.3,1060.7,1562.2,1061.5,1562.2,1061.5z"/>
				</g>
				<g>
					<path fill="#FFFFFF" d="M1551.4,1074.5c0,0-0.1-0.8-0.3-2.3c-0.2-1.5-0.4-3.6-0.6-6.1c-0.1-1.3-0.2-2.6-0.3-4.1
						c-0.1-1.5-0.2-3-0.2-4.6c0-1.6-0.1-3.2-0.1-4.9c0-1.7,0-3.4-0.1-5.1c0-1.7,0-3.4,0-5.1c0-1.7,0.1-3.3,0.1-4.9
						c0.1-3.2,0.3-6.1,0.5-8.7c0.2-2.5,0.4-4.7,0.6-6.1c0.2-1.5,0.3-2.3,0.3-2.3s0.1,0.8,0.3,2.3c0.2,1.5,0.4,3.6,0.6,6.1
						c0.2,2.5,0.4,5.5,0.5,8.7c0,1.6,0.1,3.2,0.1,4.9c0,1.7,0,3.4,0,5.1c0,1.7,0,3.4-0.1,5.1c0,1.7-0.1,3.3-0.1,4.9
						c0,1.6-0.1,3.1-0.2,4.6c-0.1,1.5-0.2,2.8-0.3,4.1c-0.2,2.5-0.4,4.7-0.6,6.1C1551.5,1073.6,1551.4,1074.5,1551.4,1074.5z"/>
				</g>
				<g>
					<path fill="#FFFFFF" d="M1538.9,1074.5c0,0-0.1-0.8-0.3-2.3c-0.2-1.5-0.4-3.6-0.6-6.1c-0.1-1.3-0.2-2.6-0.3-4.1
						c-0.1-1.5-0.2-3-0.2-4.6c0-1.6-0.1-3.2-0.1-4.9c0-1.7,0-3.4-0.1-5.1c0-1.7,0-3.4,0-5.1c0-1.7,0.1-3.3,0.1-4.9
						c0.1-3.2,0.3-6.1,0.5-8.7c0.2-2.5,0.4-4.7,0.6-6.1c0.2-1.5,0.3-2.3,0.3-2.3s0.1,0.8,0.3,2.3c0.2,1.5,0.4,3.6,0.6,6.1
						c0.2,2.5,0.4,5.5,0.5,8.7c0,1.6,0.1,3.2,0.1,4.9c0,1.7,0,3.4,0,5.1c0,1.7,0,3.4-0.1,5.1c0,1.7-0.1,3.3-0.1,4.9
						c0,1.6-0.1,3.1-0.2,4.6c-0.1,1.5-0.2,2.8-0.3,4.1c-0.2,2.5-0.4,4.7-0.6,6.1C1539.1,1073.6,1538.9,1074.5,1538.9,1074.5z"/>
				</g>
				<g>
					<path fill="#FFFFFF" d="M1525.8,1061.5c0,0-0.1-0.8-0.3-2.3c-0.2-1.5-0.4-3.6-0.6-6.1c-0.1-1.3-0.2-2.6-0.3-4.1
						c-0.1-1.5-0.2-3-0.2-4.6c0-1.6-0.1-3.2-0.1-4.9c0-1.7,0-3.4-0.1-5.1c0-1.7,0-3.4,0-5.1c0-1.7,0.1-3.3,0.1-4.9
						c0.1-3.2,0.3-6.1,0.5-8.7c0.2-2.5,0.4-4.7,0.6-6.1c0.2-1.5,0.3-2.3,0.3-2.3s0.1,0.8,0.3,2.3c0.2,1.5,0.4,3.6,0.6,6.1
						c0.2,2.5,0.4,5.5,0.5,8.7c0,1.6,0.1,3.2,0.1,4.9c0,1.7,0,3.4,0,5.1c0,1.7,0,3.4-0.1,5.1c0,1.7-0.1,3.3-0.1,4.9
						c0,1.6-0.1,3.1-0.2,4.6c-0.1,1.5-0.2,2.8-0.3,4.1c-0.2,2.5-0.4,4.7-0.6,6.1C1525.9,1060.7,1525.8,1061.5,1525.8,1061.5z"/>
				</g>
				<g>
					<path fill="#FFFFFF" d="M1512.4,1051.4c0,0-0.1-0.8-0.3-2.3c-0.2-1.5-0.4-3.6-0.6-6.1c-0.1-1.3-0.2-2.6-0.3-4.1
						c-0.1-1.5-0.2-3-0.2-4.6c0-1.6-0.1-3.2-0.1-4.9c0-1.7,0-3.4-0.1-5.1c0-1.7,0-3.4,0-5.1c0-1.7,0.1-3.3,0.1-4.9
						c0.1-3.2,0.3-6.1,0.5-8.7c0.2-2.5,0.4-4.7,0.6-6.1c0.2-1.5,0.3-2.3,0.3-2.3s0.1,0.8,0.3,2.3c0.2,1.5,0.4,3.6,0.6,6.1
						c0.2,2.5,0.4,5.5,0.5,8.7c0,1.6,0.1,3.2,0.1,4.9c0,1.7,0,3.4,0,5.1c0,1.7,0,3.4-0.1,5.1c0,1.7-0.1,3.3-0.1,4.9
						c0,1.6-0.1,3.1-0.2,4.6c-0.1,1.5-0.2,2.8-0.3,4.1c-0.2,2.5-0.4,4.7-0.6,6.1C1512.6,1050.5,1512.4,1051.4,1512.4,1051.4z"/>
				</g>
				<g>
					<path fill="#FFFFFF" d="M1500.5,1011c0,0,0.1,0.4,0.3,1c0.2,0.6,0.4,1.6,0.6,2.7c0.4,2.2,0.6,5.1,0.6,8.1
						c0,2.9-0.2,5.9-0.6,8.1c-0.2,1.1-0.4,2-0.6,2.7c-0.2,0.6-0.3,1-0.3,1s-0.1-0.4-0.3-1c-0.2-0.6-0.4-1.6-0.6-2.7
						c-0.4-2.2-0.6-5.1-0.6-8.1c0-2.9,0.3-5.9,0.6-8.1c0.2-1.1,0.4-2,0.6-2.7C1500.4,1011.3,1500.5,1011,1500.5,1011z"/>
				</g>
				<g>
					<path d="M1614.5,853.8c0,0-3.8-7.2-9.5-17.9c-2.8-5.3-6.2-11.5-9.9-18.1c-1.8-3.3-3.8-6.6-5.8-10c-2-3.4-4.1-6.8-6.2-10.1
						c-2.1-3.4-4.4-6.6-6.6-9.8c-2.3-3.2-4.6-6.2-6.9-9.1c-4.7-5.7-9.5-10.6-14.2-14.1c-2.3-1.8-4.6-3.2-6.7-4.3
						c-2.1-1.1-4.1-1.9-5.7-2.4c-1.7-0.5-3-0.8-4-1c-0.9-0.2-1.4-0.3-1.4-0.3s0.5-0.1,1.5-0.1c0.5-0.1,1.1-0.1,1.8-0.1
						c0.7,0,1.5,0,2.4,0.1c1.8,0.2,4,0.5,6.5,1.3c2.5,0.8,5.1,1.9,7.9,3.4c2.8,1.5,5.6,3.4,8.4,5.7c2.8,2.3,5.6,4.8,8.3,7.7
						c2.7,2.8,5.3,5.9,7.7,9.1c2.5,3.2,4.8,6.6,7.1,10.1c2.2,3.5,4.3,7,6.2,10.5c1.9,3.5,3.7,7.1,5.4,10.5c3.3,6.9,6,13.5,8.1,19.3
						c2.1,5.8,3.5,10.6,4.5,14.1c0.5,1.7,0.8,3.1,1,4C1614.4,853.3,1614.5,853.8,1614.5,853.8z"/>
				</g>
				<g>
					<path d="M1597.8,862.8c0,0-3.8-7.2-9.5-17.9c-2.8-5.3-6.2-11.5-9.9-18.1c-1.8-3.3-3.8-6.6-5.8-10c-2-3.4-4.1-6.8-6.2-10.1
						c-2.1-3.4-4.4-6.6-6.6-9.8c-2.3-3.2-4.6-6.2-6.9-9.1c-4.7-5.7-9.5-10.6-14.2-14.1c-2.3-1.8-4.6-3.2-6.7-4.3
						c-2.1-1.1-4.1-1.9-5.7-2.4c-1.7-0.5-3-0.8-4-1c-0.9-0.2-1.4-0.3-1.4-0.3s0.5-0.1,1.5-0.1c0.5-0.1,1.1-0.1,1.8-0.1
						c0.7,0,1.5,0,2.4,0.1c1.8,0.2,4,0.5,6.5,1.3c2.5,0.8,5.1,1.9,7.9,3.4c2.8,1.5,5.6,3.4,8.4,5.7c2.8,2.3,5.6,4.8,8.3,7.7
						c2.7,2.8,5.3,5.9,7.7,9.1c2.5,3.2,4.8,6.6,7.1,10.1c2.2,3.5,4.3,7,6.2,10.5c1.9,3.5,3.7,7.1,5.4,10.5c3.3,6.9,6,13.5,8.1,19.3
						c2.1,5.8,3.5,10.6,4.5,14.1c0.5,1.7,0.8,3.1,1,4C1597.7,862.3,1597.8,862.8,1597.8,862.8z"/>
				</g>
				<line fill="none" stroke="#000000" stroke-width="5" stroke-miterlimit="10" x1="1589.5" y1="1137.4" x2="1597.8" y2="1073.1"/>
				<line fill="none" stroke="#000000" stroke-width="5" stroke-miterlimit="10" x1="1621.6" y1="1048.6" x2="1596.6" y2="1074.4"/>
				<g>
					<path fill="#FFFFFF" d="M1498.6,900.7c0,0-0.5,0.5-1.3,1.5c-0.9,1-2.1,2.5-3.8,4.3c-3.3,3.7-8,8.9-13.8,15.1
						c-2.9,3.1-6,6.5-9.3,10c-3.3,3.5-6.8,7.2-10.5,11c-3.7,3.8-7.5,7.7-11.4,11.7c-3.9,3.9-7.9,7.9-11.8,12c-4,4-8,7.9-12,11.8
						c-3.9,3.9-7.9,7.7-11.7,11.4c-3.8,3.7-7.5,7.2-11,10.5c-3.5,3.3-6.9,6.5-10,9.3c-6.2,5.8-11.4,10.5-15.1,13.8
						c-1.8,1.7-3.3,2.9-4.3,3.8c-1,0.9-1.5,1.3-1.5,1.3s0.5-0.5,1.3-1.5c0.9-1,2.1-2.5,3.8-4.3c3.3-3.7,8-8.9,13.8-15.1
						c2.9-3.1,6-6.5,9.3-10c3.3-3.5,6.8-7.2,10.5-11c3.7-3.8,7.4-7.7,11.4-11.7c3.9-3.9,7.9-7.9,11.8-12c4-4,8-7.9,12-11.8
						c3.9-3.9,7.9-7.7,11.7-11.4c3.8-3.7,7.5-7.2,11-10.5c3.5-3.3,6.9-6.5,10-9.3c6.2-5.8,11.4-10.5,15.1-13.8
						c1.8-1.7,3.3-2.9,4.3-3.8C1498,901.1,1498.6,900.7,1498.6,900.7z"/>
				</g>
				<g>
					<path fill="#FFFFFF" d="M1507.6,856.6c0,0-0.7,0.8-2,2.2c-1.3,1.4-3.2,3.5-5.6,6.1c-4.9,5.3-11.8,12.7-20.3,21.6
						c-4.2,4.4-8.8,9.3-13.7,14.3c-4.9,5.1-10,10.4-15.4,15.9c-5.4,5.5-10.9,11.2-16.6,16.9c-5.7,5.7-11.4,11.5-17.2,17.3
						c-5.8,5.8-11.6,11.5-17.3,17.2c-5.7,5.7-11.4,11.2-16.9,16.6c-5.5,5.4-10.8,10.5-15.9,15.4c-5,4.9-9.9,9.5-14.3,13.7
						c-8.9,8.5-16.4,15.4-21.6,20.3c-2.6,2.4-4.7,4.3-6.1,5.6c-1.4,1.3-2.2,2-2.2,2s0.7-0.8,2-2.2c1.3-1.4,3.2-3.5,5.6-6.1
						c4.9-5.3,11.8-12.8,20.3-21.6c4.2-4.5,8.8-9.3,13.7-14.3c4.9-5.1,10-10.4,15.4-15.9c5.4-5.5,10.9-11.2,16.6-16.9
						c5.7-5.7,11.4-11.5,17.2-17.3c5.8-5.8,11.6-11.5,17.3-17.2c5.7-5.7,11.4-11.2,16.9-16.6c5.5-5.4,10.8-10.5,15.9-15.4
						c5-4.9,9.9-9.5,14.3-13.7c8.9-8.5,16.4-15.4,21.6-20.3c2.6-2.4,4.7-4.3,6.1-5.6C1506.8,857.3,1507.6,856.6,1507.6,856.6z"/>
				</g>
				<g>
					<path fill="#FFFFFF" d="M1498.5,829.2c0,0-0.8,0.8-2.2,2.4c-1.5,1.6-3.6,3.9-6.3,6.9c-5.5,5.9-13.4,14.3-22.9,24.2
						c-4.8,5-9.9,10.4-15.4,16c-5.5,5.7-11.3,11.7-17.3,17.8c-6,6.1-12.2,12.5-18.6,18.9c-6.4,6.4-12.9,12.9-19.3,19.5
						c-6.5,6.5-13,13-19.4,19.3c-6.4,6.4-12.8,12.6-18.9,18.6c-6.1,6-12.1,11.8-17.8,17.3c-5.7,5.5-11.1,10.7-16,15.4
						c-10,9.5-18.3,17.4-24.2,22.9c-3,2.7-5.3,4.9-6.9,6.3c-1.6,1.5-2.4,2.2-2.4,2.2s0.8-0.8,2.2-2.4c1.5-1.6,3.6-3.9,6.3-6.9
						c5.5-5.9,13.4-14.3,22.9-24.2c4.8-5,9.9-10.4,15.4-16c5.5-5.7,11.3-11.7,17.3-17.8c6-6.1,12.2-12.5,18.6-18.9
						c6.4-6.4,12.9-12.9,19.3-19.4c6.5-6.5,13-13,19.5-19.3c6.4-6.4,12.8-12.6,18.9-18.6c6.1-6,12.1-11.8,17.8-17.3
						c5.7-5.5,11.1-10.7,16-15.4c10-9.5,18.3-17.4,24.2-22.9c3-2.7,5.3-4.9,6.9-6.3C1497.7,830,1498.5,829.2,1498.5,829.2z"/>
				</g>
				<g>
					<path fill="#FFFFFF" d="M1491.6,797.7c0,0-3.6,3.9-9.9,10.6c-6.3,6.7-15.4,16.3-26.4,27.7c-5.5,5.7-11.4,11.9-17.7,18.4
						c-6.3,6.5-13,13.4-19.9,20.4c-6.9,7-14.1,14.4-21.4,21.7c-7.3,7.4-14.7,14.8-22.2,22.3c-7.5,7.4-14.9,14.9-22.3,22.2
						c-7.3,7.3-14.7,14.5-21.7,21.4c-7,6.9-13.9,13.6-20.4,19.9c-6.5,6.3-12.7,12.3-18.4,17.7c-11.4,11-21,20-27.7,26.4
						c-6.7,6.3-10.6,9.9-10.6,9.9s3.6-3.9,9.9-10.6c6.3-6.7,15.4-16.3,26.4-27.7c5.5-5.7,11.4-11.9,17.7-18.4
						c6.3-6.5,13-13.4,19.9-20.4c6.9-7,14.1-14.4,21.4-21.7c7.3-7.4,14.7-14.8,22.2-22.3c7.5-7.4,14.9-14.9,22.3-22.2
						c7.3-7.3,14.7-14.4,21.7-21.4c7-6.9,13.9-13.6,20.4-19.9c6.5-6.3,12.7-12.3,18.4-17.7c11.4-11,21-20,27.7-26.4
						C1487.8,801.3,1491.6,797.7,1491.6,797.7z"/>
				</g>
				<g>
					<path fill="#FFFFFF" d="M1412.4,803.3c0,0-0.6,0.7-1.8,2c-1.2,1.3-2.8,3.2-5,5.6c-2.2,2.4-4.8,5.3-7.9,8.6
						c-3.1,3.3-6.5,7.1-10.3,11.1c-3.8,4.1-7.9,8.5-12.3,13c-4.4,4.6-9,9.5-13.9,14.4c-4.9,5-9.8,10.2-15,15.3
						c-5.1,5.2-10.3,10.4-15.6,15.7c-5.3,5.2-10.5,10.4-15.7,15.6c-5.2,5.1-10.4,10.1-15.3,14.9c-5,4.9-9.8,9.5-14.4,13.9
						c-4.6,4.4-9,8.5-13,12.3c-4,3.8-7.8,7.3-11.1,10.3c-3.3,3.1-6.2,5.7-8.7,7.9c-2.4,2.2-4.3,3.9-5.6,5c-1.3,1.1-2,1.8-2,1.8
						s0.6-0.7,1.8-2c1.2-1.3,2.8-3.2,5-5.6c2.2-2.4,4.8-5.3,7.9-8.7c3.1-3.3,6.5-7.1,10.3-11.1c3.8-4.1,7.9-8.5,12.3-13
						c4.4-4.6,9-9.5,13.9-14.4c4.8-5,9.8-10.1,14.9-15.3c5.1-5.2,10.3-10.4,15.6-15.7c5.3-5.2,10.5-10.4,15.7-15.6
						c5.2-5.1,10.4-10.1,15.3-15c5-4.9,9.8-9.5,14.4-13.9c4.6-4.4,9-8.5,13-12.3c4-3.8,7.8-7.3,11.1-10.3c3.3-3.1,6.2-5.7,8.7-7.9
						c2.4-2.2,4.3-3.9,5.6-5C1411.7,804,1412.4,803.3,1412.4,803.3z"/>
				</g>
				<g>
					<path fill="#FFFFFF" d="M1460.1,794.5c0,0-3.3,3.6-9.1,9.8c-5.8,6.2-14.2,15.1-24.3,25.6c-5.1,5.3-10.5,11-16.4,17
						c-5.8,6-12,12.4-18.4,18.9c-6.4,6.5-13,13.3-19.8,20.1c-6.8,6.8-13.6,13.7-20.5,20.6c-6.9,6.9-13.8,13.7-20.6,20.5
						c-6.8,6.8-13.6,13.4-20.1,19.8c-6.5,6.4-12.9,12.6-18.9,18.4c-6,5.8-11.7,11.3-17,16.4c-10.5,10.1-19.4,18.5-25.6,24.3
						c-6.3,5.8-9.8,9.1-9.8,9.1s3.3-3.6,9.1-9.8c5.8-6.2,14.2-15.1,24.3-25.6c5.1-5.3,10.5-11,16.4-17c5.8-6,12-12.4,18.4-18.9
						c6.4-6.5,13-13.3,19.8-20.1c6.8-6.8,13.6-13.7,20.5-20.6c6.9-6.9,13.8-13.7,20.6-20.5c6.8-6.8,13.6-13.4,20.1-19.8
						c6.5-6.4,12.9-12.6,18.9-18.4c6-5.8,11.7-11.3,17-16.4c10.5-10.1,19.4-18.5,25.6-24.3C1456.6,797.8,1460.1,794.5,1460.1,794.5z
						"/>
				</g>
				<g>
					<path fill="#FFFFFF" d="M1250.8,927.7c0,0,0.4-0.5,1.1-1.4c0.8-0.9,1.8-2.2,3.3-3.9c1.4-1.6,3.1-3.7,5.2-5.9
						c2-2.3,4.3-4.8,6.8-7.6c2.5-2.8,5.2-5.8,8.1-8.9c2.9-3.1,6-6.4,9.2-9.8c3.2-3.3,6.5-6.9,10-10.3c3.4-3.5,6.9-7,10.4-10.5
						c3.5-3.5,7-7,10.5-10.4c3.5-3.4,7-6.7,10.3-10c3.3-3.2,6.6-6.3,9.8-9.2c3.1-2.9,6.1-5.6,8.9-8.1c2.7-2.5,5.3-4.8,7.6-6.8
						c2.3-2,4.3-3.7,5.9-5.1c1.6-1.4,3-2.5,3.9-3.3c0.9-0.7,1.4-1.1,1.4-1.1s-0.4,0.5-1.1,1.4c-0.8,0.9-1.8,2.2-3.3,3.9
						c-1.4,1.7-3.1,3.7-5.1,5.9c-2,2.3-4.3,4.8-6.8,7.6c-2.5,2.8-5.2,5.8-8.1,8.9c-2.9,3.1-6,6.4-9.2,9.8c-3.2,3.3-6.5,6.9-10,10.3
						c-3.4,3.5-6.9,7-10.4,10.5c-3.5,3.5-7.1,7-10.5,10.4c-3.5,3.4-7,6.7-10.3,10c-3.3,3.2-6.7,6.3-9.8,9.2
						c-3.1,2.9-6.1,5.6-8.9,8.1c-2.7,2.5-5.3,4.8-7.6,6.8c-2.3,2-4.3,3.7-5.9,5.2c-1.6,1.4-3,2.5-3.9,3.3
						C1251.3,927.3,1250.8,927.7,1250.8,927.7z"/>
				</g>
				<g>
					<path fill="#FFFFFF" d="M1383,1469.1c0,0,0.6,0.6,1.5,1.7c0.9,1.1,2.2,2.6,3.7,4.5c3,3.8,6.6,9.1,9.9,14.5
						c3.3,5.4,6.4,11.1,8.4,15.4c1,2.2,1.8,4,2.4,5.3c0.5,1.3,0.8,2.1,0.8,2.1s-0.6-0.6-1.5-1.7c-0.9-1.1-2.2-2.6-3.7-4.5
						c-3-3.8-6.6-9.1-9.9-14.5c-3.3-5.4-6.4-11.1-8.4-15.4c-1-2.2-1.8-4-2.4-5.3C1383.3,1469.9,1383,1469.1,1383,1469.1z"/>
				</g>
				<g>
					<path fill="#FFFFFF" d="M1400.5,1471.5c0,0,0.4,0.3,1,1c0.6,0.6,1.4,1.6,2.3,2.7c1.8,2.3,4,5.6,5.8,9c1.8,3.4,3.4,7,4.3,9.8
						c0.5,1.4,0.8,2.6,1,3.5c0.2,0.9,0.3,1.4,0.3,1.4s-0.4-0.3-1-1c-0.6-0.6-1.4-1.6-2.3-2.7c-1.8-2.3-4-5.6-5.8-9
						c-1.8-3.4-3.4-7-4.3-9.8c-0.5-1.4-0.8-2.6-1-3.5C1400.6,1472,1400.5,1471.5,1400.5,1471.5z"/>
				</g>
				<g>
					<path fill="#FFFFFF" d="M1414.5,1469.7c0,0,0.3,0.2,0.7,0.5c0.4,0.3,1,0.8,1.6,1.4c1.2,1.2,2.6,3,3.6,4.9c1,1.9,1.8,4,2.1,5.7
						c0.2,0.8,0.3,1.6,0.3,2.1c0,0.5,0,0.9,0,0.9s-0.3-0.2-0.7-0.5c-0.4-0.3-1-0.8-1.6-1.4c-1.2-1.2-2.6-3-3.6-4.9
						c-1-1.9-1.8-4-2.1-5.7c-0.2-0.8-0.3-1.6-0.3-2.1C1414.5,1470,1414.5,1469.7,1414.5,1469.7z"/>
				</g>
				<line fill="none" stroke="#000000" stroke-width="3" stroke-miterlimit="10" x1="1540.3" y1="1213.4" x2="1540.3" y2="1165.9"/>
				<line fill="none" stroke="#000000" stroke-width="3" stroke-miterlimit="10" x1="1529.4" y1="1221.8" x2="1529.4" y2="1174.3"/>
				<line fill="none" stroke="#000000" stroke-width="3" stroke-miterlimit="10" x1="1518.4" y1="1232.6" x2="1518.4" y2="1185.1"/>
				<line fill="none" stroke="#000000" stroke-width="3" stroke-miterlimit="10" x1="1507.6" y1="1242.1" x2="1507.6" y2="1194.5"/>
				<line fill="none" stroke="#000000" stroke-width="3" stroke-miterlimit="10" x1="1496.5" y1="1251.8" x2="1496.5" y2="1204.2"/>
				<line fill="none" stroke="#000000" stroke-width="3" stroke-miterlimit="10" x1="1484.6" y1="1243.1" x2="1484.6" y2="1195.5"/>
				<line fill="none" stroke="#000000" stroke-width="3" stroke-miterlimit="10" x1="1472.3" y1="1237.2" x2="1472.3" y2="1189.6"/>
				<line fill="none" stroke="#000000" stroke-width="3" stroke-miterlimit="10" x1="1460.1" y1="1228.2" x2="1460.1" y2="1204.4"/>
				<line fill="none" stroke="#000000" stroke-width="3" stroke-miterlimit="10" x1="1550.4" y1="1203.2" x2="1550.4" y2="1173.3"/>
				<line fill="none" stroke="#000000" stroke-width="3" stroke-miterlimit="10" x1="1560.8" y1="1193.2" x2="1560.8" y2="1181.8"/>
				<path fill="none" stroke="#000000" stroke-width="4" stroke-miterlimit="10" d="M1632.9,1073.1v24l-15.1,18.6v40.9l-12.2,44.4
					c-7.7,55,31.3,44.5,31.3,44.5c16.1-0.6,20.2-34.4,20.2-34.4c-4.6-30.4,19.6-48,19.6-48l5-14.3l1.5-11.1"/>
			</g>
		</g>
	</g>
</g>
<g id="hat">
	<g>
		<g>
			<polygon points="868,902.7 810.5,801.9 851.1,743.3 949.1,763.1 			"/>
			<polygon points="824.2,870.5 766.7,769.8 807.3,711.1 905.3,730.9 			"/>
			<polygon points="778,839.4 720.5,738.6 761.1,680 859.1,699.8 			"/>
			<polygon points="729.7,810.5 672.3,709.7 712.9,651.1 810.8,670.9 			"/>
		</g>
		<g>
			<polygon points="944.9,770.2 911.1,659.2 963.7,611 1054.8,651.9 			"/>
			<polygon points="909.3,729.1 875.5,618.2 928,569.9 1019.2,610.8 			"/>
			<polygon points="871.1,688.6 837.3,577.6 889.8,529.4 981,570.3 			"/>
			<polygon points="830.4,649.7 796.7,538.8 849.2,490.5 940.4,531.5 			"/>
		</g>
		<g>
			<polygon points="1055.4,651.6 1036.9,537.1 1095.5,496.4 1180.3,549.3 			"/>
			<polygon points="1025.6,606.1 1007.2,491.6 1065.8,450.9 1150.6,503.8 			"/>
			<polygon points="993.3,560.7 974.9,446.2 1033.5,405.5 1118.3,458.4 			"/>
			<polygon points="958.3,516.7 939.9,402.2 998.5,361.5 1083.2,414.4 			"/>
		</g>
		<g>
			<polygon points="1181.4,550.2 1183.5,434.2 1248.4,404.5 1322.5,471.6 			"/>
			<polygon points="1160.2,500.1 1162.3,384.1 1227.2,354.5 1301.3,421.6 			"/>
			<polygon points="1136.4,449.7 1138.5,333.8 1203.4,304.1 1277.5,371.2 			"/>
			<polygon points="1109.7,400.3 1111.8,284.3 1176.7,254.6 1250.8,321.7 			"/>
		</g>
		<g>
			<polygon points="1292.4,477.5 1354.3,379.5 1425.2,387.8 1453.7,483.5 			"/>
			<polygon points="1300.2,423.7 1362.2,325.7 1433,334 1461.6,429.8 			"/>
			<polygon points="1306,368.3 1368,270.3 1438.8,278.6 1467.3,374.4 			"/>
			<polygon points="1308.9,312.2 1370.8,214.2 1441.7,222.4 1470.2,318.2 			"/>
		</g>
		<polygon points="712.9,651.1 634,637.9 672.3,709.7 		"/>
		<polyline points="796.4,538 851.4,492.5 779.1,458.4 		"/>
		<polyline points="941.8,405.4 998.7,362.3 927.9,325.2 		"/>
		<polyline points="1111.8,284.3 1188,265.5 1125,209 		"/>
		<polyline points="1368,218 1441.7,222.4 1413,146 		"/>
		<g>
			<path d="M1129.5,994.8c0,0,167.4-228.5,382.9-267.9c0,0,44.9,10.3,54.2,16.4l-26.4-94.2c0,0-285.5-13.4-441.1,344.1L1129.5,994.8
				z"/>
			<g>
				<path fill="#FFFFFF" d="M1487.9,664.2l20.7-1l7.5,11.3l7.2-12l19.6-1l-15.5,26.7l17.5,25.1l-20.7,1l-7.5-10.5l-6.5,11.2
					l-19.1,0.9l15.3-26.9L1487.9,664.2z"/>
			</g>
			<g>
				<path fill="#FFFFFF" d="M1427.3,677.8l18.6-2.7l7.8,9.5l5.4-11.5l17.6-2.6L1465,696l18,21.1l-18.6,2.7l-7.7-8.8l-4.8,10.7
					l-17.2,2.5l11.4-25.6L1427.3,677.8z"/>
			</g>
			<g>
				<path fill="#FFFFFF" d="M1359.7,702.2l17.4-7l9.8,7.4l2.6-12.4l16.5-6.7l-5.3,27.5l22.5,16.2l-17.4,7l-9.6-6.8l-2.2,11.5
					l-16.1,6.5l5-27.6L1359.7,702.2z"/>
			</g>
			<g>
				<path fill="#FFFFFF" d="M1307,738.2l14-9.9l10.3,4.5l-0.3-11.6l13.3-9.4l1,25.5l23.4,9.7l-14,9.9l-9.9-4l0.5,10.7l-12.9,9.2
					l-1.3-25.6L1307,738.2z"/>
			</g>
			<g>
				<path fill="#FFFFFF" d="M1266.3,769.8l14-9.9l10.3,4.5l-0.3-11.6l13.3-9.4l1,25.5l23.4,9.7l-14,9.9l-9.9-4l0.5,10.7l-12.9,9.2
					l-1.3-25.6L1266.3,769.8z"/>
			</g>
			<g>
				<path fill="#FFFFFF" d="M1228,800.8l13.2-9.4l9.7,4.3l-0.3-10.9l12.5-8.9l1,24.1l22.1,9.1l-13.2,9.4l-9.4-3.8l0.5,10.1
					l-12.2,8.7l-1.2-24.1L1228,800.8z"/>
			</g>
			<g>
				<path fill="#FFFFFF" d="M1195,832.7l11.9-8.4l8.7,3.8l-0.3-9.8l11.3-8l0.9,21.7l19.9,8.2l-11.9,8.4l-8.4-3.4l0.4,9.1l-11,7.8
					l-1.1-21.7L1195,832.7z"/>
			</g>
			<g>
				<path fill="#FFFFFF" d="M1172.3,872.3l7.1-8.8l7.4,1l-2.3-7.3l6.7-8.4l5.3,16l16.6,1.9l-7.1,8.8l-7-0.7l2.2,6.7l-6.6,8.2
					l-5.5-16L1172.3,872.3z"/>
			</g>
			<g>
				<path fill="#FFFFFF" d="M1154.4,897.7l5.6-6.3l5.4,1l-1.4-5.5l5.3-6l3.3,12.1l12.3,2l-5.6,6.3l-5.2-0.8l1.4,5.1l-5.2,5.8
					l-3.5-12.1L1154.4,897.7z"/>
			</g>
			<path d="M1099.2,993.1l-75.8,112.1L857.2,933.2c0,0,65.1-255.8,449.7-470.2l98.1-46.5c0,0,98.8,131.7,135.3,232.5
				C1540.3,649,1267.6,632.9,1099.2,993.1z"/>
			<polygon fill="#FFFFFF" points="1183.1,673.3 1177.8,584 1264.7,624.4 1280.3,734.5 			"/>
			<polygon fill="#FFFFFF" points="1268.8,620.8 1263.5,531.5 1350.4,571.8 1366,682 			"/>
			<polygon fill="#FFFFFF" points="1355.8,567.5 1349.9,467.2 1446.8,517 1464.4,640.7 			"/>
			<polygon fill="#FFFFFF" points="1093.3,729.4 1087.9,637.4 1177.4,678.9 1193.5,792.4 			"/>
			<g>
				<circle fill="#FFFFFF" stroke="#F22500" stroke-width="6" stroke-miterlimit="10" cx="1022.8" cy="879.1" r="133"/>
				<circle stroke="#F22500" stroke-width="10" stroke-miterlimit="10" cx="1024.3" cy="879.6" r="99.4"/>
				<polygon fill="#FFFFFF" points="1024.3,801.9 1047.6,849.1 1099.6,856.6 1062,893.3 1070.9,945.1 1024.3,920.7 977.8,945.1
					986.7,893.3 949.1,856.6 1001.1,849.1 				"/>
			</g>
		</g>
	</g>
</g>
</svg>
