<?xml version="1.0" encoding="utf-8"?>
<!-- Generator: Adobe Illustrator 19.2.1, SVG Export Plug-In . SVG Version: 6.00 Build 0)  -->
<svg version="1.1" id="Layer_1" xmlns="http://www.w3.org/2000/svg" xmlns:xlink="http://www.w3.org/1999/xlink" x="0px" y="0px"
	 width="2000px" height="2000px" viewBox="0 0 2000 2000" enable-background="new 0 0 2000 2000" xml:space="preserve">
<g id="shirt">
	<path stroke="#000000" stroke-width="4" stroke-miterlimit="10" d="M1592.5,1198.2l-100-65.1l-36-103.1l-323.1,139.2L858.5,1126
		l-278-204.6l-77.8,147l25.5,19.7c0,0-163.7,22-227.7,138l-36,138l1456,1L1592.5,1198.2z"/>
	<line fill="none" stroke="#FFFFFF" stroke-width="7" stroke-miterlimit="10" x1="528.2" y1="1088.1" x2="1001.7" y2="1315.1"/>
	<line fill="none" stroke="#FFFFFF" stroke-width="7" stroke-miterlimit="10" x1="1492.5" y1="1133.1" x2="1001.7" y2="1315.1"/>
	<path d="M264.5,1364.1l200.7,278.4c0,0,496.5,552,1061.9,0c0,0,281.7-312,168.1-277.4C1676.5,1370.8,264.5,1364.1,264.5,1364.1z"/>
</g>
<g id="beard">
	<path fill="#C61920" stroke="#000000" stroke-width="7" stroke-miterlimit="10" d="M423.1,724.1l228.5-36h826.8l85.2,18v30
		l-24.9,26l35.3,70l-33.2,12l33.2,42l-51.9-10l14.5,42h-31.2l43.6,60l-62.3-20l24.9,48c0,0-338.6,146-338.6,152s-164.1,34-164.1,40
		s-403-200-403-200l-12.5-30l-33.2,24l-8.3-48.9l-45.7,12.9l6.2-52l-37.4,2c0,0,14.5-48,6.2-38s-41.6-4-41.6-4l24.9-28l-41.6-22
		l33.2-28l-49.9-18L423.1,724.1z"/>
	<path stroke="#000000" stroke-width="9" stroke-miterlimit="10" d="M540.6,703.6l40.5,97.5h39l25.5,36.4l-10.5,32.6
		c0,0,28.5,33.1,39,37.5c10.5,4.5,45-15,45-7.5c0,7.5,27,25.5,27,25.5l-6,30c0,0,50.8,20.2,52.4,22.1c1.6,1.9,30.2-20.6,36.2-14.6
		c5.9,6,25.3,8.2,29.8,14.6c4.6,6.4,14.3,43.9,14.3,43.9s344.4,0,347.3,0s46.4-13.5,46.4-13.5l9-24l33-15l35.9,19.5
		c0,0,57.1-43,52.6-45.5c-4.5-2.5-10.5-35.5-10.5-35.5l19.5-30l37.5,1.5l36-62.9l-16.5-29.6l16.5-37l22.5-12.3v-33.8l-58.5-22
		l-432.3-34.4l-354.5,32.1L540.6,703.6z"/>
	<polyline fill="#C61920" stroke="#000000" stroke-width="9" stroke-miterlimit="10" points="1151.6,885.3 1190.6,915 1220.1,878.5
		1266.9,915 1284.5,849.9 1319.3,892.1 1333.5,871.5 1358.5,878.5 1372.4,846.2 1422.5,827.4 1422.5,786.7 1456.5,758.1
		1437.5,690.4 	"/>
	<path fill="#C61920" stroke="#000000" stroke-width="7" stroke-miterlimit="10" d="M625.3,685.3l-24.9,47l36,17.4l4,45.9l23-8.9
		l-3,50.9l54-10.2l40,64.7l18-30.2l64.9,30.2v-30.2l50.5,23.5l12-35.5c0,0,223.7-126.9,81.2-238.3L625.3,685.3z"/>
	<g>
		<line fill="none" stroke="#000000" stroke-width="7" stroke-miterlimit="10" x1="456.3" y1="786.1" x2="549.1" y2="724.1"/>
		<line fill="none" stroke="#000000" stroke-width="7" stroke-miterlimit="10" x1="464.6" y1="836.1" x2="562" y2="755.3"/>
		<line fill="none" stroke="#000000" stroke-width="7" stroke-miterlimit="10" x1="481.3" y1="868.1" x2="575.1" y2="786.7"/>
		<line fill="none" stroke="#000000" stroke-width="7" stroke-miterlimit="10" x1="512.4" y1="904.1" x2="606.6" y2="795.7"/>
		<line fill="none" stroke="#000000" stroke-width="7" stroke-miterlimit="10" x1="551.9" y1="943.1" x2="628.9" y2="813.8"/>
		<line fill="none" stroke="#000000" stroke-width="7" stroke-miterlimit="10" x1="593.4" y1="968.1" x2="637.8" y2="861.8"/>
		<line fill="none" stroke="#000000" stroke-width="7" stroke-miterlimit="10" x1="637.3" y1="1014.1" x2="674.1" y2="900.2"/>
		<line fill="none" stroke="#000000" stroke-width="7" stroke-miterlimit="10" x1="680.7" y1="1036.2" x2="719.1" y2="900.2"/>
		<line fill="none" stroke="#000000" stroke-width="7" stroke-miterlimit="10" x1="728.8" y1="1060.6" x2="740.1" y2="955.7"/>
		<line fill="none" stroke="#000000" stroke-width="7" stroke-miterlimit="10" x1="767.7" y1="1080.3" x2="792.5" y2="968.2"/>
		<line fill="none" stroke="#000000" stroke-width="7" stroke-miterlimit="10" x1="806.7" y1="1100" x2="828.6" y2="963.2"/>
	</g>
	<line fill="none" stroke="#000000" stroke-width="9" stroke-miterlimit="10" x1="1208.5" y1="1139.9" x2="1235.2" y2="1017.6"/>
	<line fill="none" stroke="#000000" stroke-width="9" stroke-miterlimit="10" x1="1267.3" y1="1113.1" x2="1266.5" y2="1008.2"/>
	<line fill="none" stroke="#000000" stroke-width="9" stroke-miterlimit="10" x1="1325.1" y1="1087.4" x2="1313.6" y2="977.8"/>
	<line fill="none" stroke="#000000" stroke-width="9" stroke-miterlimit="10" x1="1386.2" y1="1060.6" x2="1358.6" y2="977.8"/>
	<line fill="none" stroke="#000000" stroke-width="9" stroke-miterlimit="10" x1="1437.5" y1="1044.1" x2="1386.6" y2="955"/>
	<line fill="none" stroke="#000000" stroke-width="9" stroke-miterlimit="10" x1="1475.7" y1="1021.6" x2="1401" y2="885.3"/>
	<line fill="none" stroke="#000000" stroke-width="9" stroke-miterlimit="10" x1="1486.8" y1="958.1" x2="1443.5" y2="879.2"/>
	<line fill="none" stroke="#000000" stroke-width="9" stroke-miterlimit="10" x1="1505.5" y1="918.1" x2="1465.1" y2="849.9"/>
	<line fill="none" stroke="#000000" stroke-width="9" stroke-miterlimit="10" x1="1522.1" y1="876.1" x2="1479.5" y2="816.3"/>
	<line fill="none" stroke="#000000" stroke-width="9" stroke-miterlimit="10" x1="1540.8" y1="844.1" x2="1475.3" y2="759.2"/>
	<line fill="none" stroke="#000000" stroke-width="9" stroke-miterlimit="10" x1="1538.7" y1="762.1" x2="1502" y2="737.4"/>
</g>
<g id="ears">
	<path fill="#4B7118" stroke="#000000" stroke-width="7" stroke-miterlimit="10" d="M1541.5,313.7c93.9-139.3,48.6-169.5,48.6-169.5
		c-125.9-75-295.1-39-295.1-39c-101.5,18-182.5,144-182.5,144l-86.3,369.3l382.9,73.6l69.5-4l88,15.6c40.1-57,0.2-183,0.2-183
		S1501.9,372.5,1541.5,313.7z"/>
	<polygon stroke="#000000" stroke-width="4" stroke-miterlimit="10" points="1352.1,534.6 1315,451.9 1235.2,507.1 1258.5,564.1
		"/>
	<polygon stroke="#000000" stroke-width="4" stroke-miterlimit="10" points="1381.9,533 1326.5,373.7 1208.5,485.6 1189.3,474.1
		1159.4,485.8 1344.5,313.7 1422.9,594.2 1361,594.2 	"/>
	<path fill="#4B7118" stroke="#000000" stroke-width="7" stroke-miterlimit="10" d="M422.5,724.1c0,0-72.4-96.9-27.4-188.4
		c0,0,40.5-93,43.5-111c0,0-51-139.5-58.2-196.5c0,0,8.7-144,148.2-130.5l165,69l111.6,105c0,0,170.8,262.7,175.8,339.8l-163.2,37
		L422.5,724.1z"/>
	<polygon points="699.9,533.1 723.3,453.9 795.6,527.8 802.5,600.1 734.5,582.3 	"/>
	<path fill="#4B7118" stroke="#000000" stroke-width="7" stroke-miterlimit="10" d="M968,564.1c-8.5,1.5-95.2-36.2-95.2-36.2
		l-92.7-25.8l-29.6,44l-50.6-13l-99.4,131.6l24.9,20.6l300.9,38.8c0,0,71.5-84.4,64.1-91.8C982.8,624.9,968,564.1,968,564.1z"/>
	<path fill="#4B7118" stroke="#000000" stroke-width="7" stroke-miterlimit="10" d="M1038.5,540.1c0,0,143.6-66,150.8-66
		s46,33,46,33l61.2-17l38,50c0,0,54-20,50,0s-1.8,48,16,46c17.8-2,52,14,52,20s-14.9,84.4-14.9,84.4l-202.3-12.8l-224-30.4
		L1038.5,540.1z"/>
	<polygon stroke="#000000" stroke-width="4" stroke-miterlimit="10" points="1485.3,688.4 1372.4,250.1 1051.6,534.1 1063,453.9
		1391.8,174.1 1549.3,703.6 	"/>
	<path stroke="#000000" stroke-width="4" stroke-miterlimit="10" d="M1084.6,368.6c0,0,203.2-249.9,287.8-230.4
		c0,0,84.1,0,112.9,115.5c0,0-8.8,48,52.7,258l44.3,148.4c0,0,8.4-105.1-33-186c0,0-53.9-119.3,5.6-181.1c0,0,75.2-114.3,35.1-148.8
		c0,0-160.7-93-311.1-35.2c0,0-103.1,38.2-166.5,140.2l-30.4,125.9L1084.6,368.6z"/>
	<polygon points="662.7,582.3 707.1,405.2 827.5,511.7 895,534.6 674.8,325.1 614,643.1 	"/>
	<path d="M575.4,700.1l59.6-398.4c0,0-10.5-31.5,36-7.5l265.5,226.5l-62.3-121.3c0,0-243.3-214.6-283.9-192.1
		c0,0-28.2,24.3-49.8,246.7l-12.4,253.6l36.9-9L575.4,700.1z"/>
	<path d="M463.3,717.7c0,0-32.2-114.6-15.7-168.6c0,0,9-22.2,31.5-110.3c0,0,23.6-87.7,34.3-227.2c0,0-27.9-75,102.3-28.5
		l207.8,120.3l-18.3-31.8l-111.6-105l-153-64c0,0-143.5-33.5-160.2,125.5l58.2,196.5c0,0-70.4,146.3-58.2,193.8c0,0,5,60,42.1,105.6
		L463.3,717.7z"/>
</g>
<g id="surrounding_eye">
	<path stroke="#000000" stroke-width="4" stroke-miterlimit="10" d="M1032.9,618.5l156.3-81.3l108.8-25.5l24,53.4h36l31.5,61h24
		c0,0-4.5,62.6-10.5,62.3c-6-0.3,34.5,61.4,34.5,61.4s-30,22.3-36,21.9c-6-0.4-1.5,44.7-1.5,44.7l-49.5,7.4l-6.1,38.2l-32.9-45.5
		l7.5,45.5l-57-45.5l-1.5,69l-52.1-47.7l-19.2,47.7l-168-197L1032.9,618.5z"/>
	<path fill="#FFFFFF" stroke="#000000" stroke-width="6" stroke-miterlimit="10" d="M1066.5,646.1c0,0,50-80,116-60l10-22l24,22
		c0,0,38-18,34-10s-3.4,26,0.3,29s51.7,0,51.7,0l-12,31c0,0,46-8,44,0s-30,34-30,34l40,18l-46,12l46,36h-44l4,78l-34-50l-38,38
		c0,0-22-50-27-40s-7,42-9,36s-26-40-26-40l-16,28l-44-26C1110.5,760.1,1104.5,684.1,1066.5,646.1z"/>
	<g>
		<path stroke="#000000" stroke-width="4" stroke-miterlimit="10" d="M968.5,598.7c0,0-45.4-40.7-87.4-34.6c0,0-99-40.4-100.5-35.9
			c-1.5,4.5-18,45-18,45s-30-7.8-34.5-9.9c-4.5-2.1-99,101.5-99,101.5l42,22.1c0,0-45,32.1-42,37.2c3,5.1,31.5-3.7,31.5-3.7
			l-7.5,53.9l31.5-24.6c0,0-10.5,66.6-6,66.5c4.5-0.1,36-19.6,36-19.6l36,65.2c0,0,4.5-20.8,10.5-24.2s56.7,24.2,56.7,24.2
			l-5.3-23.5l46,15.3v-27l42.2,0l80.3-164C981,662.7,994.4,607.7,968.5,598.7z"/>
		<path fill="#FFFFFF" stroke="#000000" stroke-width="6" stroke-miterlimit="10" d="M904.5,784.1h-18l-20,30l-16-30l-16,30l-18-15
			l-32,15v-42h-48l10-48c0,0-46-10-46,0s24-26,24-26l-14-26l40-20l2-28l16,12l4-36l30,18v-18h18v-14l20,16l14-16l30,14
			c0,0,39.2-6.1,71.2,41.9C955.6,641.9,895.8,712.7,904.5,784.1z"/>
		<path fill="none" stroke="#000000" stroke-width="4" stroke-miterlimit="10" d="M812.5,626.1l39.3,5.3c43.3,0.7,81.3,37,81.3,37"
			/>
		<path fill="none" stroke="#000000" stroke-width="4" stroke-miterlimit="10" d="M862.6,632.3c0,0-66.1,23.1-70.1,32.5"/>
		<polyline fill="none" stroke="#000000" stroke-width="4" stroke-miterlimit="10" points="817.8,737.4 817.8,717.7 809.2,702.6
			797.8,688.1 792.5,699.9 		"/>
	</g>
	<path fill="none" stroke="#000000" stroke-width="4" stroke-miterlimit="10" d="M1091,677.6c1.5-0.9,44.1-35.3,84.8-29.1"/>
	<polyline fill="none" stroke="#000000" stroke-width="4" stroke-miterlimit="10" points="1119.4,660.1 1122.5,647.2 1137.8,632.3
		1151.6,626.1 1180.6,632.3 	"/>
	<path fill="none" stroke="#000000" stroke-width="4" stroke-miterlimit="10" d="M1108,712.7c11.8,7.3,36,25.1,72.6,19.6"/>
	<polyline fill="none" stroke="#000000" stroke-width="4" stroke-miterlimit="10" points="1201.1,712.7 1205.8,737.4 1201.1,752.1
		1208.5,771.6 1208.5,786.7 	"/>
</g>
<g id="eyeball">
	<path fill="#FFF7B4" stroke="#000000" stroke-width="4" stroke-miterlimit="10" d="M919.1,688.1c0,0-75.3-71.3-121.3,0
		C797.8,688.1,836.5,760.7,919.1,688.1z"/>
	<path fill="#F5BF00" stroke="#000000" stroke-miterlimit="10" d="M828.6,660.5c0,0,7.8,77.4,74.5,15.4
		C903.1,675.9,852,642.9,828.6,660.5z"/>
	<path stroke="#000000" stroke-miterlimit="10" d="M837.3,656.4c0,0,14.5,49,50.5,10.4C887.8,666.7,858.2,650.7,837.3,656.4z"/>
	<path fill="#FFF7B4" stroke="#000000" stroke-width="4" stroke-miterlimit="10" d="M1098.8,691.8c0,0,75.3-71.3,121.3,0
		C1220.1,691.8,1181.4,764.4,1098.8,691.8z"/>
	<path fill="#F5BF00" stroke="#000000" stroke-miterlimit="10" d="M1189.3,664.2c0,0-7.8,77.4-74.5,15.4
		C1114.8,679.6,1165.9,646.6,1189.3,664.2z"/>
	<path stroke="#000000" stroke-miterlimit="10" d="M1180.6,660.1c0,0-14.5,49-50.5,10.4C1130.1,670.4,1159.7,654.4,1180.6,660.1z"/>
</g>
<g id="mouth">
	<path fill="#B65628" stroke="#000000" stroke-width="7" stroke-miterlimit="10" d="M865.9,1075.6c0,0-33.3,195,107.2,208.5
		c0,0,124-4.5,193-166.5l35.1-130.5l-321.7,43L865.9,1075.6z"/>
	<path fill="#C33E2E" stroke="#000000" stroke-width="7" stroke-miterlimit="10" d="M887.8,1117.4l-2-7.3l47.3-8.9l47.8-0.4
		l37.7,4.7l41.4,11.8l49.4-29.8c0,0,68.2-113.3,65.7-116c-2.5-2.7-230.7-50-230.7-50L919.1,991c-24.7,12.2-37.6,58.2-37.6,58.2
		l4.3,60.8"/>
	<path stroke="#000000" stroke-width="3" stroke-miterlimit="10" d="M865.9,1075.6c0,0,34.2-113.3,107.2-97.9
		c0,0,34.9-4.1,38.2,55.9l21.7-57.3c0,0,41.2-65.7,86.4,18.3l30.6,25.5l51.2-33l-56.9-95.1l-143.8-78l-81.3,30.6l-12.7,17.2
		c0,0,16.2,62.3-40.6,204.8"/>
	<path fill="#B65628" stroke="#000000" stroke-width="10" stroke-miterlimit="10" d="M1152.5,892.1c0,0-36-310-160-270
		c0,0-122,54-86,250C906.5,872.1,1038.5,784.1,1152.5,892.1z"/>
	<path fill="#FFFFFF" stroke="#000000" stroke-width="3" stroke-miterlimit="10" d="M906.5,872.1l39.3,74.7c0,0,7.3,4,0-32s0-8,0-8
		l6.7-34.7l10.7,20c0,0,12.4,3.3,17.8-32l16.8,28.7c0,0,11-7.1,13.4-28.7l14.9,39.3l25.5-32.7l6,14l14.2-6l25.3,28.7l13.3-19.4
		l35.3,91.3c0,0,16,16,13.3-35.3l-7.5-54.7C1151.6,885.3,1041.8,787.4,906.5,872.1z"/>
	<path d="M906.5,872.1c0,0,115.6-84.1,245.1,13.3c0,0-131.3-84.1-242.2-7.7L906.5,872.1z"/>
	<path fill="#FFFFFF" stroke="#000000" stroke-miterlimit="10" d="M872.8,1133.1c0,0,4-78.3,13.6-103.1c0,0,18.3,72.7,32.7,72.7
		l21.9-21.1c0,0,8.2,28.6,14.6,16.6c6.4-12,25.3-28.5,25.3-28.5l21.6,28.5l23.6-33l7.4,39c0,0,53.3-58.6,33-100.5l48.3,81
		c0,0-37.2,58.5-74.7,36c0,0-20.3-14.7-59.1-15.6C953.8,1104.4,917.6,1110.5,872.8,1133.1z"/>
	<path fill="none" stroke="#000000" stroke-width="4" stroke-miterlimit="10" d="M1165,1010.5c0,0-39.2,157.6-121.2,140.9
		c0,0-53.6-21.3-74.7-21.3c0,0-60.5-8.7-103.3,28.7"/>
	<path fill="none" stroke="#000000" stroke-width="4" stroke-miterlimit="10" d="M1180.6,1003.7c0,0-34.7,196.7-147.1,194.6
		c0,0-92.5-36.6-159.2,5.6"/>
	<path fill="#B65628" stroke="#000000" stroke-width="4" stroke-miterlimit="10" d="M895,1239.6c0,0,56.9-28,120.5,0
		c0,0,58.4,10.6,93.1-32.5"/>
</g>
<g id="headband">
	<path fill="#004E51" stroke="#000000" stroke-width="7" stroke-miterlimit="10" d="M805.1,271.7c0,0,59.4-91.4,307.3-22.5
		l-101.2,419.2C1011.2,668.4,841.5,329.4,805.1,271.7z"/>
	<path stroke="#FFB407" stroke-width="7" stroke-miterlimit="10" d="M1036,350.1l55-36.4l-37.3-52.2c0.2-1.3,0.9,1,0,0
		c-27.8-31.3-40.3-60.3-90.3-60.3c-49.9,0-54.9,22.4-81.9,57.6l-36,39.3l61,38l-18.7,39l57.8,76.9l-2.2,32.2l46.9,69.7l0,0
		l35.9-56.7l-6.2-43.1l46.5-49.9L1036,350.1z"/>
	<polygon fill="#FF5C00" stroke="#000000" stroke-width="7" stroke-miterlimit="10" points="1011.2,490.1 999.5,446.1 1043.5,400.1
		1011.2,343.1 1066.5,305.1 1011.2,240.8 933.1,240.1 881.5,295.1 936.6,325.1 912.5,375.1 962.4,451.9 962.2,484.1 990.2,527
		990.2,527 	"/>
	<polygon fill="#FFB407" stroke="#000000" stroke-width="7" stroke-miterlimit="10" points="962.4,451.9 933.1,240.1 1011.2,240.8
		1006.5,283.1 999.2,451.9 	"/>
	<line fill="none" stroke="#000000" stroke-width="7" stroke-miterlimit="10" x1="938" y1="268.3" x2="1007" y2="268.3"/>
	<line fill="none" stroke="#000000" stroke-width="7" stroke-miterlimit="10" x1="946.5" y1="332.1" x2="1004.4" y2="332.1"/>
	<line fill="none" stroke="#000000" stroke-width="7" stroke-miterlimit="10" x1="952.5" y1="370.1" x2="998.5" y2="370.1"/>
	<line fill="none" stroke="#000000" stroke-width="7" stroke-miterlimit="10" x1="956.7" y1="410.4" x2="998.5" y2="410.4"/>
	<line fill="none" stroke="#000000" stroke-width="7" stroke-miterlimit="10" x1="1004.4" y1="303.2" x2="938" y2="303.2"/>
</g>
<g id="nose">
	<path stroke="#000000" stroke-miterlimit="10" d="M1014.5,734.1c0,0-94-60-88,50c0,0,12,42,74,30
		C1000.5,814.1,1032.5,780.1,1014.5,734.1z"/>
	<path stroke="#000000" stroke-miterlimit="10" d="M1021.3,737.4c0,0,55.2-31.5,63.2,29.6c0,0,4,51.4-40,49.2
		C1044.5,816.2,997,803.4,1021.3,737.4z"/>

		<ellipse transform="matrix(0.9559 -0.2936 0.2936 0.9559 -183.3089 322.0283)" fill="#FFFFFF" stroke="#FFFFFF" stroke-miterlimit="10" cx="981" cy="771.6" rx="21.3" ry="27.7"/>

		<ellipse transform="matrix(0.5 -0.866 0.866 0.5 -142.4177 1296.5078)" fill="#FFFFFF" stroke="#FFFFFF" stroke-miterlimit="10" cx="1051.6" cy="771.6" rx="24.3" ry="13.5"/>
	<path stroke="#000000" stroke-miterlimit="10" d="M919.1,693.4l24.6,30.6l74.9,31.2l84.7-53.3c0,0-34.9-85.1-88.9-83.5
		C1014.5,618.5,955.1,613.5,919.1,693.4z"/>
	<g>
		<circle cx="975.1" cy="758.2" r="2.9"/>
		<circle cx="987.3" cy="764" r="2.9"/>
		<circle cx="978" cy="769.7" r="2.9"/>
	</g>
	<g>
		<ellipse transform="matrix(0.7071 -0.7071 0.7071 0.7071 -225.0208 968.6321)" cx="1056.7" cy="755.9" rx="2.9" ry="2.9"/>
		<ellipse transform="matrix(0.7071 -0.7071 0.7071 0.7071 -232.6982 975.6038)" cx="1061.3" cy="768.7" rx="2.9" ry="2.9"/>
		<ellipse transform="matrix(0.7071 -0.7071 0.7071 0.7071 -234.0437 967.2895)" cx="1050.6" cy="766.2" rx="2.9" ry="2.9"/>
	</g>
</g>
</svg>
