<?xml version="1.0" encoding="utf-8"?>
<!-- Generator: Adobe Illustrator 19.2.1, SVG Export Plug-In . SVG Version: 6.00 Build 0)  -->
<svg version="1.1" id="Layer_1" xmlns="http://www.w3.org/2000/svg" xmlns:xlink="http://www.w3.org/1999/xlink" x="0px" y="0px"
	 width="2000px" height="2000px" viewBox="0 0 2000 2000" enable-background="new 0 0 2000 2000" xml:space="preserve">
<g id="side_burns">
	<g>
		<g>
			<path fill="#231F20" stroke="#231F20" stroke-width="3" stroke-miterlimit="10" d="M746.3,1022.6c-6.7-2.6-40.9-23.3-40.9-23.3
				l-18.5-58l-23.3-18.6l-22.1-106.3l-40.9-72.2c0,0-33.5-112.3-115-125c0,0-25.6-14.4,32-32c0,0,133.9-92.2,146-138.8l125.2,110
				L746.3,1022.6z"/>
			<path fill="#231F20" stroke="#231F20" stroke-width="3" stroke-miterlimit="10" d="M1289.6,1013.4c6.7-2.6,40.9-23.3,40.9-23.3
				l18.5-58l23.3-18.6l22.1-106.3l40.9-72.2c0,0,33.5-112.3,115-125c0,0,25.6-14.4-32-32c0,0-133.9-92.2-146-138.8l-125.2,110
				L1289.6,1013.4z"/>
		</g>
		<polygon fill="#231F20" stroke="#231F20" stroke-width="3" stroke-miterlimit="10" points="1299.4,1103.4 1370.5,1081.9 
			1361,1027.9 1423.3,987.5 1414.3,909.6 1435.5,894.8 1431.4,838.5 1460.3,788.5 1435.5,703.6 1431.4,838.5 1389.8,923.9 
			1335.5,1013.4 		"/>
	</g>
	<line fill="none" stroke="#231F20" stroke-width="20" stroke-miterlimit="10" x1="665.9" y1="842.2" x2="846.1" y2="1132.8"/>
	<line fill="none" stroke="#231F20" stroke-width="20" stroke-miterlimit="10" x1="1286.9" y1="1088.6" x2="1415.4" y2="882.9"/>
</g>
<g id="face">
	<path fill="#B7DADA" stroke="#231F20" stroke-width="20" stroke-miterlimit="10" d="M1361,524.3c0,0,207.1,236.2-70.3,586.7
		l-130.9,91.1l-305.3-35.7l-96-143.9c0,0-178.5-210.5-91.6-480.4C667,542.2,1146.9,239.8,1361,524.3z"/>
	<line fill="none" stroke="#231F20" stroke-width="20" stroke-miterlimit="10" x1="811.9" y1="638.9" x2="785.8" y2="689.2"/>
	<line fill="none" stroke="#231F20" stroke-width="20" stroke-miterlimit="10" x1="922.1" y1="584.8" x2="830" y2="703.6"/>
	<line fill="none" stroke="#231F20" stroke-width="20" stroke-miterlimit="10" x1="1280" y1="666.9" x2="1306.3" y2="705"/>
	<line fill="none" stroke="#231F20" stroke-width="20" stroke-miterlimit="10" x1="1202.3" y1="647.5" x2="1271" y2="732.5"/>
	<polyline fill="none" stroke="#231F20" stroke-width="20" stroke-miterlimit="10" points="885.4,1056.7 705.4,734.8 765,637 	"/>
	<polyline fill="none" stroke="#231F20" stroke-width="20" stroke-miterlimit="10" points="902.9,1159.4 656.4,739.9 724.6,627.5 	
		"/>
	<polyline fill="none" stroke="#231F20" stroke-width="20" stroke-miterlimit="10" points="1202.4,1078.9 1382.4,757 1322.7,659.3 	
		"/>
	<polyline fill="none" stroke="#231F20" stroke-width="20" stroke-miterlimit="10" points="1184.8,1181.7 1431.4,762.2 
		1359.5,636.1 	"/>
	<line fill="none" stroke="#231F20" stroke-width="20" stroke-miterlimit="10" x1="904.7" y1="939.6" x2="820.1" y2="771.8"/>
	<line fill="none" stroke="#231F20" stroke-width="20" stroke-miterlimit="10" x1="891.8" y1="999.1" x2="782" y2="782.9"/>
	<g>
		<path fill="#231F20" d="M914.2,883.3c-2.8-5.8-5.5-11.7-8.3-17.5l-8.2-17.5l-16.2-35.2l-16-35.3l-8-17.6l-7.9-17.7l-1.4-3.1
			l2.5-2.7l15-16.7l15-16.6l15.1-16.6l15.1-16.6l15.1-16.6l15.1-16.5l15.2-16.5l15.2-16.5l5-5.4l6.3,4.3l16.5,11.1l16.4,11.1
			l32.8,22.2l-10.3-0.4l60.5-36.4l6.9-4.2l5.5,6.1l32,35.4l31.9,35.5l15.9,17.8l15.9,17.8c10.6,11.9,21.2,23.8,31.7,35.7l4.3,4.9
			l-2.9,5.6l-16.8,33.3l-16.9,33.2l-17,33.2l-17.1,33.2l-2.3,4.5l-4.8-0.3l-31.4-2l-31.4-2.1L1071,896l-15.7-1.1l-15.7-1.2
			l-31.4-2.4l-15.7-1.2l-15.7-1.3l-31.4-2.6C935.1,885.2,924.7,884.3,914.2,883.3z M914.2,883.3c10.5-0.1,21,0,31.5,0l31.5,0.2
			l15.7,0.1l15.7,0.2l31.5,0.5l15.7,0.3l15.7,0.3l31.4,0.7l31.4,0.7l31.4,0.8l-7.1,4.2l16-33.7l16.1-33.7l16.1-33.6l16.2-33.6
			l1.4,10.5c-10.8-11.7-21.4-23.5-32.2-35.3l-16.1-17.7l-16-17.7l-32-35.5l-31.9-35.6l12.4,1.9l-60.9,35.8l-5.3,3.1l-5-3.5
			l-32.4-22.8L989,628.7l-16.2-11.5l11.3-1.2l-15.6,16.1L953,648.2l-15.7,16.1l-15.7,16l-15.7,16l-15.8,16l-15.8,16l-15.8,15.9
			l1.1-5.8l7,18.1l6.9,18.1l13.8,36.2l13.6,36.3l6.7,18.2C909.8,871.2,912,877.2,914.2,883.3z"/>
	</g>
	<line fill="none" stroke="#231F20" stroke-width="20" stroke-miterlimit="10" x1="1179.9" y1="947.2" x2="1267.4" y2="791.3"/>
	<line fill="none" stroke="#231F20" stroke-width="20" stroke-miterlimit="10" x1="1190.2" y1="1015.8" x2="1309.4" y2="803.4"/>
</g>
<g id="eyes">
	<path fill="#FFFFFF" stroke="#231F20" stroke-width="9" stroke-miterlimit="10" d="M922.1,572.5c0,0-17.4,79.4-157.1,64.5
		c0,0-123.6-14.9-98-94.8c0,0,12.2-41.5,127.5-35.1C794.6,507.1,859.8,512.2,922.1,572.5z"/>
	<path fill="#FFFFFF" stroke="#231F20" stroke-width="9" stroke-miterlimit="10" d="M1124.2,601.2c0,0,17.4,79.4,157.1,64.5
		c0,0,123.6-14.9,98-94.8c0,0-12.2-41.5-127.5-35.1C1251.8,535.8,1186.5,541,1124.2,601.2z"/>
</g>
<g id="face_circles">
	<g>
		<circle fill="#231F20" cx="1299.4" cy="758.5" r="61.6"/>
		<circle fill="#FAA81D" cx="1298.5" cy="757.4" r="31.2"/>
		<circle fill="#231F20" cx="1298.5" cy="758.5" r="18.6"/>
	</g>
	<g>
		<circle fill="#231F20" cx="788.8" cy="736.9" r="61.6"/>
		<circle fill="#FAA81D" cx="788.4" cy="736.9" r="31.2"/>
		<circle fill="#231F20" cx="788.4" cy="737.8" r="18.6"/>
	</g>
</g>
<g id="horns">
	<path fill="#231F20" stroke="#231F20" stroke-width="3" stroke-miterlimit="10" d="M816.9,393.5l-17.7-22.8
		c0,0-119.4-123.6-123.6-285.5c0,0-25.6-19.2-23.4,34.1c0,0-35.3,364,50.9,361.1C734.5,479.4,816.9,393.5,816.9,393.5z"/>
	<path fill="#231F20" stroke="#231F20" stroke-width="3" stroke-miterlimit="10" d="M1231.3,390.7c0,0,42.9-139.6-31.7-308.8
		c0,0,4.3-28.6,32,14c0,0,175,157.6,132.2,446.3l-36.4-77.7C1327.4,464.5,1293.2,414.1,1231.3,390.7z"/>
	<path fill="#B7DADA" stroke="#231F20" stroke-width="3" stroke-miterlimit="10" d="M1260.4,221.2c0,0,11.8,132.6-6.9,158.2h31.6
		l-7.3-20.2l20.8-12.9l-21.8-19.2l22.8-19.7l-27-15.9l26.1-16l-22-11.2l20.7-19.2l-20.7-9.6l10.5-14.4H1260.4z"/>
	<path fill="#B7DADA" stroke="#231F20" stroke-width="3" stroke-miterlimit="10" d="M698.9,246.6c0,0,57.7,120,86.9,132.3
		l-27.1,16.2l-4.1-21.1l-24.4-0.4l8.9-27.6l-29.6-5.3l15.1-27.5l-30.6-0.4l13.2-20.9l-27.6-5.9l12.9-18.8l-16.4-7L698.9,246.6z"/>
</g>
<g id="skull">
	<path fill="#231F20" stroke="#231F20" stroke-width="20" stroke-miterlimit="10" d="M675.6,529.4c0,0,102.3-66,219.4,23.4
		l148.1,102.3c0,0,183.7-146.6,307.7-106.5l28.5,22.4l-51.9-105.4c0,0-61.8-110.8-334.4-125.7C993,339.8,730.9,378.2,675.6,529.4z"
		/>
	<g id="yellows">
		<path fill="#FAA81D" d="M1000.2,438.5l-71-53.7c0,0-10.7-44.9,26.2-15L1000.2,438.5z"/>
		<path fill="#FAA81D" d="M1030.8,438.5l71-53.7c0,0,10.7-44.9-26.2-15L1030.8,438.5z"/>
		<path fill="#FAA81D" d="M1006.3,514.7L899,416.2c0,0-34.5-11.6-24.4,18.7L1006.3,514.7z"/>
		<path fill="#FAA81D" d="M1044.5,517l107.3-98.5c0,0,34.5-11.6,24.4,18.7L1044.5,517z"/>
		<path fill="#FAA81D" d="M1005.4,600.2L843.6,451.6c0,0-52-17.5-36.9,28.3L1005.4,600.2z"/>
		<path fill="#FAA81D" d="M1059.1,600.2L1221,451.6c0,0,52-17.5,36.9,28.3L1059.1,600.2z"/>
		<path fill="#FAA81D" d="M1023.9,448.3c0,0-12.9,106.8,5.3,178.7C1029.2,627,1048.3,556.8,1023.9,448.3z"/>
		<circle fill="#FAA81D" stroke="#231F20" stroke-width="8" stroke-miterlimit="10" cx="1271.3" cy="601.4" r="64.2"/>
		<circle fill="#FAA81D" stroke="#231F20" stroke-width="8" stroke-miterlimit="10" cx="782" cy="572.6" r="64.2"/>
	</g>
</g>
<g id="pupil">
	<circle fill="#231F20" cx="1272.4" cy="601.4" r="34.6"/>
	<circle fill="#231F20" cx="780.9" cy="572.6" r="34.6"/>
</g>
<g id="shirt">
	<path fill="#EE2C24" stroke="#231F20" stroke-width="8" stroke-miterlimit="10" d="M1485,1435.8v-155.5c0,0-17-51.1-59.6-76.7
		l-208.8-166.2c0,0-66,83.1-100.1,102.3l-76.7,138.5c0,0-59.6,55.4-78.8-29.8l-10.7-38.3l-57.5-23.4v-29.8c0,0-25.6-14.9-25.6-34.1
		l-29.8,2.1l-29.8-55.4l-49-46.9c0,0-168.3,121.4-183.2,215.2l-21.3,198.1"/>
	<path fill="none" stroke="#231F20" stroke-width="5" stroke-miterlimit="10" d="M779.7,1435.8c0,0-92.4-263.6-145.3-301.1"/>
	<path fill="none" stroke="#231F20" stroke-width="5" stroke-miterlimit="10" d="M816.9,1435.8c0,0-56.7-218.5-150.9-334.4"/>
	<path fill="none" stroke="#231F20" stroke-width="5" stroke-miterlimit="10" d="M854.6,1435.8c0,0-55-265.4-160.1-361"/>
	<path fill="none" stroke="#231F20" stroke-width="5" stroke-miterlimit="10" d="M885.4,1435.8c0,0-28.5-244.2-158.2-388.8"/>
	<path fill="none" stroke="#231F20" stroke-width="5" stroke-miterlimit="10" d="M922.1,1435.8c0,0-35.8-310.7-163.5-413.3"/>
	<path fill="none" stroke="#231F20" stroke-width="5" stroke-miterlimit="10" d="M878.5,1134.8c0,0,83.2,185.9,88.8,301.1"/>
	<line fill="none" stroke="#231F20" stroke-width="5" stroke-miterlimit="10" x1="1004.8" y1="1435.8" x2="986" y2="1297.9"/>
	<line fill="#B7DADA" stroke="#231F20" stroke-width="5" stroke-miterlimit="10" x1="1040.3" y1="1435.8" x2="1052.1" y2="1286.1"/>
	<line fill="#FAA81D" stroke="#231F20" stroke-width="5" stroke-miterlimit="10" x1="1085.5" y1="1435.8" x2="1103.2" y2="1251"/>
	<line fill="#FAA81D" stroke="#231F20" stroke-width="5" stroke-miterlimit="10" x1="1124.2" y1="1435.8" x2="1145.8" y2="1221.8"/>
	<line fill="#FAA81D" stroke="#231F20" stroke-width="5" stroke-miterlimit="10" x1="1168.2" y1="1435.8" x2="1198" y2="1147.8"/>
	<path fill="none" stroke="#231F20" stroke-width="5" stroke-miterlimit="10" d="M1253.5,1435.8c0,0,43.1-307,60.1-321.1"/>
	<path fill="none" stroke="#231F20" stroke-width="5" stroke-miterlimit="10" d="M1217.5,1435.8c0,0,14.2-272,54.9-354"/>
	<path fill="none" stroke="#231F20" stroke-width="5" stroke-miterlimit="10" d="M1317.1,1324.8c0,0,16.6-138.5,53.4-165.4"/>
</g>
<g id="left_arm">
	<path fill="#B7DADA" stroke="#000000" stroke-width="8" stroke-miterlimit="10" d="M728.8,1435.8
		c-6.4-72.4-119.8-269.4-119.8-269.4c-49.5,41.6-54.9,269.4-54.9,269.4l21.6,257.4c0,0,21.9,75.1,65.7,118.2L728.8,1435.8z"/>
	<path fill="none" stroke="#231F20" stroke-width="5" stroke-miterlimit="10" d="M685.3,1435.8c0,0-71.6-220.5-104.5-214"/>
	<path fill="none" stroke="#231F20" stroke-width="5" stroke-miterlimit="10" d="M633,1435.8c0,0-27-128-64-160.6"/>
	<path fill="none" stroke="#231F20" stroke-width="5" stroke-miterlimit="10" d="M592.6,1435.8c0,0-11.4-76.1-33.6-80.3"/>
	<line fill="none" stroke="#000000" stroke-width="5" stroke-miterlimit="10" x1="592.6" y1="1435.8" x2="563.4" y2="1546.4"/>
	<line fill="none" stroke="#000000" stroke-width="5" stroke-miterlimit="10" x1="633" y1="1435.8" x2="575.8" y2="1666.1"/>
	<line fill="none" stroke="#000000" stroke-width="5" stroke-miterlimit="10" x1="685.3" y1="1435.8" x2="604.4" y2="1760.6"/>
</g>
<g id="right_arm">
	<path fill="#B7DADA" stroke="#000000" stroke-width="8" stroke-miterlimit="10" d="M1412.7,1193.5c0,0-100.2,67.7-125.7,242.3h0.5
		l85.2,375.6c43.8-43.1,65.7-118.2,65.7-118.2l46.7-257.4v-155.5C1485,1280.3,1465.9,1219.6,1412.7,1193.5z"/>
	<path fill="none" stroke="#231F20" stroke-width="5" stroke-miterlimit="10" d="M1329.7,1435.8c0,0,20.9-145.4,120.4-214"/>
	<path fill="none" stroke="#231F20" stroke-width="5" stroke-miterlimit="10" d="M1386,1435.8c0,0,28.2-157.8,99.1-155.5"/>
	<path fill="none" stroke="#231F20" stroke-width="5" stroke-miterlimit="10" d="M1435.5,1435.8c0,0,17-89.3,49.5-86.1"/>
	<line fill="none" stroke="#000000" stroke-width="5" stroke-miterlimit="10" x1="1436" y1="1433.3" x2="1465.1" y2="1543.9"/>
	<line fill="none" stroke="#000000" stroke-width="5" stroke-miterlimit="10" x1="1386.5" y1="1435.8" x2="1443.7" y2="1666.1"/>
	<line fill="none" stroke="#000000" stroke-width="5" stroke-miterlimit="10" x1="1329.9" y1="1435.8" x2="1410.8" y2="1760.6"/>
</g>
<g id="pants">
	<polygon fill="#00855C" stroke="#000000" stroke-width="5" stroke-miterlimit="10" points="642,1812.3 1028.4,1943.4 
		1373.2,1812.3 1287.5,1436.7 729.4,1436.7 	"/>
	<line fill="none" stroke="#000000" stroke-width="6" stroke-miterlimit="10" x1="779.7" y1="1435.8" x2="694.5" y2="1829.5"/>
	<line fill="none" stroke="#000000" stroke-width="6" stroke-miterlimit="10" x1="816.9" y1="1435.8" x2="737.1" y2="1843.9"/>
	<line fill="none" stroke="#000000" stroke-width="6" stroke-miterlimit="10" x1="854.6" y1="1435.8" x2="779.7" y2="1858.3"/>
	<line fill="none" stroke="#000000" stroke-width="6" stroke-miterlimit="10" x1="885.4" y1="1435.8" x2="819.5" y2="1871.9"/>
	<line fill="none" stroke="#000000" stroke-width="6" stroke-miterlimit="10" x1="922.1" y1="1435.8" x2="862.4" y2="1886.4"/>
	<line fill="none" stroke="#000000" stroke-width="6" stroke-miterlimit="10" x1="967.2" y1="1435.8" x2="904.7" y2="1900.8"/>
	<line fill="none" stroke="#000000" stroke-width="6" stroke-miterlimit="10" x1="1002.8" y1="1435.8" x2="955.5" y2="1918"/>
	<line fill="none" stroke="#000000" stroke-width="6" stroke-miterlimit="10" x1="1040.3" y1="1435.8" x2="1097.1" y2="1916.2"/>
	<line fill="none" stroke="#000000" stroke-width="6" stroke-miterlimit="10" x1="1085.5" y1="1435.8" x2="1154.7" y2="1894.3"/>
	<line fill="none" stroke="#000000" stroke-width="6" stroke-miterlimit="10" x1="1124.2" y1="1435.8" x2="1202.4" y2="1876.2"/>
	<line fill="none" stroke="#000000" stroke-width="6" stroke-miterlimit="10" x1="1168.2" y1="1435.8" x2="1260.6" y2="1854.1"/>
	<line fill="none" stroke="#000000" stroke-width="6" stroke-miterlimit="10" x1="1217.5" y1="1435.8" x2="1307" y2="1836.4"/>
	<line fill="none" stroke="#000000" stroke-width="6" stroke-miterlimit="10" x1="1253.5" y1="1435.8" x2="1342.1" y2="1824.1"/>
	<polygon fill="#00855C" stroke="#000000" stroke-width="5" stroke-miterlimit="10" points="990.8,1931.7 1023.3,1623.7 
		1063.4,1932.5 1030.6,1943.4 	"/>
</g>
<g id="goatee">
	<path fill="#B7DADA" stroke="#231F20" stroke-width="8" stroke-miterlimit="10" d="M922.1,922.5c0,0-74,38.3-29.3,234.2v29.8
		l57.5,23.4c0,0,16.2,111,54.4,93.3l30-5.4l125.1-85.8l88.4-149.5c0,0-40.2-146.6-87-167.9c0,0,21.3,66-87.3,127.8
		c0,0-36.2-38.3-98,0C975.9,1022.6,915.7,963,922.1,922.5z"/>
	<path fill="none" stroke="#000000" stroke-width="3" stroke-miterlimit="10" d="M930.9,1202.1l-8.8-52.8c0,0-31.2-156,8.1-188.8"/>
	<path fill="#B7DADA" stroke="#231F20" stroke-width="3" stroke-miterlimit="10" d="M950.4,1210c0,0-28.8-209.7,0-217.2"/>
	<path fill="#B7DADA" stroke="#231F20" stroke-width="3" stroke-miterlimit="10" d="M1004.8,1303.3c0,0-59.3-171.1-28.9-280.8"/>
	<path fill="#B7DADA" stroke="#231F20" stroke-width="3" stroke-miterlimit="10" d="M1034.8,1297.9c0,0-46.1-218.9-28.5-289.1"/>
	<path fill="#B7DADA" stroke="#231F20" stroke-width="3" stroke-miterlimit="10" d="M1052.1,1286.1c0,0,12.2-205.6,0-276.6"/>
	<path fill="#B7DADA" stroke="#231F20" stroke-width="3" stroke-miterlimit="10" d="M1073.9,1022.6c0,0,44.7,37.4,9.9,247.9"/>
	<path fill="none" stroke="#231F20" stroke-width="3" stroke-miterlimit="10" d="M1118.7,1240.4c0,0,44.8-167-7.4-238.4"/>
	<path fill="none" stroke="#231F20" stroke-width="3" stroke-miterlimit="10" d="M1159.9,1212.2c0,0,41.4-181-23.3-239.3"/>
	<path fill="none" stroke="#231F20" stroke-width="3" stroke-miterlimit="10" d="M1217.5,1114.7c0,0-0.5-94.9-57.7-173.5"/>
</g>
<g id="_nose">
	<g>
		<polygon fill="none" stroke="#231F20" stroke-width="20" stroke-miterlimit="10" points="930.1,814.4 904.7,752.4 988.7,657.2 
			1043.1,692.5 1091,665.6 1171.4,757.2 1150.7,814.4 		"/>
		<g>
			<polygon fill="#231F20" points="942.4,708 953.7,708 1129,708 1169.7,756.3 1148.2,816.2 929.4,816.2 902.9,751.5 			"/>
			<g>
				<path fill="#231F20" stroke="#B7DADA" stroke-width="4" stroke-miterlimit="10" d="M914.1,929.9c0,0-13.3-55.5,0-95.9
					c0,0,17-68.2,105.4-78.8c0,0,50.1-14.9,109.7,19.2c0,0,51.1,36.2,36.2,121.4c0,0-2.1,91.6-91.6,127.8
					C1073.9,1023.6,941.8,1083.3,914.1,929.9z"/>
				<polygon fill="#B7DADA" points="995.1,760.7 1044.4,797.8 1092.9,758.1 1118.7,767.8 1044.4,831.9 961.9,775.7 				"/>
				<polygon fill="#B7DADA" points="1017.5,853.2 1048.3,895.7 1076,853.2 1047.8,868.1 				"/>
				
					<ellipse fill="#231F20" stroke="#B7DADA" stroke-width="12" stroke-miterlimit="10" cx="1113.4" cy="899.3" rx="22.4" ry="41.8"/>
				
					<ellipse fill="#231F20" stroke="#B7DADA" stroke-width="12" stroke-miterlimit="10" cx="977.8" cy="899.3" rx="22.4" ry="41.8"/>
				<path fill="#B7DADA" d="M1019.6,755.2l22.6,18.2l24.8-20.2C1067,753.2,1024.8,746.6,1019.6,755.2z"/>
			</g>
			<g>
				<path fill="#B7DADA" d="M1000.2,748.2c0,0-0.4-0.5-1.2-1.3c-0.7-0.9-1.7-2.1-2.8-3.7c-2.2-3.1-4.9-7.4-7.2-11.8
					c-2.4-4.4-4.4-9-5.7-12.6c-0.7-1.8-1.2-3.3-1.5-4.4c-0.3-1.1-0.5-1.7-0.5-1.7s0.4,0.5,1.2,1.3c0.7,0.9,1.7,2.1,2.8,3.7
					c2.2,3.1,4.9,7.4,7.2,11.8c2.4,4.4,4.4,9,5.7,12.6c0.7,1.8,1.2,3.3,1.5,4.4C1000.1,747.5,1000.2,748.2,1000.2,748.2z"/>
			</g>
			<g>
				<path fill="#B7DADA" d="M1016.6,744.3c0,0-0.3-0.4-0.6-1.2c-0.4-0.8-0.9-1.9-1.4-3.3c-1.1-2.7-2.1-6.5-2.8-10.2
					c-0.7-3.8-1.1-7.6-1.2-10.6c0-1.5,0-2.7,0.1-3.6c0.1-0.9,0.1-1.4,0.1-1.4s0.3,0.4,0.6,1.2c0.4,0.8,0.9,1.9,1.4,3.3
					c1.1,2.7,2.1,6.5,2.8,10.2c0.7,3.8,1.1,7.6,1.2,10.6c0,1.5,0,2.7-0.1,3.6C1016.7,743.8,1016.6,744.3,1016.6,744.3z"/>
			</g>
			<g>
				<path fill="#B7DADA" d="M1033.6,743.5c0,0-0.2-0.4-0.4-1.2c-0.2-0.8-0.5-1.9-0.8-3.2c-0.5-2.7-0.9-6.3-1-9.9
					c-0.1-3.6,0.2-7.2,0.7-9.9c0.2-1.4,0.5-2.5,0.7-3.3c0.2-0.8,0.4-1.2,0.4-1.2s0.2,0.4,0.4,1.2c0.2,0.8,0.5,1.9,0.8,3.2
					c0.6,2.7,0.9,6.3,1,9.9c0,3.6-0.2,7.2-0.7,9.9c-0.2,1.4-0.5,2.5-0.7,3.3C1033.8,743.1,1033.6,743.5,1033.6,743.5z"/>
			</g>
			<g>
				<path fill="#B7DADA" d="M1052.1,744.1c0,0-0.2-0.5-0.4-1.3c-0.2-0.8-0.5-1.9-0.8-3.3c-0.5-2.7-0.8-6.4-0.8-10.1
					c0-3.7,0.3-7.3,0.8-10.1c0.3-1.4,0.5-2.5,0.8-3.3c0.2-0.8,0.4-1.3,0.4-1.3s0.2,0.5,0.4,1.3c0.2,0.8,0.5,1.9,0.8,3.3
					c0.5,2.7,0.8,6.4,0.8,10.1c0,3.7-0.3,7.3-0.8,10.1c-0.3,1.4-0.5,2.5-0.8,3.3C1052.2,743.6,1052.1,744.1,1052.1,744.1z"/>
			</g>
			<g>
				<path fill="#B7DADA" d="M1068.6,744.1c0,0-0.1-0.5-0.1-1.2c0-0.8,0-1.9,0.1-3.1c0.2-2.6,0.7-5.9,1.6-9.2c0.9-3.3,2-6.4,3.2-8.7
					c0.6-1.2,1.1-2.1,1.5-2.7c0.4-0.7,0.7-1,0.7-1s0.1,0.5,0.1,1.2c0,0.8,0,1.9,0,3.1c-0.2,2.6-0.7,5.9-1.6,9.2
					c-0.9,3.2-2.1,6.4-3.2,8.7c-0.6,1.2-1.1,2.1-1.5,2.8C1068.9,743.7,1068.6,744.1,1068.6,744.1z"/>
			</g>
			<g>
				<path fill="#B7DADA" d="M1086.7,745.1c0,0,0-0.5,0.2-1.4c0.1-0.9,0.4-2.1,0.8-3.6c0.7-2.9,2.1-6.7,3.7-10.4
					c1.6-3.7,3.5-7.2,5.2-9.7c0.8-1.3,1.6-2.3,2.2-3c0.6-0.7,0.9-1.1,0.9-1.1s0,0.5-0.2,1.4c-0.1,0.9-0.4,2.1-0.8,3.6
					c-0.7,2.9-2.1,6.7-3.7,10.4c-1.6,3.7-3.5,7.2-5.2,9.7c-0.8,1.3-1.6,2.3-2.2,3C1087.1,744.7,1086.7,745.1,1086.7,745.1z"/>
			</g>
			<g>
				<path fill="#B7DADA" d="M1101.2,753.1c0,0,0.2-0.5,0.6-1.4c0.4-0.9,0.9-2,1.7-3.4c1.5-2.8,3.8-6.2,6.3-9.5
					c2.5-3.3,5.3-6.3,7.6-8.5c1.2-1.1,2.2-1.9,2.9-2.5c0.7-0.6,1.2-0.9,1.2-0.9s-0.2,0.5-0.6,1.4c-0.4,0.9-0.9,2-1.7,3.4
					c-1.5,2.8-3.8,6.2-6.3,9.5c-2.5,3.3-5.3,6.3-7.6,8.5c-1.2,1.1-2.2,1.9-2.9,2.5C1101.6,752.8,1101.2,753.1,1101.2,753.1z"/>
			</g>
			<g>
				<path fill="#B7DADA" d="M982.9,753.1c0,0-0.5-0.3-1.2-0.9c-0.7-0.6-1.7-1.4-2.9-2.5c-2.3-2.1-5.1-5.2-7.6-8.5
					c-2.5-3.3-4.8-6.7-6.3-9.5c-0.7-1.4-1.3-2.6-1.7-3.4c-0.4-0.9-0.6-1.4-0.6-1.4s0.5,0.3,1.2,0.9c0.7,0.6,1.7,1.4,2.9,2.5
					c2.3,2.1,5.1,5.2,7.6,8.5c2.5,3.3,4.8,6.7,6.3,9.5c0.7,1.4,1.3,2.6,1.7,3.4C982.7,752.6,982.9,753.1,982.9,753.1z"/>
			</g>
		</g>
	</g>
	<path fill="#B7DADA" d="M993,963h110.9C1103.8,963,1045.1,993.4,993,963z"/>
</g>
</svg>
