<?xml version="1.0" encoding="utf-8"?>
<!-- Generator: Adobe Illustrator 19.2.1, SVG Export Plug-In . SVG Version: 6.00 Build 0)  -->
<svg version="1.1" id="Layer_1" xmlns="http://www.w3.org/2000/svg" xmlns:xlink="http://www.w3.org/1999/xlink" x="0px" y="0px"
	 width="900px" height="900px" viewBox="0 0 900 900" enable-background="new 0 0 900 900" xml:space="preserve">
<g id="face">
	<path d="M638.2,422.1l83.1-70l86,63c0,0,24,11,19,23c0,0-46,4-54,41c0,0-16-1-29-11c0,0-13,5,25,18c0,0,21-11,41,0c0,0,18,8,23,0
		c0,0,0,11-44,31c0,0-18.6,31.3-69,25c-8-1-95.9,34-95.9,34s-30.1,3-3.1-11l76-25c0,0,10-11-15-5l-43.1,14c0,0-25.1,5,0-8l23.1-7.2
		c0,0,32.2-10-4.8-12.7l-18.3,2.9c0,0-15.1,0,0-9l15.1-5c0,0,10.3-8.3-3-12c0,0-26.3,9-12.1-3l8.1-6l-8.9-11l-8.1-38L638.2,422.1z"
		/>
	<path fill="#FFFFFF" d="M690.7,418.6c0,0-25.5,50.5-7.5,99.5c0,0,5,17-9-8C674.2,510.1,661.2,445.1,690.7,418.6z"/>
	<path fill="#FFFFFF" stroke="#000000" stroke-miterlimit="10" d="M731.2,372.2l70.8,50.3C802,422.5,758.4,404.3,731.2,372.2z"/>
</g>
<path id="teeth" fill="#FDF7BB" stroke="#000000" stroke-miterlimit="10" d="M773.1,476h10.7l-5.4-11.8l9.9,5.9l0.8-17.5l7.2,17
	l3.5-21l7,21l5.3-27.3l-0.7,0c0.1-0.3,0.6-0.3,0.7,0l9.7,30.3l4.5-34.5C826.3,438.1,778.4,444,773.1,476z"/>
<g id="horns">
	<path fill="#FFFFFF" stroke="#000000" stroke-width="2" stroke-miterlimit="10" d="M638.2,422.1l24.6-96.5c0,0,9-28.5,12,0v65.7
		L638.2,422.1z"/>
	<path fill="#FFFFFF" stroke="#000000" stroke-width="2" stroke-miterlimit="10" d="M695,375.3c0,0,3.1-55.2,25.7-74.7
		c0,0,9.6-4,3.6,10.5c0,0-13.5,34.3-3,42L695,375.3z"/>
	<path fill="#FFFFFF" stroke="#000000" stroke-width="2" stroke-miterlimit="10" d="M735.8,362.7c0,0,10.9-49.6,32.9-49.8
		c0,0,4.4-2.2-4.3,14.2c0,0-14.3,31.5-7,51.4L735.8,362.7z"/>
	<path fill="#FFFFFF" stroke="#000000" stroke-width="2" stroke-miterlimit="10" d="M771.4,388.8c0,0,11.5-51.4,36.5-61.7
		c0,0,9.3-3.5,0,9.6c0,0-22.4,27.3-16.2,67L771.4,388.8z"/>
	<path fill="#FFFFFF" stroke="#000000" stroke-width="2" stroke-miterlimit="10" d="M800.3,410c0,0,16.6-42.6,34.6-56.2
		c0,0,15-8,7,4c0,0-27.8,38.8-25.7,62.5L800.3,410z"/>
</g>
<g id="eye">
	<circle fill="#F7ED41" cx="743.8" cy="427.1" r="11"/>
	<circle fill="#231F20" cx="743.8" cy="427.1" r="5.5"/>
</g>
<path id="tail" stroke="#000000" stroke-miterlimit="10" d="M55.7,563.1c0,0,122.7-121.2,22-301.6c0,0-2-16.3,13.3,2.3l78.7,151.3v7
	c0,0-99.3,165.7-114,144.3V563.1z"/>
<g id="bones">
	<path d="M543.3,283.1v26c0,0,180,161,12,277c0,0-8,5-6,9s14,27,14,27l2-6l-7-23c0,0,183-104-5-286l-4-24H543.3z"/>
	<circle cx="547.3" cy="278.1" r="6"/>
	<circle cx="565.3" cy="622.1" r="6"/>
	<g>
		<path d="M566.8,636.8c0,0,0,20,12.3,27.3c0,0,4,0-2-13.7C577.1,650.4,568.5,627.4,566.8,636.8z"/>
		<path d="M577,631c0,0,14.1,14.1,28,10.6c0,0,2.8-2.8-11.1-8.2C594,633.4,571.6,623.2,577,631z"/>
		<path d="M576.9,617.9c0,0,20,0,27.3-12.3c0,0,0-4-13.7,2C590.5,607.6,567.5,616.2,576.9,617.9z"/>
		<path d="M546.3,660.9c0,0,14.1-14.1,10.6-28c0,0-2.8-2.8-8.2,11.1C548.7,644,538.6,666.4,546.3,660.9z"/>
		<path d="M552.7,624.1c0,0-20.2,0-27.6,12.4c0,0,0,4,13.8-2C538.9,634.5,562.1,625.8,552.7,624.1z"/>
	</g>
	<g>
		<path d="M556,266.4c0,0,14.1-14.1,10.6-28c0,0-2.8-2.8-8.2,11.1C558.4,249.5,548.3,271.9,556,266.4z"/>
		<path d="M544.8,263.2c0,0,0-20-12.3-27.3c0,0-4,0,2,13.7C534.4,249.6,543.1,272.6,544.8,263.2z"/>
		<path d="M535.6,272.7c0,0-14.1-14.1-28-10.6c0,0-2.8,2.8,11.1,8.2C518.6,270.3,541,280.4,535.6,272.7z"/>
		<path d="M587.6,263.8c0,0-20,0-27.3,12.3c0,0,0,4,13.7-2C574,274.1,597,265.5,587.6,263.8z"/>
		<path d="M557.1,285.3c0,0,14.3,14.3,28.3,10.7c0,0,2.9-2.9-11.2-8.3C574.2,287.7,551.6,277.5,557.1,285.3z"/>
	</g>
	<path fill="#FFFFFF" stroke="#000000" stroke-miterlimit="10" d="M625.8,450.8c0,0-9.6,10-16.7-4.7c0,0-5.1-16-14.1-8.3
		c0,0-13.3-2.7-14.3,1.7c0,0,5.3,13.7-1.7,19.3c0,0-3.3,3.7,2.3,10c0,0,1,7-5.3,9.3c0,0-16.1,14.7,14.8,1.3c0,0,7.6-7,16.2-2.7
		c0,0,9.3-0.3,12-7l7.9,2.7C626.9,472.4,632.7,460.1,625.8,450.8z"/>
	<path d="M582.5,437.6c0,0-27.6-74.5-51.2-100.9c0,0-12-21.1,10-3.3c0,0,44,37.8,55,102.3C596.3,435.7,599,443.8,582.5,437.6z"/>
	<path fill="#FFFFFF" stroke="#000000" stroke-miterlimit="10" d="M547.3,482.6l14-13.5c0,0,12.8,5.3,17.7-10.3l-2.8-6.2l-14.9-12.7
		c0,0-12.6-0.2-16.6-4.2c0,0-12.8-4.9-13.6,0v36.9C531.1,472.6,529.8,490.1,547.3,482.6z"/>
	<path d="M587.5,476.7c0,0-27.6,74.5-51.2,100.9c0,0-12,21.1,10,3.3c0,0,44-37.8,55-102.3C601.3,478.6,604,470.5,587.5,476.7z"/>
	<path fill="#FFFFFF" stroke="#000000" stroke-miterlimit="10" d="M531.1,452.6c0,0-5.4-4.8-12.8-2.8l-11-11.7
		c0,0-22.3-14.5-27.7-2.4c0,0-3.7,26.7,0,36.1c0,0,5.3,10.5,14,4.3c0,0,7.3,7.6,18.7,2C512.3,478,531.1,464.1,531.1,452.6z"/>
	<path fill="#FFFFFF" stroke="#000000" stroke-miterlimit="10" d="M440.3,443.1c0,0,12.7-9.3,24,0l14.1,5.1l-0.3,13.5l-25.1,8.8
		c0,0-15.3,5.9-12.7-15.7V443.1z"/>
	<path fill="#FFFFFF" stroke="#000000" stroke-miterlimit="10" d="M403,466.2c0,0-10-5.9-3.3-26.3c0,0,1.3-8.2,16.7-1.8
		c0,0,9.3,4,15.3,0.9c0,0,8.3-0.6,8.4,11c0,0,5.6,17.8-7,17.1l-8,7.3c0,0-6.7-3.2-12-3.3C413,471.1,408.8,471.5,403,466.2z"/>
	<path fill="#FFFFFF" stroke="#000000" stroke-miterlimit="10" d="M397.8,447.7c0,0-37.4-25.2-38.1-3.2c0,0-4,16.3,6.7,19.8h12
		l3.3,6.9c0,0,12,5.1,17-10.8L397.8,447.7z"/>
	<path fill="#FFFFFF" stroke="#000000" stroke-miterlimit="10" d="M359.7,444.4c0,0-26-13.2-28-10.9c0,0-18.7-2.7-12,19.1l7.3,2.9
		l0.7,4.9c0,0,14.7,7,21.3-1.4C349,459,355,456.5,359.7,444.4z"/>
	<path fill="#FFFFFF" stroke="#000000" stroke-miterlimit="10" d="M321.9,435.7c0,0-12.9-3.3-12.9-8.6c0,0-6-12.1-12,4.3
		c0,0-8.7,8.7,2.7,8.5c0,0,9.8,4.5,18.6,7.2C318.2,447.1,331,444.4,321.9,435.7z"/>
	<path fill="#FFFFFF" stroke="#000000" stroke-miterlimit="10" d="M297.6,429.9c0,0-27.6-25.2-32.3-12.5c0,0-5.6,8.6,4,12.5
		c5.3,2.2,26.7,3.8,26.7,3.8L297.6,429.9z"/>
	<path fill="#FFFFFF" stroke="#000000" stroke-miterlimit="10" d="M241,415.1c0,0-3.3-7,13.3,0l11,2.3l-0.5,9.1
		c0,0-13.1,7.4-23.8,4.3C241,430.9,233.7,423.8,241,415.1z"/>
	<path fill="#FFFFFF" stroke="#000000" stroke-miterlimit="10" d="M241,415.1c-2.2-3.2-16,0.2-18-3.2c0,0-12-6.1-10,3.2
		c0,0-1.3,8,10,6.6c0,0,13.9-1.3,14.7,2.1C237.7,423.8,247,423.8,241,415.1z"/>
	<path fill="#FFFFFF" stroke="#000000" stroke-miterlimit="10" d="M213,415.1c0,0-5.7-8.5-11.2-7.5c0,0-10.5,6-6.5,9.3
		C195.3,416.8,205.2,430.1,213,415.1z"/>
	<path fill="#FFFFFF" stroke="#000000" stroke-miterlimit="10" d="M196.1,412c0,0-11.8-7.4-18.3,4.9c0,0,1.5,7.6,9.1,6
		c0,0,7.6-1.1,8.4-6C196.1,412,196.1,412,196.1,412z"/>
	<path fill="#FFFFFF" stroke="#000000" stroke-miterlimit="10" d="M177.8,416.8c0,0-8.2-8.8-8.2-1.8v7
		C169.7,422.1,175.3,424.6,177.8,416.8z"/>
	<path stroke="#000000" stroke-miterlimit="10" d="M533,481c0,0,7.8,1.1-32.7,54.1c0,0-6,15.5,7,6c0,0,33-34,40-58.5
		C547.3,482.6,541.2,473.9,533,481z"/>
	<path stroke="#000000" stroke-miterlimit="10" d="M542.1,436.1c0,0,7.9,0.7-19.7-60.1c0,0-2.4-16.5,8.2-4.3c0,0,24.5,40.5,25.9,66
		C556.4,437.8,548.5,444.9,542.1,436.1z"/>
	<path stroke="#000000" stroke-miterlimit="10" d="M509.6,440.5c0,0-7.3-64.6-27-73.2c0,0-6.8-2.2-4.3,7.1c0,0,19.7,37.6,15.3,56.4
		C493.7,430.9,501.2,442.9,509.6,440.5z"/>
	<path stroke="#000000" stroke-miterlimit="10" d="M507.5,474.6c0,0-24.1,60.4-45.3,63.5c0,0-7.2,0.4-2.2-8c0,0,28.9-31,29.7-50.4
		C489.6,479.7,500.1,470.1,507.5,474.6z"/>
	<path stroke="#000000" stroke-miterlimit="10" d="M464.3,443.1c0,0-1-52.2-18-64.6c0,0-11-17.4-13,4.6c0,0,18,29,15.5,55
		C448.8,438.1,457.3,448.1,464.3,443.1z"/>
	<path stroke="#000000" stroke-miterlimit="10" d="M461,469c0,0-12,50-31.4,58.2c0,0-14.5,14.4-11.8-7.2c0,0,23.8-24,26.9-49.5
		C444.7,470.4,455.1,462.6,461,469z"/>
	<path stroke="#000000" stroke-miterlimit="10" d="M421.3,438.9c0,0-11.5-55.9-28-67c0,0-14-13-10,3.3c0,0,26,35,22.5,60.4
		C405.8,435.7,417.3,442.8,421.3,438.9z"/>
	<path stroke="#000000" stroke-miterlimit="10" d="M424.4,471.5c0,0-24.2,51.6-42.8,58.6c0,0-16.6,9.4-9-5.6c0,0,33.4-28,36-53.5
		C408.6,471.1,421.4,466.8,424.4,471.5z"/>
	<path stroke="#000000" stroke-miterlimit="10" d="M379.5,438c0,0-2.1-36.6-29.5-59.8c0,0-13.6-12.2-11.4,4.7c0,0,29.1,30,31.8,53.3
		C370.3,436.2,370.9,445.8,379.5,438z"/>
	<path stroke="#000000" stroke-miterlimit="10" d="M380.5,464.8c0,0-6.4,36.1-36.4,55.8c0,0-14.9,10.5-10.8-6
		c0,0,32.4-26.3,37.9-49.1C371.2,465.5,372.9,456,380.5,464.8z"/>
	<path stroke="#000000" stroke-miterlimit="10" d="M340.1,434.6c0,0-6.5-34.1-29.5-52.9c0,0-11.5-10-7.6,5.6c0,0,25.1,25,30.2,46.6
		C333.3,433.8,335,442.8,340.1,434.6z"/>
	<path stroke="#000000" stroke-miterlimit="10" d="M336.8,462.6c0,0-11,32.8-35.9,47.1c0,0-12.6,7.8-6.7-7c0,0,27.9-20.1,35.8-40.6
		C330,462,332.9,453.4,336.8,462.6z"/>
	<path stroke="#000000" stroke-miterlimit="10" d="M317,433.3c0,0-4.2-25.3-25.1-39.3c0,0-10.4-7.4-7.6,4.1c0,0,22.5,18.6,26.2,34.6
		C310.4,432.7,311.6,439.4,317,433.3z"/>
	<path stroke="#000000" stroke-miterlimit="10" d="M316.5,446.5c0,0-8.1,24.3-30.9,34.9c0,0-11.4,5.7-6.8-5.2
		c0,0,25.1-14.9,31.2-30.1C309.9,446,312.1,439.6,316.5,446.5z"/>
	<path stroke="#000000" stroke-miterlimit="10" d="M285.5,418.4c0,0-17.5-30.7-33.2-35l-5.5-1.3c0,0,13,28,20.4,34
		C267.1,416.1,280.1,423,285.5,418.4z"/>
	<path stroke="#000000" stroke-miterlimit="10" d="M269.3,429.9c0,0-9.6,28.9-26.3,34.3c0,0-0.4,13,26.3-8.8
		c0,0,19.4-17.1,15.4-22.2C284.8,433.2,274.3,423.7,269.3,429.9z"/>
	<path stroke="#000000" stroke-miterlimit="10" d="M243,411.6c0,0-10.7-21.5-17.7-24c0,0-4.8-7.5,8.8,0c0,0,21.2,20,20.2,27.5
		C254.3,415.1,245.6,416.5,243,411.6z"/>
	<path stroke="#000000" stroke-miterlimit="10" d="M243,432.6c0,0-10.7,21.5-17.7,24c0,0-4.8,7.5,8.8,0c0,0,21.2-20,20.2-27.5
		C254.3,429.2,245.6,427.7,243,432.6z"/>
	<path stroke="#000000" stroke-miterlimit="10" d="M203.6,445.2l17.5-22.7c0,0,6.8-7.5,10.5-1.8L206,448.3
		C206,448.3,202.7,451.4,203.6,445.2z"/>
	<path stroke="#000000" stroke-miterlimit="10" d="M203.6,388.7l17.5,22.7c0,0,6.8,7.5,10.5,1.8L206,385.6
		C206,385.6,202.7,382.5,203.6,388.7z"/>
	<path stroke="#000000" stroke-miterlimit="10" d="M198.5,420l-7.2,18.1l15.3-16.3C206.6,421.8,204.2,416.4,198.5,420z"/>
	<path stroke="#000000" stroke-miterlimit="10" d="M197.5,408.3l-7.2-18.1l15.3,16.3C205.6,406.4,203.2,411.9,197.5,408.3z"/>
	<path stroke="#000000" stroke-miterlimit="10" d="M180.6,415.6l-4.1-15.8c0,0,1.1-5.6,4.1,0l8.9,8.9
		C189.5,408.7,188.8,414.9,180.6,415.6z"/>
	<path stroke="#000000" stroke-miterlimit="10" d="M181.1,418.7l-4.1,15.8c0,0,1.1,5.6,4.1,0l8.9-8.9
		C190,425.6,189.3,419.4,181.1,418.7z"/>
</g>
</svg>
